<svg xmlns="http://www.w3.org/2000/svg" width="42" height="46" viewBox="0 0 42 46" fill="none">
  <path fill-rule="evenodd" clip-rule="evenodd" d="M20.7791 41.8989C19.9806 41.8989 18.7287 40.576 17.6298 37.6522C16.5496 38.2026 15.6111 38.6355 14.6988 39.0292C16.1298 42.7461 18.1653 45.1717 20.7791 45.1717C23.4658 45.1717 25.5404 42.6136 26.977 38.7307C26.0722 38.3556 25.1169 37.9284 24.0273 37.3891C22.9098 40.4995 21.6056 41.8989 20.7791 41.8989ZM11.9935 37.7642C6.21169 39.8894 0.258215 39.9435 0.258215 34.6967C0.258215 32.9446 1.0698 30.4854 3.60903 27.0801C4.693 25.6266 5.94862 24.1974 7.2229 22.8857C10.0793 19.9842 13.2976 17.1947 17.4936 14.3045C15.4731 13.1924 13.2697 12.127 11.1204 11.3377C8.91883 10.5261 6.98036 10.0764 5.49526 10.0764C4.54748 10.0764 3.84224 10.276 3.61276 10.6138C3.36462 10.972 3.35529 12.0766 4.443 14.0526L4.8348 14.0283C6.78819 14.0283 8.37591 15.6442 8.37591 17.6351C8.37591 19.626 6.78819 21.2381 4.8348 21.2381C2.87953 21.2381 1.29555 19.626 1.29555 17.6351C1.29555 16.9895 1.4616 16.3849 1.75265 15.8606C0.651879 13.9201 0.256349 12.3901 0.256349 11.1903C0.256349 8.36352 2.40938 6.79805 5.49526 6.79805C10.1856 6.79805 16.5029 9.89914 20.5739 12.2949C24.7046 9.75174 31.2402 6.40062 36.0667 6.40062C39.5985 6.40062 41.3038 8.36726 41.3038 10.8694C41.3038 12.6215 40.4903 15.0788 37.953 18.4822C32.1991 26.2013 20.7586 34.5399 11.9935 37.7642ZM39.8243 29.7316C40.0892 29.2278 40.2347 28.6568 40.2347 28.0485C40.2347 26.0558 38.6508 24.4418 36.6955 24.4418C34.7402 24.4418 33.1562 26.0558 33.1562 28.0485C33.1562 30.0376 34.7402 31.6497 36.6955 31.6497L37.1768 31.618C38.2067 33.5286 38.1918 34.5978 37.9511 34.9523C37.7198 35.29 37.0164 35.4878 36.0668 35.4878C33.0779 35.4878 28.9155 33.7264 26.2345 32.396C25.3389 33.0342 24.2288 33.7917 23.143 34.484C26.7345 36.417 32.0182 38.7661 36.0668 38.7661C39.1265 38.7661 41.3057 37.2175 41.3057 34.3739C41.3057 33.1834 40.912 31.659 39.8243 29.7316ZM15.8798 29.9536H15.8779L15.8537 29.9349C13.7193 28.4236 11.6148 26.763 9.66511 25.0258C4.40941 30.394 2.92804 34.2862 3.62395 35.3329C3.85903 35.6856 4.54188 35.8908 5.49526 35.8908C9.87967 35.8908 16.8388 32.1255 20.9564 29.4256C26.0106 26.1136 31.7775 21.35 35.3895 16.5025C38.1993 12.7372 38.2851 10.7537 37.9381 10.2313C37.703 9.87676 37.022 9.67524 36.0667 9.67524C32.4249 9.67524 26.88 12.3976 23.6859 14.241C26.0423 15.8009 28.2438 17.4485 30.2532 19.1222C29.492 19.8965 28.6972 20.6503 27.8838 21.3818C25.6524 19.5495 23.1747 17.7508 20.6056 16.1386C17.6559 18.0717 14.6857 20.3443 12.0178 22.7662C14.0234 24.5407 16.4134 26.4028 18.9601 28.1269C17.9862 28.7445 17.0029 29.3341 15.8798 29.9536ZM20.7791 19.0494C22.8389 19.0494 24.5106 20.7212 24.5106 22.7811C24.5106 24.8411 22.8389 26.5129 20.7791 26.5129C18.7194 26.5129 17.0477 24.8411 17.0477 22.7811C17.0477 20.7212 18.7194 19.0494 20.7791 19.0494ZM17.5347 8.17505C16.4526 7.64328 15.4917 7.20853 14.585 6.83535C16.0216 2.9506 18.0963 0.390612 20.7791 0.390612C23.3967 0.390612 25.4341 2.81999 26.8632 6.53308C25.949 6.92865 25.005 7.36713 23.9303 7.91197C22.8351 4.98814 21.5833 3.66709 20.7791 3.66709C19.9564 3.66709 18.6541 5.0665 17.5347 8.17505Z" fill="#8C68C8"/>
</svg>
