<svg xmlns="http://www.w3.org/2000/svg" width="38" height="46" viewBox="0 0 38 46" fill="none">
  <path fill-rule="evenodd" clip-rule="evenodd" d="M2.74387 28.1903C6.4271 31.9613 10.7298 34.0679 15.9822 34.0679C25.765 34.0679 33.708 26.1267 33.708 16.342C33.708 10.6697 31.3757 6.62266 27.741 3.01965L30.37 0.390625C34.6727 4.30524 37.4211 9.94205 37.4398 16.2133C37.4696 27.1175 29.3102 36.1576 18.7811 37.5589V37.7082C18.7811 41.2067 21.6284 43.3058 24.3787 43.3058H26.2445V45.1717H5.71994V43.3058H7.58581C10.3828 43.3058 13.1834 41.1582 13.1834 37.7082V37.5757C8.04295 36.9208 3.46596 34.4429 0.122314 30.81L2.74387 28.1903ZM0.122322 16.4372C0.122322 7.67688 7.22197 0.577212 15.9822 0.577212C24.7295 0.577212 31.8422 7.66568 31.8422 16.4372C31.8422 25.1975 24.7407 32.2953 15.9822 32.2953C7.22197 32.2953 0.122322 25.1937 0.122322 16.4372ZM16.6969 3.25661C16.3927 3.26594 16.1782 3.60553 15.9431 3.79958C15.4729 4.18955 14.2694 4.95456 13.5977 4.72132C12.911 4.48622 11.4426 5.59455 11.2075 5.60388C11.1198 5.60575 11.2112 4.76424 11.6795 4.70266C11.4762 4.73252 13.3271 3.76786 13.2767 3.56634C13.217 3.32751 9.57856 4.65228 9.74089 4.9191C9.8174 5.04039 10.1346 5.04039 9.7185 5.30721C9.48154 5.45088 9.22591 6.36516 9.00201 6.36516C8.33589 6.65624 8.29298 5.79234 7.55222 6.90626L6.36926 7.38393C4.61534 9.24607 3.40066 11.6083 2.96031 14.2317C2.94352 14.3381 3.40252 14.5302 3.46036 14.603C3.60963 14.7803 3.60963 15.5453 3.6824 15.7934C3.86526 16.426 4.31493 16.7768 4.66012 17.3514C4.8635 17.6948 5.20122 18.5605 5.09487 18.9188C5.23854 18.6837 6.51107 19.9973 6.74243 20.2697C7.28914 20.9153 7.71269 21.6933 6.82267 22.3296C6.53532 22.5367 7.25742 23.8223 6.88611 24.1395L6.40658 24.2608C5.93638 24.55 6.14909 25.2609 6.43643 25.5594C8.83968 28.0728 12.2262 29.6383 15.9785 29.6383C23.2685 29.6383 29.1796 23.7272 29.1796 16.4372C29.1796 15.0676 28.9463 13.6869 28.7075 12.9592C28.6329 12.7297 28.4575 12.5449 28.2336 12.4591C27.894 12.3285 26.4647 13.2465 26.2501 12.795L25.4945 12.8043C25.3359 12.7185 24.8955 12.1251 24.694 12.196C24.2854 12.3453 25.3209 13.4704 25.6027 13.6197C25.8676 13.4182 26.7278 13.0058 26.9144 13.5693C27.2689 14.631 25.9404 15.7953 25.2612 16.411C24.2462 17.3272 24.4346 15.8158 23.7443 15.2841C23.3804 15.006 23.3842 14.4108 23.0185 14.2056C22.8617 14.1179 22.1751 13.3323 22.1116 13.1532L22.1079 13.1308L22.1116 13.1532L22.0874 13.3491C21.9624 13.4462 21.6993 12.9965 21.6694 12.9256C21.6694 13.3156 22.3057 13.9369 22.5147 14.2485C22.871 14.784 23.0632 15.5639 23.5017 16.0024C23.7368 16.2375 24.638 17.2096 24.8713 17.1891L26.0748 16.6163C26.9256 16.8178 24.0727 20.8537 23.8021 21.3519C23.5782 21.7736 23.9812 22.8073 23.9514 23.3036C23.9122 23.8746 23.4625 24.0611 23.0352 24.3709C22.5762 24.7067 22.6845 25.3561 22.3001 25.593C21.6172 26.0147 21.1246 27.3824 20.1562 27.3749C19.8689 27.3749 18.6486 27.8507 18.4881 27.3843C18.365 27.0465 18.197 26.7891 18.0216 26.4551C17.8518 26.1285 18.003 25.7889 17.794 25.4997C17.6485 25.2982 17.1671 24.8429 17.1242 24.6041C17.1204 24.4007 17.279 23.7775 17.4936 23.6674C17.7977 23.5144 17.5514 23.0629 17.5141 22.8017C17.4507 22.3333 17.1615 21.9471 16.8126 21.6766C16.2994 21.281 16.5663 20.9675 16.6857 20.4022C16.6857 20.1335 16.5215 19.7808 16.1576 19.8853C15.4131 20.1036 15.6408 19.3032 15.0978 19.3405C14.706 19.3666 14.3851 19.6166 14.0212 19.7248C13.5641 19.8629 13.0957 19.6185 12.6442 19.5606C10.7839 19.3255 10.1775 17.2003 10.6626 15.6666L10.5992 14.756C10.8082 14.2895 11.2355 13.769 11.6068 13.4163C11.8157 13.2167 12.0826 13.267 12.3289 13.114C12.7095 12.8752 12.7151 12.3826 13.0845 12.0822C13.6144 11.6512 14.3347 11.6605 15.0269 11.5691C15.3926 11.5187 16.792 11.2164 17.0122 11.4889C17.0122 11.5392 17.251 12.2501 17.0085 12.2483L16.9861 12.2464L17.0085 12.2483C17.5794 12.2987 18.3818 13.2335 18.9173 13.0114C19.1971 12.8957 19.0945 12.0374 19.6692 12.4535C20.0125 12.7017 21.5649 12.8118 21.8877 12.5449C22.0874 12.3807 22.1993 11.3153 21.9549 11.1959C22.1079 11.3489 21.1507 11.3601 21.0593 11.3247C20.9081 11.2687 20.7682 11.4571 20.5331 11.3732L20.5089 11.3638C20.5816 11.3918 19.6655 10.875 20.2103 10.4776L19.4975 10.6194L19.3296 10.9795C18.9303 11.1847 18.628 10.2872 18.4788 10.1865C18.3258 10.0857 17.1391 9.25354 17.4619 9.79651L18.5049 10.8339C18.4527 10.8675 18.2306 10.457 18.2306 10.7574C18.2997 10.5802 18.2549 11.5224 18.0925 11.2146L18.1 10.8619C18.1 10.7481 17.7996 10.6399 17.7399 10.5634C17.5757 10.3581 17.1354 9.9066 16.8984 9.79837C16.8331 9.76665 15.8889 9.91219 15.8087 9.94391L15.5717 10.3544C15.3758 10.4272 15.193 10.5205 15.0195 10.6362L14.8123 11.1026C14.7209 11.1829 13.801 11.487 13.7954 11.4982C13.8346 11.3993 13.1517 11.2724 13.1965 11.0746C13.2469 10.8563 13.4782 10.1753 13.4185 9.92712C13.3551 9.6659 14.8385 10.3022 14.9355 9.61552C14.9728 9.31884 14.9933 8.97179 14.5194 8.92141C14.609 8.93261 15.4374 8.59675 15.5755 8.44561C15.7677 8.22357 16.2117 7.85973 16.5327 7.85973C16.9077 7.85973 16.8256 7.31489 16.9991 7.04621C17.1727 7.11711 16.9058 7.54439 17.1148 7.71792C17.0999 7.58171 17.7026 7.79069 17.7604 7.76084C17.9004 7.6862 18.6654 7.73098 18.546 7.369C18.4135 7.00329 18.6131 7.11151 18.7866 7.03501C18.7568 7.04621 19.2345 6.21776 19.3166 6.49017C19.2606 6.21029 18.7605 6.5872 18.587 6.57414C18.184 6.54055 18.3538 5.8875 18.5068 5.69344C18.6243 5.54231 18.1858 5.35759 18.1802 5.6468C18.1728 6.08155 17.7679 6.47525 17.8612 7.05367C18.0048 7.92503 16.8891 6.84469 16.792 6.90253C16.4226 7.12644 16.1203 6.62078 16.3106 6.31478L17.1727 5.68598C17.3107 5.45088 17.4693 5.17846 17.6821 4.99934C18.3892 4.40599 18.5833 4.88179 19.2886 4.94523C19.9771 5.00867 19.5199 5.10942 19.4266 5.37438C19.3352 5.62627 19.8054 5.71583 19.9677 5.50499C20.0592 5.38371 20.2719 5.0777 20.3614 4.85193C20.479 4.55899 21.5519 4.59258 20.8037 4.1429C20.3092 3.84996 18.1541 3.25474 16.7099 3.25474L16.6969 3.25661ZM17.4936 11.3751C17.447 11.2874 17.9451 11.2426 18.0328 11.2426C18.1317 11.2538 17.7772 11.8378 17.4936 11.3751ZM20.8578 9.33751C20.8522 9.14346 20.6078 8.96247 20.354 9.29646C20.1767 9.52783 20.2085 9.87862 20.1133 10.0335C19.9734 10.2649 20.8615 10.4813 20.8615 10.263C20.8951 9.89541 21.8299 10.179 22.0128 10.2294C22.3393 10.319 22.8617 9.93086 22.2908 9.72561C21.8187 9.55395 21.5724 9.37296 21.5314 9.03524C21.5314 9.03524 21.7814 8.80387 21.6713 8.81693C21.3821 8.85052 20.8578 9.85436 20.8578 9.33751ZM14.65 7.31488L14.7937 7.2757L14.7247 7.45482C14.8385 7.66007 14.7545 7.78135 14.7359 7.8933L14.5399 8.01459C14.469 8.10228 14.8795 8.11534 14.8851 8.12654C14.9 8.17132 14.3888 8.24409 14.484 8.35231C14.609 8.5333 15.5718 8.09482 15.4188 8.12094C15.7154 7.97167 15.4579 7.95488 15.2919 7.86905C15.234 7.58543 15.1874 7.14695 15.0101 6.96969L15.1258 6.83722C14.8534 6.44165 14.65 7.31488 14.65 7.31488ZM13.969 8.03514C13.857 8.08179 13.7451 8.01088 13.8552 7.89893L13.9708 7.75899L13.9597 7.69555L14.0511 7.57987L14.1462 7.55561L14.3422 7.4194C14.4 7.4306 14.5362 7.54255 14.4896 7.61345L14.3832 7.74406C14.3608 7.96424 14.1369 7.96237 13.9727 8.03514H13.9652H13.969Z" fill="#F86761"/>
</svg>