<svg width="46" height="46" viewBox="0 0 46 46" fill="none" xmlns="http://www.w3.org/2000/svg">
<g id="eos-icons:science-outlined">
<path id="Vector" d="M24.5409 19.0409L35.7712 37.0048C35.8272 37.0952 35.8581 37.199 35.8607 37.3053C35.8634 37.4117 35.8376 37.5168 35.786 37.6099C35.7345 37.703 35.6591 37.7807 35.5675 37.8349C35.476 37.8891 35.3716 37.918 35.2652 37.9185H10.041C9.93404 37.9179 9.82919 37.8888 9.73735 37.834C9.6455 37.7792 9.57002 37.7008 9.51875 37.6069C9.46748 37.513 9.44231 37.4072 9.44584 37.3003C9.44938 37.1934 9.48149 37.0894 9.53885 36.9991L20.7654 19.0409V5.82654H24.5409V19.0409ZM13.2143 2.05103V5.82654H16.9898V18.0215L6.34098 34.9924C5.92578 35.6542 5.69529 36.415 5.67346 37.1959C5.65163 37.9768 5.83925 38.7493 6.21683 39.4332C6.59442 40.117 7.1482 40.6874 7.82067 41.0849C8.49315 41.4825 9.25979 41.6928 10.041 41.694H35.2652C36.0464 41.6928 36.8131 41.4825 37.4855 41.0849C38.158 40.6874 38.7118 40.117 39.0894 39.4332C39.467 38.7493 39.6546 37.9768 39.6328 37.1959C39.6109 36.415 39.3804 35.6542 38.9652 34.9924L28.3183 18.0215L28.3164 5.82654H32.0919V2.05103H13.2143Z" fill="#F86761"/>
</g>
</svg>
