<svg width="1302" height="504" viewBox="0 0 1302 504" fill="none" xmlns="http://www.w3.org/2000/svg">
<path d="M1083.66 15.6622C840.44 15.6622 788.264 178.709 571.531 236.539C456.342 267.461 386.105 380.309 520.559 408.822C590.797 423.681 671.871 396.774 744.115 408.019C832.012 421.673 899.841 473.077 987.738 494.362C1075.64 515.245 1175.97 504.803 1235.37 434.926C1344.95 306.014 1295.18 15.6622 1083.66 15.6622Z" fill="url(#paint0_linear_9_2643)"/>
<path d="M854.488 315.653C725.251 315.653 320.282 373.08 133.25 373.884C-9.63254 374.285 -65.0197 435.729 107.563 432.918C204.29 431.312 214.726 428.099 321.486 434.123C458.75 441.753 579.96 463.439 735.285 473.479C968.473 488.739 1200.06 474.282 1267.48 432.516C1353.37 379.104 1243.8 315.653 854.488 315.653Z" fill="url(#paint1_linear_9_2643)"/>
<path d="M765.387 420.87C714.816 420.87 673.877 426.492 673.877 433.32C673.877 440.147 714.816 445.769 765.387 445.769C815.957 445.769 856.896 440.147 856.896 433.32C856.896 426.492 815.957 420.87 765.387 420.87Z" fill="#C4D8FB"/>
<path d="M511.729 301.597C484.036 277.903 474.805 259.028 467.58 251.799C477.614 308.424 529.389 400.79 558.688 379.104C579.96 363.844 550.26 334.527 511.729 301.597Z" fill="#4B66BA"/>
<path d="M568.722 305.211C568.722 293.163 564.708 237.743 549.858 204.411C558.287 261.839 535.409 258.225 535.409 326.094C535.409 346.575 548.253 380.711 559.892 382.317C571.13 383.924 573.538 369.466 575.545 364.647C581.565 351.796 589.592 261.839 585.579 253.004C575.545 268.265 569.926 302.4 568.722 305.211Z" fill="#42445D"/>
<path d="M565.11 381.112C565.11 384.727 615.279 387.939 637.354 349.788C654.612 320.07 665.85 316.857 675.483 311.637C609.66 312.038 565.511 371.876 565.11 381.112Z" fill="#333242"/>
<path d="M592.803 294.368C588.79 298.786 588.388 304.408 585.579 308.826C582.368 313.243 577.552 315.251 576.348 322.078C575.946 325.291 576.348 328.102 575.545 330.913C574.742 334.528 572.736 337.74 571.933 341.355C571.531 344.166 571.933 346.575 571.531 349.386C570.729 356.615 557.484 366.655 565.912 374.687C564.708 380.711 565.511 383.12 568.321 383.522C575.144 384.727 575.545 377.9 577.552 374.285C579.559 370.269 584.776 367.86 586.382 362.237C587.184 359.025 585.98 355.41 586.382 352.599C586.783 350.591 589.191 349.788 590.395 348.182C594.007 344.166 594.81 338.945 595.212 333.724C595.613 330.512 593.606 325.291 594.409 322.881C596.014 317.661 601.232 317.259 600.83 309.227C600.83 306.818 599.225 304.006 599.626 301.597C600.028 299.589 601.633 297.982 602.837 295.974C606.048 290.352 604.443 283.927 605.245 277.501C600.429 282.32 597.62 289.147 592.803 294.368Z" fill="#4B66BA"/>
<path d="M561.498 347.378C555.076 347.78 547.45 354.607 543.838 361.434C543.437 357.017 543.437 353.001 543.437 348.583C547.45 344.166 555.477 344.567 559.491 338.945C563.906 332.921 558.688 326.897 551.865 330.913C548.654 332.921 545.443 338.543 543.035 343.363C543.035 340.15 543.035 336.134 543.035 332.921C543.035 330.11 543.035 327.7 543.035 324.889C547.851 321.275 559.089 320.472 559.491 311.637C559.892 305.613 553.47 301.998 549.056 307.219C546.647 310.03 544.239 314.448 542.634 318.865C542.232 314.046 541.831 309.227 541.43 304.408C546.647 299.589 559.892 299.589 561.899 290.754C563.504 283.525 554.273 282.722 549.858 286.738C545.042 290.352 543.437 296.778 541.43 302.4C541.028 298.786 540.226 295.171 539.423 291.557C543.437 286.738 552.266 283.123 553.069 275.895C554.273 268.666 547.851 261.437 541.831 269.469C538.62 273.485 537.818 279.509 537.416 285.131C536.613 281.116 535.409 277.501 534.205 273.485C535.008 271.076 536.212 268.265 537.818 265.453C539.824 262.241 542.634 259.028 541.831 255.012C540.627 248.185 535.811 252.201 533.804 257.02C532.199 260.233 532.199 264.249 532.6 268.265C530.994 263.847 528.586 257.823 526.58 253.406C528.185 246.177 544.239 231.318 531.797 231.72C525.777 231.72 524.573 243.767 524.974 250.594C523.77 248.185 521.362 243.366 520.961 242.964C522.566 236.94 530.994 218.869 522.566 218.467C515.743 218.467 516.947 229.712 517.75 234.932C517.75 235.735 518.151 236.539 518.151 237.743C516.144 234.531 514.138 231.318 512.131 227.704C513.335 225.696 514.539 222.483 515.342 219.672C515.743 217.664 516.947 208.427 511.729 212.041C509.723 213.246 509.321 220.073 510.124 224.491C508.519 222.081 506.913 220.073 505.308 217.664C495.675 200.797 501.695 177.906 488.451 181.52C472.798 185.536 478.417 197.986 482.832 202.805C486.444 206.821 493.668 212.443 501.695 216.459C503.301 218.869 510.124 229.712 510.927 230.916C504.104 223.688 490.056 209.23 485.24 218.065C481.226 226.097 504.104 229.712 512.131 233.326C514.539 237.743 520.158 248.586 520.961 249.791C517.75 246.578 514.94 242.161 510.927 240.153C507.314 238.547 498.886 237.342 499.287 242.563C499.689 249.791 510.525 249.791 515.743 250.594C519.355 251.398 521.362 252.602 522.165 252.201C524.573 257.823 526.981 263.445 528.988 269.469C524.573 262.642 511.729 248.185 506.512 257.02C500.09 268.265 521.763 266.658 529.389 271.076C531.396 277.1 533.001 283.124 534.607 289.549C534.607 289.549 534.607 289.549 534.607 289.951C531.797 284.328 528.988 278.706 523.77 274.69C518.954 271.076 510.525 269.871 510.927 279.108C511.328 285.935 523.77 286.336 529.389 289.147C531.797 290.352 533.804 292.36 535.409 292.762C536.613 298.384 537.416 304.408 537.818 310.432C527.382 302.802 518.151 279.108 510.525 290.754C503.702 301.195 526.981 301.195 537.818 312.44C538.219 317.661 538.62 323.283 538.62 328.504C537.015 324.086 534.607 320.472 532.199 316.456C530.593 313.645 521.362 305.211 518.151 312.44C514.94 319.267 527.382 323.684 530.994 325.692C534.607 327.299 537.015 329.708 538.62 332.52C538.62 333.323 538.62 345.772 538.62 350.993C535.409 342.158 512.532 310.833 505.709 329.708C501.294 341.756 526.58 342.559 532.6 346.174C536.613 348.583 538.219 350.993 539.022 353.402C539.022 356.615 539.423 359.426 539.423 362.237C533.804 354.206 520.559 339.347 515.342 351.796C508.92 366.655 528.988 361.434 532.6 363.041C536.212 364.647 539.824 365.45 540.226 370.269C540.627 373.884 541.43 377.096 542.232 380.711C543.035 383.12 546.647 381.916 546.246 379.506C545.443 374.687 544.641 369.868 544.239 365.049C549.858 361.033 562.3 360.229 565.912 356.615C571.13 352.599 568.722 346.977 561.498 347.378Z" fill="url(#paint2_linear_9_2643)"/>
<path d="M1124.2 154.212C1113.36 163.85 1118.18 177.504 1118.18 177.504C1118.18 177.504 1112.96 175.095 1103.73 174.292C1094.5 173.488 1085.27 193.568 1085.27 193.568L1091.29 220.877L1079.65 215.656C1066.4 307.219 1112.96 377.498 1112.96 377.498C1116.17 371.073 1117.38 365.45 1117.78 360.631C1119.38 338.543 1100.92 323.684 1102.12 283.525C1105.34 188.347 1156.31 221.278 1162.73 183.93C1168.35 149.794 1186.01 122.486 1186.81 121.281C1162.73 133.329 1135.04 144.172 1124.2 154.212Z" fill="#4B66BA"/>
<path d="M1135.04 288.746C1125.4 299.187 1087.68 363.844 1121.39 363.844C1132.63 363.844 1153.9 336.134 1169.55 316.456C1183.2 299.589 1203.27 301.998 1203.27 301.998C1203.27 301.998 1155.91 266.257 1135.04 288.746Z" fill="#333242"/>
<path d="M1249.42 169.874C1226.55 168.669 1211.69 190.757 1211.69 190.757C1211.69 190.757 1212.9 181.119 1222.93 169.071C1221.73 169.071 1177.98 175.095 1174.77 179.914C1171.16 184.331 1164.74 202.403 1164.74 202.403C1164.74 202.403 1158.31 189.552 1159.12 185.938C1159.92 182.324 1080.45 246.98 1107.34 359.426L1115.37 349.788C1112.96 342.559 1105.74 292.36 1155.1 255.012C1170.36 243.366 1199.25 239.751 1225.74 224.491C1252.23 209.23 1259.46 208.829 1302 158.629C1302 158.629 1271.9 171.48 1249.42 169.874Z" fill="#4B66BA"/>
<path d="M963.657 313.243C948.806 318.062 915.895 332.921 901.045 362.237C901.045 362.237 935.16 320.472 983.724 320.472C1025.47 320.472 1084.06 348.182 1089.28 371.073L1106.14 356.214C1106.54 356.615 1044.73 287.943 963.657 313.243Z" fill="#4B66BA"/>
<path d="M1096.1 248.988C1090.49 288.344 1102.53 338.142 1110.55 358.222C1112.16 336.134 1100.92 323.283 1102.12 283.124C1105.34 187.946 1156.31 220.877 1162.73 183.528C1168.35 149.393 1186.01 122.084 1186.81 120.88C1185.61 122.084 1161.12 150.999 1149.08 178.308C1134.63 209.23 1102.93 199.19 1096.1 248.988Z" fill="#4B66BA"/>
<path d="M977.704 337.339C964.058 341.756 947.602 352.198 947.201 371.474C950.813 362.237 949.609 353.804 985.33 347.78C1018.24 342.559 1071.22 363.442 1083.66 384.325H1089.68L1099.72 372.679C1099.72 372.679 1047.54 315.251 977.704 337.339Z" fill="url(#paint3_linear_9_2643)"/>
<path d="M974.493 272.28C974.493 272.28 1000.58 270.273 1016.64 292.36C1035.1 318.062 1079.65 369.868 1094.1 369.868C1138.25 369.868 1073.23 273.084 1061.59 259.028C1036.7 229.712 974.493 272.28 974.493 272.28Z" fill="#42445D"/>
<path d="M1096.91 384.325H1144.67C1137.85 378.301 1134.23 355.41 1144.67 342.961C1144.67 342.961 1096.51 358.623 1096.91 384.325Z" fill="#333242"/>
<path d="M1215.71 343.363C1196.44 331.315 1175.97 338.142 1169.15 337.339C1096.91 330.512 1090.89 373.884 1086.87 384.325H1097.31C1100.12 362.639 1145.07 329.307 1164.33 366.655C1184.8 406.413 1228.15 417.256 1228.15 417.256V416.854C1243 385.931 1238.99 358.221 1215.71 343.363Z" fill="#4B66BA"/>
<path d="M1215.71 343.363C1196.44 331.315 1175.97 335.331 1169.15 337.339C1186.41 338.945 1206.48 349.386 1213.7 359.426C1229.76 382.719 1231.36 399.987 1228.15 416.854C1243 385.931 1238.99 358.221 1215.71 343.363Z" fill="#4B66BA"/>
<path d="M1203.27 273.887C1183.2 264.249 1172.76 275.092 1172.76 275.092C1149.48 266.658 1132.23 291.557 1132.23 291.557C1132.23 291.557 1159.92 283.124 1172.36 302.4C1184.8 321.677 1210.49 328.102 1210.49 328.102C1223.74 310.03 1222.93 283.525 1203.27 273.887Z" fill="#4B66BA"/>
<path d="M1203.27 273.887C1183.2 264.249 1172.76 275.092 1172.76 275.092C1172.76 275.092 1196.44 275.092 1210.49 328.504C1223.74 310.03 1222.93 283.525 1203.27 273.887Z" fill="url(#paint4_linear_9_2643)"/>
<path d="M1015.03 240.153C1015.03 240.153 1002.19 225.696 976.5 236.539C950.813 247.382 948.405 280.714 964.058 305.613C964.058 305.613 996.568 299.187 1013.83 275.092C1030.68 251.398 1065.2 263.445 1065.2 263.445C1065.2 263.445 1044.33 227.704 1015.03 240.153Z" fill="#ADCDED"/>
<path d="M976.099 236.539C950.412 247.382 948.004 280.714 963.657 305.613C984.527 238.948 1014.63 240.153 1014.63 240.153C1014.63 240.153 1002.19 225.696 976.099 236.539Z" fill="#4B66BA"/>
<path d="M1116.97 306.818C1122.19 290.352 1133.03 271.477 1154.7 255.012C1170.36 243.366 1198.85 239.751 1225.34 224.491C1251.83 209.23 1259.05 208.829 1301.6 158.629C1299.19 161.039 1259.05 199.994 1218.12 203.206C1180.39 206.419 1116.97 227.302 1116.97 306.818Z" fill="url(#paint5_linear_9_2643)"/>
<path d="M796.291 375.892C796.291 379.908 799.502 383.12 803.515 383.12H887.399V368.261H803.515C799.903 368.663 796.291 371.876 796.291 375.892Z" fill="white"/>
<path d="M929.541 301.998H844.855L842.046 330.11C841.644 334.527 843.25 338.543 846.059 341.756L872.95 368.663H955.228L928.337 336.535L929.541 301.998Z" fill="url(#paint6_linear_9_2643)"/>
<path d="M843.651 314.448H929.14L929.541 301.998H844.855L843.651 314.448Z" fill="#42445D"/>
<path d="M937.568 331.315L940.378 301.998H925.528L922.718 330.11C922.317 334.527 923.922 338.543 926.732 341.756L953.623 368.663H884.188C880.174 368.663 876.964 371.876 876.964 375.892C876.964 379.908 880.174 383.12 884.188 383.12H955.228C962.051 383.12 967.67 378.301 969.276 371.474C970.48 366.655 968.473 361.434 964.861 357.82L937.568 331.315Z" fill="#333242"/>
<path d="M1102.12 9.23666H720.836C707.993 9.23666 697.156 18.8749 696.353 31.7259L675.081 275.092C673.877 289.549 685.115 301.998 699.564 301.998H1080.85C1093.7 301.998 1104.53 292.36 1105.34 279.509L1126.61 36.1434C1127.81 21.6861 1116.57 9.23666 1102.12 9.23666Z" fill="#333242"/>
<path d="M1090.08 9.23666H708.795C696.755 9.23666 686.721 17.6701 684.714 29.3163C684.714 30.1195 684.313 30.9227 684.313 31.7259L663.041 275.092C661.837 289.549 673.075 301.998 687.925 301.998H1069.21C1082.06 301.998 1092.89 292.36 1094.1 279.509L1114.57 36.1434C1116.17 21.6861 1104.53 9.23666 1090.08 9.23666Z" fill="#42445D"/>
<path d="M1090.08 24.0956H708.795C703.578 24.0956 699.163 28.1116 698.761 33.3323L677.49 276.698C677.088 280.312 679.095 283.123 679.898 284.328C681.102 285.533 683.51 287.541 687.122 287.541H1068.41C1073.63 287.541 1078.04 283.525 1078.44 278.304L1099.72 34.9386C1100.12 31.3243 1098.11 28.5131 1097.31 27.3084C1096.51 26.1036 1093.7 24.0956 1090.08 24.0956Z" fill="#4B66BA"/>
<path d="M1090.08 24.0956H708.795C703.578 24.0956 699.163 28.1116 698.761 33.3323L697.557 47.7896H1098.91L1100.12 35.3402C1100.52 31.7259 1098.51 28.9147 1097.71 27.71C1096.51 26.1036 1093.7 24.0956 1090.08 24.0956Z" fill="url(#paint7_linear_9_2643)"/>
<path d="M778.631 42.1673H1021.85L1023.06 29.3163H779.835L778.631 42.1673Z" fill="#FEA07D"/>
<path d="M709.197 32.1275C708.795 31.7259 708.394 31.7259 707.993 32.1275C707.591 32.5291 707.591 32.9307 707.993 33.3323L715.618 41.7657C716.02 42.1673 716.421 42.1673 716.822 41.7657C717.224 41.3641 717.224 40.9626 716.822 40.561L709.197 32.1275Z" fill="white"/>
<path d="M716.421 32.1275L707.19 40.561C706.789 40.9626 706.789 41.3641 707.19 41.7657C707.591 42.1673 707.993 42.1673 708.394 41.7657L717.625 33.3323C718.027 32.9307 718.027 32.5291 717.625 32.1275C717.224 31.7259 716.822 31.7259 716.421 32.1275Z" fill="white"/>
<path d="M729.666 30.9227C726.455 30.9227 723.646 33.3323 723.646 36.545C723.244 39.7578 725.652 42.1673 728.863 42.1673C732.074 42.1673 734.883 39.7578 734.883 36.545C734.883 33.7339 732.877 30.9227 729.666 30.9227ZM728.863 40.9626C726.455 40.9626 724.85 38.9546 724.85 36.545C725.251 34.1355 727.258 32.1275 729.666 32.1275C732.074 32.1275 733.679 34.1355 733.679 36.545C733.278 39.3562 731.271 40.9626 728.863 40.9626Z" fill="white"/>
<path d="M750.536 40.1594H740.503C740.101 40.1594 739.7 40.561 739.7 40.9626C739.7 41.3642 740.101 41.7657 740.101 41.7657H750.135C750.536 41.7657 750.938 41.3642 750.938 40.9626C751.339 40.561 750.938 40.1594 750.536 40.1594Z" fill="white"/>
<path d="M1081.66 39.7578H1071.62C1071.22 39.7578 1070.82 40.1594 1070.82 40.561C1070.82 40.9626 1071.22 41.3642 1071.22 41.3642H1081.25C1081.66 41.3642 1082.06 40.9626 1082.06 40.561C1082.46 40.1594 1082.06 39.7578 1081.66 39.7578Z" fill="white"/>
<path d="M1082.06 36.1434H1072.02C1071.62 36.1434 1071.22 36.545 1071.22 36.9466C1071.22 37.3482 1071.62 37.7498 1071.62 37.7498H1081.66C1082.06 37.7498 1082.46 37.3482 1082.46 36.9466C1082.86 36.545 1082.46 36.1434 1082.06 36.1434Z" fill="white"/>
<path d="M1082.46 32.5291H1072.42C1072.02 32.5291 1071.62 32.9307 1071.62 33.3323C1071.62 33.7339 1072.02 34.1355 1072.02 34.1355H1082.06C1082.46 34.1355 1082.86 33.7339 1082.86 33.3323C1082.86 32.5291 1082.86 32.5291 1082.46 32.5291Z" fill="white"/>
<path fill-rule="evenodd" clip-rule="evenodd" d="M640.966 195.978C636.551 196.379 633.742 200.395 634.143 204.813C634.544 208.829 638.558 211.64 642.572 211.238C651.803 210.435 665.85 208.026 674.68 204.01L673.075 194.773C668.66 195.175 655.014 194.773 640.966 195.978Z" fill="#4B66BA"/>
<path fill-rule="evenodd" clip-rule="evenodd" d="M701.571 167.063C701.972 166.26 701.972 165.055 700.768 164.653C701.17 163.85 700.367 163.047 699.564 163.047C700.367 161.441 701.17 160.236 699.965 159.834C699.163 159.834 696.755 163.85 695.952 165.457C694.346 167.866 692.741 165.858 691.537 168.268C690.333 170.677 690.734 172.685 690.734 174.693C690.734 176.3 689.932 177.103 689.53 177.906C686.721 182.725 677.891 189.552 670.265 196.379C667.857 198.789 670.666 204.813 673.075 204.411C679.496 204.01 690.734 185.938 695.551 179.914C698.761 175.496 700.367 172.284 701.571 170.677C702.775 169.071 702.775 167.866 701.571 167.063Z" fill="#FFCAB8"/>
<path fill-rule="evenodd" clip-rule="evenodd" d="M701.571 167.063C701.972 166.26 701.972 165.055 700.768 164.653C701.17 163.85 700.367 163.047 699.564 163.047C700.367 161.441 701.17 160.236 699.965 159.834C699.163 159.834 696.755 163.85 695.952 165.457C695.149 166.661 693.945 170.276 697.156 171.882C699.163 173.087 701.17 171.48 701.972 171.079C702.775 169.071 702.775 167.866 701.571 167.063Z" fill="#FFC3AB"/>
<path fill-rule="evenodd" clip-rule="evenodd" d="M668.258 195.978C665.85 198.387 669.864 204.813 672.673 204.813C679.095 204.411 691.537 187.143 696.353 181.119C694.347 180.316 690.734 177.504 689.129 176.3C689.129 176.3 675.884 189.151 668.258 195.978Z" fill="#4B66BA"/>
<path fill-rule="evenodd" clip-rule="evenodd" d="M691.938 183.93C686.721 188.347 677.49 196.379 672.272 199.994C666.252 204.411 661.435 203.206 654.612 204.01C647.388 204.813 642.17 208.829 635.748 208.427C637.354 210.837 639.762 211.238 642.17 211.238C650.599 210.435 663.442 208.427 672.272 204.813C677.49 204.411 687.122 192.765 692.741 185.135C693.544 184.331 692.741 183.528 691.938 183.93Z" fill="#4B66BA"/>
<path fill-rule="evenodd" clip-rule="evenodd" d="M693.142 160.236C692.34 162.645 691.938 163.85 691.537 164.653L690.734 169.874L693.142 168.268C693.544 167.465 693.945 165.858 693.544 164.252C694.748 162.645 694.346 161.441 693.142 160.236Z" fill="#FFCAB8"/>
<path d="M639.361 184.733C641.367 181.52 636.551 179.111 632.538 177.504C630.531 176.701 628.123 175.898 625.715 175.095C625.313 175.095 624.912 174.693 624.511 175.095C624.109 175.496 624.511 176.3 624.511 176.701C626.116 179.914 625.715 191.159 624.109 195.576C624.109 195.978 639.762 198.387 639.762 198.387C639.762 198.387 636.953 188.749 639.361 184.733Z" fill="#FFCAB8"/>
<path d="M634.544 178.709C632.538 177.906 627.721 175.496 626.116 175.095C625.715 175.095 625.313 174.693 624.912 175.095C624.51 175.496 624.912 176.3 624.912 176.701C626.517 179.914 626.116 191.159 624.51 195.576C624.51 195.978 632.136 196.781 636.551 197.584C634.544 194.371 633.34 183.528 634.544 178.709Z" fill="#FFC3AB"/>
<path d="M645.782 169.071C642.973 167.465 640.565 163.047 639.361 160.637C636.953 154.212 627.32 157.023 624.109 163.449C622.504 167.063 622.905 171.079 623.708 174.693C624.912 179.512 628.123 183.93 632.538 185.536C634.143 186.339 640.966 187.544 642.572 186.339C644.98 184.733 644.98 174.693 645.782 172.284C647.388 170.276 646.585 169.473 645.782 169.071Z" fill="#FFCAB8"/>
<path d="M628.925 178.709C625.313 174.292 624.109 169.071 626.116 163.449C626.919 161.441 627.721 160.236 628.925 159.031C626.919 160.236 625.313 161.842 624.51 164.252C622.905 167.866 623.306 171.882 624.109 175.496C625.313 180.316 628.524 184.733 632.939 186.339C634.143 186.741 640.565 187.946 642.572 187.544C641.769 187.544 640.966 187.544 639.762 187.143C635.748 185.536 631.735 181.922 628.925 178.709Z" fill="#FFC3AB"/>
<path d="M631.735 154.614C616.483 151.802 613.272 162.645 613.674 170.677C614.075 178.709 622.504 185.938 625.715 187.143C626.116 187.143 632.538 187.544 636.15 179.914C636.953 178.308 637.354 176.701 636.551 176.3C633.742 174.693 632.538 170.276 633.742 169.071C635.347 167.465 636.551 170.276 637.354 169.473C638.558 168.669 639.762 163.047 638.157 160.236C636.953 157.425 634.544 155.015 631.735 154.614Z" fill="url(#paint8_linear_9_2643)"/>
<path d="M623.306 173.488C623.306 172.284 624.511 169.473 624.511 168.268C625.715 162.645 620.898 158.228 616.082 161.039C613.273 162.645 611.266 172.284 617.286 179.914C619.293 182.725 624.109 187.143 626.517 187.143C628.925 186.741 622.504 178.709 623.306 173.488Z" fill="url(#paint9_linear_9_2643)"/>
<path d="M612.871 159.031C608.055 159.031 604.443 162.645 604.443 167.465C604.443 172.284 608.055 175.898 612.871 175.898C617.687 175.898 619.293 172.284 619.293 167.465C618.892 162.645 617.286 159.031 612.871 159.031Z" fill="#FEA07D"/>
<path d="M686.721 399.586C682.707 397.979 677.088 395.168 675.483 393.562C674.279 392.357 674.279 390.751 673.877 389.144C672.673 389.546 671.068 389.947 669.864 389.947C668.258 389.947 667.054 389.546 665.85 389.144C665.85 391.554 665.85 393.963 665.449 396.373C665.449 397.578 665.047 398.782 665.449 399.586C666.252 400.79 667.857 401.192 669.462 401.192C673.075 401.192 676.285 401.594 679.898 401.995C682.707 402.397 685.918 402.798 688.728 401.594C689.129 401.594 689.932 400.79 689.932 400.389C688.727 400.389 687.523 399.987 686.721 399.586Z" fill="#FFCAB8"/>
<path d="M686.721 399.586C686.319 399.586 686.319 399.586 686.721 399.586C685.115 399.586 683.911 399.987 682.707 399.987C677.088 399.586 671.469 395.971 669.864 390.349C668.258 390.349 667.054 389.947 665.85 389.546C665.85 391.955 665.85 394.365 665.449 396.775C665.449 397.979 665.047 399.184 665.449 399.987C666.252 401.192 667.857 401.594 669.462 401.594C673.075 401.594 676.285 401.995 679.898 402.397C682.707 402.798 685.918 403.2 688.728 401.995C689.129 401.995 689.932 401.192 689.932 400.79C688.727 400.389 687.523 399.987 686.721 399.586Z" fill="#FFC3AB"/>
<path d="M690.333 399.987C689.932 399.586 684.313 397.979 681.102 396.775C679.898 396.373 679.095 397.979 679.095 398.782C672.272 398.782 666.252 393.963 665.047 394.767C663.442 395.971 661.837 399.987 665.449 401.594C665.85 401.995 667.054 401.995 670.666 401.995C673.877 401.995 677.088 404.003 679.496 404.003C683.109 404.003 689.53 404.003 690.333 404.003C691.537 404.003 692.34 400.79 690.333 399.987Z" fill="#333242"/>
<path d="M688.727 401.594C684.313 402.397 679.095 401.192 674.68 400.389C670.265 399.586 667.054 398.381 663.843 396.373C663.041 397.979 663.041 400.389 665.449 401.594C665.85 401.995 667.054 401.995 670.666 401.995C673.877 401.995 677.088 404.003 679.496 404.003C683.108 404.003 689.53 404.003 690.333 404.003C691.537 404.003 691.938 401.594 690.734 400.389C690.333 401.192 689.932 401.594 688.727 401.594Z" fill="#FEA07D"/>
<path d="M671.469 401.995L663.442 399.586L665.047 404.003H671.871C671.871 404.003 671.469 402.798 671.469 401.995Z" fill="#FEA07D"/>
<path d="M632.136 393.562C630.129 391.955 630.932 388.341 630.531 386.333C630.531 383.923 622.504 385.931 622.504 386.333C622.102 389.947 622.504 393.16 621.701 396.775C621.701 397.979 621.3 399.184 621.701 399.987C622.504 401.192 624.109 401.594 625.715 401.594C629.327 401.594 632.538 401.995 636.15 401.995C638.959 402.397 642.17 402.798 644.98 401.594C645.381 401.594 646.184 400.79 646.184 400.389C642.572 399.987 634.544 395.57 632.136 393.562Z" fill="#FFCAB8"/>
<path d="M626.116 385.931C626.116 385.53 626.517 385.53 626.517 385.128C624.51 385.53 622.905 385.931 622.905 386.333C622.504 389.947 622.905 393.16 622.102 396.775C622.102 397.979 621.701 399.184 622.102 399.987C622.905 401.192 624.51 401.594 626.116 401.594C629.327 401.594 632.538 401.995 635.748 401.995C629.728 399.184 623.306 393.16 626.116 385.931Z" fill="#FFC3AB"/>
<path d="M647.388 399.987C646.585 399.586 641.367 397.979 638.157 396.775C636.953 396.373 636.15 397.979 636.15 398.783C629.327 398.783 623.306 393.963 622.102 394.767C620.497 395.971 618.892 400.389 622.504 401.594C622.905 401.995 624.109 401.995 627.721 401.995C630.932 401.995 634.143 404.003 636.551 404.003C640.163 404.003 646.585 404.003 647.388 404.003C648.592 404.003 649.395 400.79 647.388 399.987Z" fill="#333242"/>
<path d="M645.381 401.594C643.374 401.995 641.367 401.995 639.762 401.594C638.558 401.192 630.531 400.389 628.123 399.987C625.313 399.987 622.504 398.381 621.3 395.971C620.096 397.578 620.096 400.389 622.504 401.995C622.905 402.397 624.109 402.397 627.721 402.397C630.932 402.397 634.143 404.405 636.551 404.405H647.388C648.592 404.405 648.993 401.995 647.789 400.79C646.986 400.79 646.184 401.192 645.381 401.594Z" fill="#FEA07D"/>
<path d="M622.905 314.849C623.708 331.716 620.898 336.134 620.096 346.174C619.293 355.812 621.701 393.16 621.701 393.16C621.701 393.16 627.32 394.767 632.136 393.16L647.789 269.068L619.694 266.257C619.293 266.257 621.701 297.982 622.905 314.849Z" fill="url(#paint10_linear_9_2643)"/>
<path d="M620.096 275.493C620.898 286.336 622.102 303.605 622.905 314.448C623.708 331.315 620.898 335.732 620.096 345.772C619.293 355.41 621.701 392.759 621.701 392.759C621.701 392.759 624.109 393.562 626.919 393.562C625.715 379.908 623.708 366.655 628.925 355.41C630.531 351.796 631.334 340.953 631.334 336.535C631.334 327.7 628.925 312.44 632.538 299.99C633.34 297.581 634.143 277.903 634.143 277.903C628.123 277.903 623.306 279.108 620.096 275.493Z" fill="white"/>
<path d="M630.932 269.469C630.531 271.076 630.932 273.485 631.735 275.493C633.742 280.714 650.599 327.7 650.599 331.716C649.796 347.378 659.027 361.033 665.85 393.562C668.66 394.365 673.877 395.168 676.285 392.357C675.081 375.088 661.837 281.919 660.231 270.674C659.83 270.273 638.959 272.682 630.932 269.469Z" fill="url(#paint11_linear_9_2643)"/>
<path d="M665.047 360.229C663.041 355.009 657.823 343.363 656.619 337.74C655.415 330.913 655.816 310.833 654.612 304.408C653.81 299.99 653.408 295.573 651.401 291.557C650.197 289.549 648.592 287.943 647.388 285.935C646.986 285.935 646.986 285.935 646.585 285.935C640.966 285.935 636.952 284.328 633.742 281.517C638.959 295.573 650.599 328.102 650.197 331.716C649.395 347.378 658.626 361.033 665.449 393.562C667.054 393.963 669.061 394.767 671.068 394.365C669.462 389.144 669.061 381.916 668.258 377.096C667.054 371.073 667.456 365.852 665.047 360.229Z" fill="white"/>
<path d="M658.224 218.869C658.224 214.451 648.592 200.797 642.973 197.584C637.354 193.97 635.347 191.962 628.123 193.167C620.096 194.773 621.701 206.018 621.701 228.908C621.701 230.515 618.089 269.871 617.687 273.084C624.109 277.501 654.612 277.1 661.837 274.69C661.837 255.012 656.619 240.956 656.619 231.72C656.619 228.105 658.224 225.696 658.224 218.869Z" fill="#4B66BA"/>
<path d="M628.123 193.167C620.096 195.576 621.701 206.018 621.701 228.908C621.701 230.515 618.089 269.871 617.687 273.084C620.497 275.092 627.32 275.895 634.946 276.296C634.946 267.461 628.524 263.847 628.524 256.217C628.524 251.398 634.544 246.177 634.143 242.161C633.34 234.932 631.735 216.459 634.946 205.616C635.748 202.403 630.531 192.363 628.123 193.167Z" fill="#4B66BA"/>
<path d="M620.497 399.987L622.102 404.405H628.925C628.925 404.405 628.123 403.2 628.524 402.397L620.497 399.987Z" fill="#FEA07D"/>
<path d="M1082.06 63.8534H1006.2C1004.19 63.8534 1002.19 65.4598 1002.19 67.8693C1002.19 69.8773 1003.79 71.8853 1005.8 71.8853H1081.66C1083.66 71.8853 1085.67 70.2789 1085.67 67.8693C1085.67 65.4598 1084.06 63.8534 1082.06 63.8534Z" fill="#4B66BA"/>
<path d="M1081.25 83.5315H1066C1064.4 83.5315 1062.79 84.7362 1062.79 86.3426C1062.79 87.949 1064 89.1538 1065.6 89.1538H1080.85C1082.46 89.1538 1084.06 87.949 1084.06 86.3426C1084.46 85.1378 1082.86 83.5315 1081.25 83.5315Z" fill="#4B66BA"/>
<path d="M1078.85 102.406H1022.66C1021.45 102.406 1020.65 103.21 1020.65 104.414C1020.65 105.619 1021.45 106.422 1022.25 106.422H1078.44C1079.65 106.422 1080.45 105.619 1080.45 104.414C1080.45 103.21 1079.65 102.406 1078.85 102.406Z" fill="url(#paint12_linear_9_2643)"/>
<path d="M1077.64 117.265H1021.45C1020.25 117.265 1019.45 118.069 1019.45 119.273C1019.45 120.478 1020.25 121.281 1021.05 121.281H1077.24C1078.44 121.281 1079.25 120.478 1079.25 119.273C1079.65 118.069 1078.85 117.265 1077.64 117.265Z" fill="url(#paint13_linear_9_2643)"/>
<path d="M1076.84 132.526H1020.65C1019.45 132.526 1018.64 133.329 1018.64 134.534C1018.64 135.739 1019.45 136.542 1020.25 136.542H1076.44C1077.64 136.542 1078.44 135.739 1078.44 134.534C1078.44 133.329 1077.64 132.526 1076.84 132.526Z" fill="url(#paint14_linear_9_2643)"/>
<path d="M1075.64 147.385H1019.45C1018.24 147.385 1017.44 148.188 1017.44 149.393C1017.44 150.598 1018.24 151.401 1019.04 151.401H1075.23C1076.44 151.401 1077.24 150.598 1077.24 149.393C1077.24 148.188 1076.44 147.385 1075.64 147.385Z" fill="url(#paint15_linear_9_2643)"/>
<path d="M1074.43 162.645H1055.57C1054.36 162.645 1053.56 163.449 1053.56 164.653C1053.56 165.858 1054.36 166.661 1055.17 166.661H1074.03C1075.23 166.661 1076.04 165.858 1076.04 164.653C1076.44 163.449 1075.64 162.645 1074.43 162.645Z" fill="url(#paint16_linear_9_2643)"/>
<path d="M1041.52 162.645H1037.1C1035.9 162.645 1035.1 163.449 1035.1 164.653C1035.1 165.858 1035.9 166.661 1036.7 166.661H1041.12C1042.32 166.661 1043.13 165.858 1043.13 164.653C1043.53 163.449 1042.72 162.645 1041.52 162.645Z" fill="url(#paint17_linear_9_2643)"/>
<path d="M1073.63 177.504H1017.44C1016.23 177.504 1015.43 178.308 1015.43 179.512C1015.43 180.717 1016.23 181.52 1017.04 181.52H1073.23C1074.43 181.52 1075.23 180.717 1075.23 179.512C1075.23 178.308 1074.43 177.504 1073.63 177.504Z" fill="url(#paint18_linear_9_2643)"/>
<path d="M1062.79 262.241H1045.93C1044.33 262.241 1043.13 263.445 1043.13 264.65C1043.13 266.257 1043.93 267.06 1045.53 267.06H1062.79C1064.4 267.06 1065.6 265.855 1065.6 264.65C1065.2 263.445 1064.4 262.241 1062.79 262.241Z" fill="url(#paint19_linear_9_2643)"/>
<path d="M1063.59 250.193H1046.34C1044.73 250.193 1043.53 251.398 1043.53 252.602C1043.53 254.209 1044.33 255.012 1045.93 255.012H1062.79C1064.4 255.012 1065.6 253.807 1065.6 252.602C1066.4 251.398 1065.2 250.193 1063.59 250.193Z" fill="url(#paint20_linear_9_2643)"/>
<path d="M1064.4 237.743H1047.54C1045.93 237.743 1044.73 238.948 1044.73 240.153C1044.73 241.759 1045.53 242.563 1047.14 242.563H1064.4C1066 242.563 1067.21 241.358 1067.21 240.153C1067.21 238.948 1066 237.743 1064.4 237.743Z" fill="url(#paint21_linear_9_2643)"/>
<path d="M1065.6 225.294H1048.34C1046.74 225.294 1045.53 226.499 1045.53 227.704C1045.53 229.31 1046.34 230.113 1047.94 230.113H1065.2C1066.81 230.113 1068.01 228.908 1068.01 227.704C1068.01 226.499 1066.81 225.294 1065.6 225.294Z" fill="url(#paint22_linear_9_2643)"/>
<path d="M1029.88 225.294H1018.64C1017.04 225.294 1015.83 226.499 1015.83 227.704C1015.83 229.31 1016.64 230.113 1018.24 230.113H1029.48C1031.08 230.113 1032.29 228.908 1032.29 227.704C1032.29 226.499 1031.49 225.294 1029.88 225.294Z" fill="url(#paint23_linear_9_2643)"/>
<path d="M1027.87 252.602H1016.64C1015.03 252.602 1013.83 253.807 1013.83 255.012C1013.83 256.618 1014.63 257.421 1016.23 257.421H1027.47C1029.08 257.421 1030.28 256.217 1030.28 255.012C1030.68 253.807 1029.48 252.602 1027.87 252.602Z" fill="url(#paint24_linear_9_2643)"/>
<path d="M1090.89 198.387C1082.46 193.568 1046.74 187.544 1042.32 186.741C1036.3 185.938 1035.1 195.978 1037.1 198.387C1039.51 201.198 1045.93 204.813 1056.77 207.624C1065.2 209.632 1081.66 217.262 1087.27 210.837C1090.89 206.821 1099.72 203.608 1090.89 198.387Z" fill="#FEA07D"/>
<path d="M1067.61 201.198C1059.18 199.19 1055.97 192.363 1047.54 195.978C1043.53 197.986 1035.5 196.781 1037.1 198.387C1039.51 201.198 1048.74 204.813 1056.77 207.222C1071.22 211.238 1078.85 214.853 1084.06 210.435C1087.27 208.026 1080.05 204.411 1067.61 201.198Z" fill="url(#paint25_linear_9_2643)"/>
<path fill-rule="evenodd" clip-rule="evenodd" d="M1017.04 161.441C1015.83 158.629 1013.42 155.818 1011.42 154.212C1010.21 153.007 1007.81 151.401 1007 150.196C1006.2 149.393 1005 151.401 1005.8 152.606C1005 153.007 1004.19 154.614 1005 155.417C1004.19 156.22 1003.79 157.826 1004.59 158.629C1003.39 159.433 1003.79 161.039 1005 162.244C1006.6 163.449 1007.81 165.457 1011.82 168.669C1012.62 169.071 1013.42 170.677 1014.23 171.079C1015.03 169.472 1019.04 165.457 1020.25 164.653C1019.45 163.85 1017.84 162.645 1017.04 161.441Z" fill="#FFCAB8"/>
<path fill-rule="evenodd" clip-rule="evenodd" d="M1007.81 154.614C1007.81 156.622 1006.2 160.637 1004.59 161.842C1005.4 162.244 1005.8 163.047 1007 163.85C1008.21 165.055 1009.81 165.457 1011.42 164.653C1011.82 164.252 1012.62 164.252 1013.42 164.252C1014.63 163.85 1015.43 162.244 1014.63 161.039C1013.02 157.826 1007.81 153.409 1007.81 154.614Z" fill="#FFC3AB"/>
<path d="M1038.71 181.119C1033.49 176.701 1019.04 162.244 1019.04 162.244C1019.04 162.244 1015.43 165.457 1011.42 171.079C1011.42 171.079 1028.68 190.757 1035.1 197.182C1044.73 207.222 1050.35 195.978 1049.15 191.962C1047.94 187.544 1042.32 183.93 1038.71 181.119Z" fill="#FEA07D"/>
<path d="M1014.23 167.063C1013.42 168.268 1012.22 169.473 1011.02 171.079C1011.02 171.079 1028.27 190.757 1034.7 197.182C1042.72 205.214 1049.15 201.198 1049.15 195.576C1042.72 190.757 1034.3 188.749 1025.47 180.717C1022.66 177.906 1017.44 169.071 1014.23 167.063Z" fill="url(#paint26_linear_9_2643)"/>
<path d="M1126.21 412.437C1126.21 412.035 1116.17 409.224 1116.17 412.437C1116.17 415.248 1116.57 419.665 1114.17 422.075C1111.36 424.484 1100.52 430.107 1095.7 430.91C1095.3 431.713 1096.1 432.115 1096.91 432.516C1100.52 433.721 1104.53 433.32 1108.14 432.918C1112.56 432.516 1116.97 432.115 1121.39 432.115C1123.4 432.115 1125.8 432.115 1126.61 430.107C1127.41 428.902 1127.01 427.296 1127.01 425.689C1126.61 421.272 1127.01 416.854 1126.21 412.437Z" fill="#FFCAB8"/>
<path d="M1126.21 412.437C1126.21 412.035 1123.8 411.232 1121.39 411.232C1121.39 411.633 1121.79 412.035 1121.79 412.035C1125.8 421.673 1117.38 428.902 1109.35 432.516C1113.36 432.115 1117.38 431.713 1121.39 431.713C1123.4 431.713 1125.8 431.713 1126.61 429.705C1127.41 428.5 1127.01 426.894 1127.01 425.288C1126.61 421.272 1127.01 416.854 1126.21 412.437Z" fill="#FFC3AB"/>
<path d="M1127.01 423.681C1125.8 422.878 1118.18 428.902 1108.95 428.902C1108.95 427.697 1107.74 425.689 1106.54 426.091C1102.53 427.296 1095.7 430.107 1094.9 430.107C1092.49 431.312 1093.29 435.327 1094.9 435.327C1096.1 435.327 1104.13 435.327 1108.95 435.327C1111.76 435.327 1115.77 432.918 1120.19 432.918C1125 432.918 1126.21 432.918 1127.01 432.516C1131.02 430.508 1129.42 425.288 1127.01 423.681Z" fill="#42445D"/>
<path d="M1119.38 430.508C1116.17 430.508 1106.14 431.713 1104.53 432.516C1102.12 433.32 1099.31 433.32 1097.31 432.516C1096.1 432.115 1095.3 431.713 1094.1 430.91C1092.49 432.516 1093.7 435.729 1094.9 435.729H1108.95C1111.76 435.729 1115.77 433.32 1120.19 433.32C1125 433.32 1126.21 433.32 1127.01 432.918C1130.62 431.312 1130.22 427.697 1128.61 425.288C1126.21 428.099 1123.4 430.107 1119.38 430.508Z" fill="#333242"/>
<path d="M1118.18 435.729H1127.01L1129.02 430.107L1118.58 432.918C1118.98 434.123 1118.18 435.729 1118.18 435.729Z" fill="#333242"/>
<path d="M1047.54 410.027C1046.34 412.437 1044.73 416.854 1041.52 417.657C1037.91 418.862 1025.87 419.264 1021.05 417.657C1020.65 418.059 1021.05 419.264 1021.45 419.665C1024.26 422.477 1027.87 423.681 1031.49 424.886C1035.5 426.492 1039.51 428.099 1043.53 430.107C1045.13 430.91 1047.54 431.713 1049.15 430.508C1050.35 429.705 1050.75 428.099 1051.15 426.894C1052.76 422.878 1054.76 418.862 1056.37 414.445C1056.77 414.043 1049.15 407.216 1047.54 410.027Z" fill="#FFCAB8"/>
<path d="M1052.76 411.232C1052.76 411.633 1052.76 412.035 1052.76 412.437C1052.36 422.878 1041.52 425.689 1032.29 425.689C1036.3 427.296 1039.91 428.5 1043.53 430.508C1045.13 431.312 1047.54 432.115 1049.15 430.91C1050.35 430.107 1050.75 428.5 1051.15 427.296C1052.76 423.28 1054.76 419.264 1056.37 414.846C1056.77 414.043 1055.17 412.437 1052.76 411.232Z" fill="#FFC3AB"/>
<path d="M1033.89 421.673C1034.3 420.469 1034.3 418.461 1032.69 418.059C1028.68 417.657 1021.05 416.854 1020.25 416.854C1017.44 416.854 1016.64 420.87 1017.84 421.673C1019.04 422.075 1026.27 425.689 1030.28 427.697C1032.69 428.902 1037.51 428.5 1041.52 430.508C1045.93 432.516 1047.14 432.918 1047.94 432.918C1052.76 432.918 1053.56 427.697 1052.36 424.886C1051.55 423.681 1041.92 425.689 1033.89 421.673Z" fill="#42445D"/>
<path d="M1042.72 427.697C1039.91 426.492 1030.28 423.28 1028.68 422.878C1026.27 422.476 1023.86 421.272 1021.85 419.665C1021.05 418.862 1020.25 418.059 1019.85 416.854C1017.84 417.657 1017.44 420.87 1018.24 421.272L1030.68 427.296C1033.09 428.5 1037.91 428.099 1041.92 430.107C1046.34 432.115 1047.54 432.516 1048.34 432.516C1052.36 432.516 1053.56 429.304 1053.16 426.492C1049.95 428.902 1046.34 429.304 1042.72 427.697Z" fill="#333242"/>
<path d="M1039.51 431.713L1047.54 435.327L1051.96 431.312L1041.52 429.705C1040.72 430.508 1039.51 431.713 1039.51 431.713Z" fill="#333242"/>
<path d="M1075.64 270.674C1068.41 297.581 1049.15 393.562 1042.72 414.043C1045.13 418.862 1051.15 421.272 1057.17 420.469C1061.19 413.24 1097.71 307.219 1104.93 281.116C1104.53 279.911 1083.26 271.477 1075.64 270.674Z" fill="#F86761"/>
<path d="M1092.09 275.493C1088.48 287.943 1092.09 302.802 1083.66 312.841C1078.44 318.865 1078.44 328.504 1078.44 336.535C1078.44 342.961 1076.84 349.788 1073.63 355.41C1070.02 361.033 1066.81 365.049 1065.6 371.876C1064.8 378.703 1061.99 388.743 1060.38 395.57C1057.98 408.019 1049.95 406.011 1045.13 417.256C1048.34 419.665 1052.36 420.87 1056.77 420.469C1060.78 413.24 1097.31 307.219 1104.53 281.116C1104.53 280.312 1098.51 277.903 1092.09 275.493Z" fill="#C3391C"/>
<path d="M1123 277.903C1116.97 276.698 1090.49 273.485 1087.68 279.108C1083.26 287.943 1110.15 410.027 1112.96 419.665C1118.18 422.075 1125 420.469 1127.81 418.862C1127.01 393.562 1122.59 373.482 1122.19 351.394C1120.99 325.291 1123.8 297.982 1123 277.903Z" fill="#F86761"/>
<path d="M1123 277.903C1120.99 277.501 1116.57 276.296 1111.76 275.493C1113.76 278.304 1113.76 295.171 1113.36 296.778C1112.56 308.424 1117.38 320.873 1116.97 323.684C1114.97 338.543 1118.18 348.182 1118.18 352.599C1118.18 357.418 1115.77 366.655 1116.97 377.9C1117.78 383.924 1121.39 395.57 1123 401.594C1123.8 404.806 1121.39 416.453 1121.79 420.469C1123.8 420.067 1125.8 419.264 1127.41 418.862C1126.61 393.562 1122.19 373.482 1121.79 351.394C1120.99 325.291 1123.8 297.982 1123 277.903Z" fill="#C3391C"/>
<path d="M1102.93 191.56C1094.5 191.56 1074.43 192.363 1073.23 206.821C1072.83 212.845 1070.02 279.509 1070.82 281.116C1072.42 284.73 1124.2 284.328 1125 281.517C1125.8 278.304 1127.81 233.728 1128.61 220.073C1130.22 207.222 1124.2 191.56 1102.93 191.56Z" fill="#FEA07D"/>
<path d="M1079.25 246.177C1078.04 252.201 1086.47 252.602 1089.28 251.799C1092.89 250.594 1098.91 246.177 1105.34 236.539C1116.57 220.073 1119.38 215.254 1119.38 215.254L1103.73 204.813C1103.33 205.214 1080.45 240.153 1079.25 246.177Z" fill="#FEA07D"/>
<path d="M1080.45 250.594C1082.86 252.602 1087.27 252.602 1088.88 252.201C1092.49 250.996 1098.51 246.578 1104.93 236.94C1116.17 220.475 1118.98 215.656 1118.98 215.656L1117.38 206.821C1114.57 218.869 1095.3 241.759 1080.45 250.594Z" fill="url(#paint27_linear_9_2643)"/>
<path d="M1102.93 191.56C1100.92 191.56 1098.51 191.962 1095.7 192.765C1109.35 197.584 1123.8 201.198 1122.19 216.459C1121.79 220.876 1114.97 236.137 1114.57 240.555C1114.17 248.185 1119.78 248.185 1116.57 252.602C1112.56 258.225 1111.36 256.618 1109.75 260.634C1107.74 265.855 1117.38 267.06 1114.97 273.485C1112.16 280.312 1106.14 278.706 1103.73 283.927C1114.97 283.927 1125 283.123 1125 281.919C1125.8 278.706 1127.81 234.129 1128.61 220.475C1130.22 207.222 1123.4 190.355 1102.93 191.56Z" fill="url(#paint28_linear_9_2643)"/>
<path d="M1099.32 181.922C1098.91 185.938 1093.29 187.544 1093.29 191.962C1093.29 195.978 1110.55 197.182 1110.55 191.56C1110.95 185.938 1111.36 175.095 1111.36 175.095C1111.36 175.095 1099.72 177.906 1099.32 181.922Z" fill="#FFC3AB"/>
<path d="M1108.55 156.622C1106.94 154.614 1104.13 153.409 1101.32 153.007C1098.51 152.606 1095.7 153.007 1093.29 153.409C1091.29 153.81 1089.68 154.614 1088.48 156.622C1085.67 162.244 1085.27 168.268 1084.47 174.292C1084.06 177.103 1083.66 180.316 1084.87 183.127C1086.47 187.544 1092.09 191.159 1096.51 189.552C1106.94 186.339 1110.95 176.3 1110.95 175.095C1110.95 171.882 1111.36 168.669 1111.36 165.457C1111.36 162.244 1110.55 159.031 1108.55 156.622Z" fill="#FFCAB8"/>
<path d="M1104.13 153.409C1101.72 153.007 1094.9 153.81 1093.29 160.637C1093.29 161.039 1092.89 164.252 1092.49 164.653C1092.09 166.661 1088.48 169.874 1088.08 172.284C1087.27 176.3 1089.28 184.733 1092.09 187.143C1093.29 188.347 1094.5 188.749 1095.7 189.151C1096.1 189.151 1096.1 189.151 1096.51 189.151C1106.94 185.938 1110.95 175.496 1110.95 174.693C1110.95 171.48 1111.36 168.268 1111.36 165.055C1111.36 161.842 1110.55 158.629 1108.55 156.22C1107.34 155.015 1105.74 153.81 1104.13 153.409Z" fill="#FFC3AB"/>
<path d="M1101.72 150.196C1092.09 148.991 1088.08 155.417 1085.67 155.818C1092.89 161.039 1104.13 158.228 1104.13 160.236C1102.93 171.882 1106.94 172.284 1107.74 174.292C1108.55 176.701 1111.36 179.512 1112.16 179.914C1119.38 161.039 1113.36 151.802 1101.72 150.196Z" fill="url(#paint29_linear_9_2643)"/>
<path d="M1106.54 151.401C1104.93 150.999 1103.73 150.598 1101.72 150.196C1094.1 148.991 1090.08 152.606 1087.68 154.614C1087.68 154.614 1096.91 158.629 1106.14 156.622C1108.95 156.22 1108.95 152.606 1106.54 151.401Z" fill="white"/>
<path d="M1105.74 167.465C1101.72 168.669 1097.71 174.292 1103.33 176.701C1104.93 177.504 1106.94 177.103 1108.55 176.3C1109.75 175.496 1110.55 174.292 1110.95 173.087C1111.36 171.48 1111.76 169.473 1110.15 168.268C1108.55 167.063 1106.94 167.063 1105.74 167.465Z" fill="#FFCAB8"/>
<path d="M1103.33 171.079C1103.33 171.079 1104.53 171.48 1104.93 172.284C1105.34 173.087 1105.74 174.693 1105.74 174.693C1105.74 174.693 1109.75 171.882 1107.74 170.276C1106.54 168.268 1103.33 171.079 1103.33 171.079Z" fill="#FFC3AB"/>
<path d="M1096.1 177.906C1096.1 176.3 1094.9 174.292 1092.49 173.488C1090.49 173.087 1085.67 171.882 1084.46 172.685C1082.46 174.693 1083.66 176.701 1082.86 178.308C1081.66 181.922 1080.05 183.528 1080.45 185.938C1081.66 192.765 1090.89 197.986 1099.32 193.167C1107.34 188.347 1103.73 178.709 1103.33 175.898C1102.12 169.874 1107.74 164.653 1107.74 164.653L1104.93 161.039C1104.93 161.441 1100.52 176.701 1096.1 177.906Z" fill="url(#paint30_linear_9_2643)"/>
<path d="M1098.91 176.701C1100.52 177.906 1102.93 167.465 1102.93 167.063C1101.72 169.874 1100.52 173.488 1098.91 175.496C1098.91 175.898 1098.51 176.701 1098.91 176.701Z" fill="white"/>
<path d="M1083.26 186.339C1082.86 184.331 1083.66 181.119 1084.87 180.717C1085.27 180.316 1091.29 180.717 1091.29 178.709C1091.29 177.103 1088.08 177.906 1086.47 175.898C1085.67 175.095 1086.47 173.488 1087.27 172.284C1086.07 172.284 1085.27 172.284 1084.87 172.685C1082.86 174.693 1084.06 176.701 1083.26 178.308C1082.06 181.922 1080.45 183.528 1080.85 185.938C1082.06 192.765 1090.89 197.584 1098.51 193.568C1091.29 195.576 1084.46 191.962 1083.26 186.339Z" fill="white"/>
<path fill-rule="evenodd" clip-rule="evenodd" d="M1089.68 187.143C1088.88 185.938 1086.87 186.741 1086.87 188.749C1086.07 188.347 1084.46 189.151 1084.46 190.355C1083.26 190.355 1081.66 191.56 1081.66 192.363C1080.05 192.363 1079.25 193.568 1079.25 195.576C1079.65 197.986 1079.25 200.395 1079.65 206.419C1079.65 207.222 1079.25 216.861 1079.25 217.664C1081.25 217.262 1087.68 216.057 1089.68 216.057C1089.68 214.853 1089.28 206.018 1089.68 204.411C1090.89 201.198 1090.89 196.781 1090.89 193.97C1090.89 191.962 1090.89 188.347 1089.68 187.143Z" fill="#FFCAB8"/>
<path fill-rule="evenodd" clip-rule="evenodd" d="M1089.68 187.143C1088.88 185.938 1086.87 186.741 1086.87 188.749C1086.07 188.347 1085.27 188.749 1084.46 189.552C1085.67 189.954 1086.07 191.159 1085.67 191.962C1084.87 194.773 1086.87 202.002 1087.27 206.821C1087.68 210.435 1088.08 213.648 1088.08 216.861C1088.88 216.861 1089.28 216.861 1089.68 216.861C1089.68 215.656 1089.28 206.821 1089.68 205.214C1090.89 202.002 1090.89 197.584 1090.89 194.773C1090.89 191.962 1090.89 188.347 1089.68 187.143Z" fill="#FFC3AB"/>
<path fill-rule="evenodd" clip-rule="evenodd" d="M1089.28 186.339L1082.86 183.528C1082.06 183.127 1081.66 183.528 1081.25 184.331C1080.85 185.135 1082.06 186.339 1082.46 186.339L1088.48 188.347C1089.28 188.749 1089.68 188.347 1090.08 187.544C1090.08 187.544 1089.68 186.741 1089.28 186.339Z" fill="#FFC3AB"/>
<path fill-rule="evenodd" clip-rule="evenodd" d="M1089.68 206.821C1085.27 206.018 1081.25 206.821 1080.05 207.222C1080.05 207.222 1079.65 207.222 1079.65 207.624C1079.25 208.829 1079.65 210.033 1079.65 210.435C1079.65 210.837 1080.05 210.837 1080.05 210.837C1084.46 209.632 1088.48 210.435 1089.68 210.435C1090.08 210.435 1090.08 210.435 1090.08 210.033C1090.08 208.829 1090.08 207.624 1089.68 206.821Z" fill="#333242"/>
<path fill-rule="evenodd" clip-rule="evenodd" d="M1005 159.031C1004.59 158.629 1004.19 158.629 1003.79 159.031C1003.39 159.433 1003.39 159.834 1003.79 160.236C1003.79 160.236 1006.6 163.85 1007.81 164.252C1008.21 164.252 1008.61 163.85 1008.21 163.449L1005 159.031Z" fill="#FFCAB8"/>
<path fill-rule="evenodd" clip-rule="evenodd" d="M1002.19 145.778C1001.79 145.377 1000.98 145.778 1000.98 146.582C1000.98 148.188 1005.8 153.007 1005.8 153.007C1006.2 153.409 1007 153.409 1007.81 153.007C1008.21 152.606 1008.21 151.802 1007.81 150.999L1002.19 145.778Z" fill="#FFCAB8"/>
<path fill-rule="evenodd" clip-rule="evenodd" d="M1006.6 153.81C1006.2 153.409 1005.4 153.409 1004.59 153.81C1004.19 154.212 1004.19 155.015 1004.59 155.818C1004.59 155.818 1009.41 160.236 1011.42 160.236C1011.82 160.236 1012.62 159.433 1011.82 159.031L1006.6 153.81Z" fill="#FFCAB8"/>
<path fill-rule="evenodd" clip-rule="evenodd" d="M1006.2 156.622C1005.8 156.22 1005 156.22 1004.59 156.622C1004.19 157.023 1004.19 157.826 1004.59 158.228C1004.59 158.228 1009.01 162.244 1010.62 162.244C1011.02 162.244 1011.42 161.441 1011.02 161.039L1006.2 156.622Z" fill="#FFCAB8"/>
<path d="M1079.65 212.845C1079.65 212.845 1078.04 228.507 1077.64 235.334C1077.24 239.751 1078.04 244.169 1079.25 248.586C1080.45 253.004 1093.29 255.815 1092.89 241.759C1092.49 232.523 1090.49 212.443 1090.49 212.443C1083.66 212.041 1079.65 212.845 1079.65 212.845Z" fill="#FEA07D"/>
<path d="M1090.08 212.443C1088.48 212.443 1087.27 212.443 1086.07 212.443C1086.47 213.246 1086.87 214.049 1087.27 215.254C1088.88 225.696 1093.7 238.145 1086.87 248.185C1085.67 249.791 1084.06 250.996 1082.46 251.799C1086.47 253.807 1093.29 252.602 1092.89 242.161C1092.49 232.523 1090.08 212.443 1090.08 212.443Z" fill="url(#paint31_linear_9_2643)"/>
<path fill-rule="evenodd" clip-rule="evenodd" d="M1085.67 204.813C1084.06 204.813 1082.46 206.419 1082.86 208.025C1082.86 209.632 1084.46 211.238 1086.07 210.837C1087.68 210.837 1089.28 209.23 1088.88 207.624C1088.88 206.419 1087.27 204.813 1085.67 204.813Z" fill="#D0DDFD"/>
<path fill-rule="evenodd" clip-rule="evenodd" d="M1085.67 206.018C1084.46 206.018 1083.26 207.222 1083.66 208.427C1083.66 209.632 1084.87 210.837 1086.07 210.435C1087.27 210.435 1088.48 209.23 1088.08 208.025C1088.08 206.821 1086.87 205.616 1085.67 206.018Z" fill="url(#paint32_linear_9_2643)"/>
<path d="M684.313 286.336H856.093L888.202 58.2311H704.38L684.313 286.336Z" fill="#FEA07D"/>
<path d="M856.093 286.336L1011.82 274.288L1030.28 1.60638L868.134 63.0502L856.093 286.336Z" fill="#FEA07D"/>
<path d="M710.802 63.0502L691.938 281.517H849.671L868.535 63.0502C821.175 33.3323 755.754 63.0502 710.802 63.0502Z" fill="white"/>
<path d="M693.142 269.068L691.938 281.517H849.671L850.876 269.068C803.114 239.35 737.693 269.068 693.142 269.068Z" fill="white"/>
<path d="M693.142 269.068L691.938 281.517H849.671L850.876 269.068C803.114 239.35 737.693 269.068 693.142 269.068Z" fill="url(#paint33_linear_9_2643)"/>
<path d="M849.671 281.517L992.956 269.068L1011.42 4.41753L868.535 63.0502L849.671 281.517Z" fill="url(#paint34_linear_9_2643)"/>
<path d="M849.671 281.517L975.697 269.469L994.561 2.40956L868.535 63.0502L849.671 281.517Z" fill="url(#paint35_linear_9_2643)"/>
<path d="M850.474 269.871L957.636 251.799L976.099 0L868.535 63.0502L850.474 269.871Z" fill="url(#paint36_linear_9_2643)"/>
<path d="M992.956 269.068H1005.4L1023.46 5.62231L1011.42 4.41753L992.956 269.068Z" fill="url(#paint37_linear_9_2643)"/>
<path d="M1011.82 274.288L1018.24 273.887L1036.3 2.40956L1030.28 1.60638L1011.82 274.288Z" fill="#F86761"/>
<path fill-rule="evenodd" clip-rule="evenodd" d="M728.863 75.4996C735.686 75.098 742.911 74.2948 749.734 73.8932C749.734 71.8852 750.135 70.2789 750.135 68.2709C743.312 68.6725 736.088 69.0741 729.264 69.8773C729.264 71.8852 729.265 73.4916 728.863 75.4996Z" fill="#D0DDFD"/>
<path fill-rule="evenodd" clip-rule="evenodd" d="M728.06 84.7362C738.496 83.9331 749.332 83.1299 759.768 82.7283C759.768 80.7203 760.169 79.1139 760.169 77.106C749.734 77.5076 738.897 78.3108 728.462 79.1139C728.462 81.1219 728.462 83.1299 728.06 84.7362Z" fill="#D0DDFD"/>
<path fill-rule="evenodd" clip-rule="evenodd" d="M758.162 73.4916C768.196 73.09 778.23 72.6884 788.264 72.6884C788.264 70.6805 788.665 69.0741 788.665 67.0661C778.631 67.0661 768.597 67.4677 758.563 67.8693C758.162 69.8773 758.162 71.8852 758.162 73.4916Z" fill="#D0DDFD"/>
<path fill-rule="evenodd" clip-rule="evenodd" d="M792.679 72.6884C798.298 72.6884 803.515 72.6884 809.134 72.6884C809.134 70.6805 809.536 69.0741 809.536 67.0661C803.917 67.0661 798.699 67.0661 793.08 67.0661C792.679 69.0741 792.679 70.6805 792.679 72.6884Z" fill="#D0DDFD"/>
<path fill-rule="evenodd" clip-rule="evenodd" d="M813.951 72.6884C820.372 72.6884 827.195 73.09 833.617 73.09C833.617 71.0821 834.019 69.4757 834.019 67.4677C827.597 67.0661 820.774 67.0661 814.352 67.0661C814.352 69.0741 813.951 70.6805 813.951 72.6884Z" fill="#D0DDFD"/>
<path fill-rule="evenodd" clip-rule="evenodd" d="M788.665 76.7044C788.665 78.7123 788.264 80.3187 788.264 82.3267C799.903 82.3267 811.543 82.3267 822.781 82.7283C822.781 80.7203 823.182 79.1139 823.182 77.106C811.543 76.7044 799.903 76.7044 788.665 76.7044Z" fill="#D0DDFD"/>
<path fill-rule="evenodd" clip-rule="evenodd" d="M727.659 94.3745C734.482 93.9729 741.707 93.1697 748.53 92.7681C748.53 90.7602 748.931 89.1538 748.931 87.1458C742.108 87.5474 734.883 87.949 728.06 88.7522C727.659 90.7602 727.659 92.3665 727.659 94.3745Z" fill="#D0DDFD"/>
<path fill-rule="evenodd" clip-rule="evenodd" d="M726.856 104.013C747.727 102.406 768.597 101.603 789.468 101.202C789.468 99.1936 789.869 97.5872 789.869 95.5793C768.999 95.5793 748.128 96.7841 727.258 98.3904C727.258 100.398 726.856 102.005 726.856 104.013Z" fill="#D0DDFD"/>
<path fill-rule="evenodd" clip-rule="evenodd" d="M756.557 92.3665C769.4 91.9649 782.244 91.5633 795.087 91.5633C795.087 89.5554 795.488 87.949 795.488 85.941C782.645 85.941 769.802 86.3426 756.958 86.7442C756.958 88.7522 756.557 90.7601 756.557 92.3665Z" fill="#D0DDFD"/>
<path fill-rule="evenodd" clip-rule="evenodd" d="M801.107 91.5633C807.93 91.5633 814.753 91.5633 821.576 91.9649C821.576 89.957 821.978 88.3506 821.978 86.3426C815.155 86.3426 808.332 85.941 801.509 85.941C801.509 87.949 801.107 89.957 801.107 91.5633Z" fill="#D0DDFD"/>
<path fill-rule="evenodd" clip-rule="evenodd" d="M828.801 92.3665C837.229 92.7681 845.658 93.1697 854.086 93.5713C854.086 91.5633 854.488 89.957 854.488 87.949C846.059 87.5474 837.631 86.7442 829.202 86.7442C829.202 88.7522 828.801 90.3586 828.801 92.3665Z" fill="#D0DDFD"/>
<path fill-rule="evenodd" clip-rule="evenodd" d="M795.488 101.202C807.128 101.202 819.168 101.603 830.808 102.005C830.808 99.9968 831.209 98.3904 831.209 96.3825C819.57 95.9809 807.529 95.5793 795.89 95.5793C795.89 97.5872 795.89 99.1936 795.488 101.202Z" fill="#D0DDFD"/>
<path fill-rule="evenodd" clip-rule="evenodd" d="M765.387 82.7283C770.604 82.7283 775.822 82.3267 781.04 82.3267C781.04 80.3187 781.441 78.7123 781.441 76.7044C776.223 76.7044 771.006 77.106 765.788 77.106C765.788 79.1139 765.387 80.7203 765.387 82.7283Z" fill="#D0DDFD"/>
<path fill-rule="evenodd" clip-rule="evenodd" d="M721.237 177.504C728.06 177.103 734.884 176.701 741.707 176.3C741.707 174.292 742.108 172.685 742.108 170.677C735.285 171.079 728.462 171.48 721.237 171.882C721.639 173.89 721.237 175.898 721.237 177.504Z" fill="#D0DDFD"/>
<path fill-rule="evenodd" clip-rule="evenodd" d="M720.435 187.143C730.87 186.339 741.305 185.938 751.339 185.536C751.339 183.528 751.74 181.922 751.74 179.914C741.305 180.316 730.87 180.717 720.435 181.52C720.836 183.528 720.435 185.135 720.435 187.143Z" fill="#D0DDFD"/>
<path fill-rule="evenodd" clip-rule="evenodd" d="M749.734 175.898C759.768 175.496 769.4 175.496 779.033 175.496C779.033 173.488 779.434 171.882 779.434 169.874C769.801 169.874 759.768 170.276 749.734 170.677C750.135 172.284 749.734 174.292 749.734 175.898Z" fill="#D0DDFD"/>
<path fill-rule="evenodd" clip-rule="evenodd" d="M783.448 175.496C788.665 175.496 794.284 175.496 799.502 175.496C799.502 173.488 799.903 171.882 799.903 169.874C794.686 169.874 789.067 169.874 783.849 169.874C783.849 171.882 783.849 173.488 783.448 175.496Z" fill="#D0DDFD"/>
<path fill-rule="evenodd" clip-rule="evenodd" d="M804.719 175.496C811.141 175.496 817.563 175.898 823.985 176.3C823.985 174.292 824.386 172.685 824.386 170.677C817.964 170.276 811.543 170.276 805.121 169.874C805.121 171.882 804.719 173.89 804.719 175.496Z" fill="#D0DDFD"/>
<path fill-rule="evenodd" clip-rule="evenodd" d="M779.033 184.733C790.271 184.733 801.91 185.135 813.148 185.536C813.148 183.528 813.549 181.922 813.549 179.914C802.311 179.512 791.073 179.111 779.434 179.111C779.434 181.119 779.434 183.127 779.033 184.733Z" fill="#D0DDFD"/>
<path fill-rule="evenodd" clip-rule="evenodd" d="M719.632 196.379C726.455 195.978 733.278 195.576 740.101 195.174C740.101 193.167 740.502 191.56 740.502 189.552C733.679 189.954 726.856 190.355 720.033 190.757C720.033 192.765 719.632 194.773 719.632 196.379Z" fill="#D0DDFD"/>
<path fill-rule="evenodd" clip-rule="evenodd" d="M718.829 206.018C739.298 204.813 760.169 204.01 780.638 204.01C780.638 202.002 781.04 200.395 781.04 198.387C760.57 198.387 740.101 198.789 719.231 200.395C719.231 202.403 719.231 204.01 718.829 206.018Z" fill="#D0DDFD"/>
<path fill-rule="evenodd" clip-rule="evenodd" d="M748.128 195.174C760.57 194.773 773.414 194.371 785.856 194.773C785.856 192.765 786.257 191.159 786.257 189.151C773.815 189.151 760.972 189.151 748.53 189.552C748.53 191.56 748.53 193.167 748.128 195.174Z" fill="#D0DDFD"/>
<path fill-rule="evenodd" clip-rule="evenodd" d="M791.876 194.773C798.699 194.773 805.522 195.174 812.345 195.174C812.345 193.167 812.747 191.56 812.747 189.552C805.924 189.151 799.1 189.151 792.277 189.151C792.277 190.757 792.277 192.765 791.876 194.773Z" fill="#D0DDFD"/>
<path fill-rule="evenodd" clip-rule="evenodd" d="M819.168 195.576C827.597 195.978 835.624 196.379 843.651 197.182C843.651 195.174 844.052 193.568 844.052 191.56C836.025 190.757 827.597 190.355 819.57 189.954C819.57 191.962 819.168 193.568 819.168 195.576Z" fill="#D0DDFD"/>
<path fill-rule="evenodd" clip-rule="evenodd" d="M786.658 204.01C798.298 204.01 809.937 204.411 821.175 205.214C821.175 203.206 821.576 201.6 821.576 199.592C809.937 198.789 798.298 198.789 786.658 198.387C787.06 200.395 786.658 202.403 786.658 204.01Z" fill="#D0DDFD"/>
<path fill-rule="evenodd" clip-rule="evenodd" d="M756.958 185.135C762.176 185.135 766.992 184.733 772.21 184.733C772.21 182.725 772.611 181.119 772.611 179.111C767.393 179.111 762.577 179.111 757.359 179.512C757.359 181.52 756.958 183.528 756.958 185.135Z" fill="#D0DDFD"/>
<path fill-rule="evenodd" clip-rule="evenodd" d="M718.026 216.459C724.85 216.057 731.673 215.656 738.496 215.254C738.496 213.246 738.897 211.64 738.897 209.632C732.074 210.033 725.251 210.435 718.428 210.837C718.428 212.845 718.428 214.451 718.026 216.459Z" fill="#D0DDFD"/>
<path fill-rule="evenodd" clip-rule="evenodd" d="M717.224 226.097C727.659 225.294 737.693 224.892 748.128 224.491C748.128 222.483 748.53 220.876 748.53 218.869C738.094 219.27 728.06 219.672 717.625 220.475C717.625 222.483 717.625 224.089 717.224 226.097Z" fill="#D0DDFD"/>
<path fill-rule="evenodd" clip-rule="evenodd" d="M746.523 214.853C756.155 214.451 766.189 214.451 775.822 214.451C775.822 212.443 776.223 210.837 776.223 208.829C766.591 208.829 756.557 208.829 746.924 209.23C746.924 211.238 746.523 213.246 746.523 214.853Z" fill="#D0DDFD"/>
<path fill-rule="evenodd" clip-rule="evenodd" d="M780.237 214.451C785.454 214.451 790.672 214.451 796.291 214.853C796.291 212.845 796.692 211.238 796.692 209.23C791.475 209.23 786.257 208.829 780.638 208.829C780.237 210.837 780.237 212.845 780.237 214.451Z" fill="#D0DDFD"/>
<path fill-rule="evenodd" clip-rule="evenodd" d="M801.107 214.853C807.529 214.853 813.951 215.254 820.372 215.656C820.372 213.648 820.774 212.041 820.774 210.033C814.352 209.632 807.93 209.23 801.509 209.23C801.509 211.238 801.107 213.246 801.107 214.853Z" fill="#D0DDFD"/>
<path fill-rule="evenodd" clip-rule="evenodd" d="M775.822 224.089C787.06 224.089 798.298 224.491 809.536 224.892C809.536 222.884 809.937 221.278 809.937 219.27C798.699 218.869 787.461 218.467 776.223 218.467C775.822 220.475 775.822 222.081 775.822 224.089Z" fill="#D0DDFD"/>
<path fill-rule="evenodd" clip-rule="evenodd" d="M716.421 235.334C723.244 234.932 730.067 234.531 736.89 234.129C736.89 232.121 737.292 230.515 737.292 228.507C730.469 228.908 723.646 229.31 716.822 229.712C716.822 231.72 716.822 233.727 716.421 235.334Z" fill="#D0DDFD"/>
<path fill-rule="evenodd" clip-rule="evenodd" d="M716.02 244.972C736.489 243.767 756.958 242.964 777.026 243.366C777.026 241.358 777.427 239.751 777.427 237.743C756.958 237.743 736.89 238.145 716.02 239.35C716.02 241.358 716.02 242.964 716.02 244.972Z" fill="#D0DDFD"/>
<path fill-rule="evenodd" clip-rule="evenodd" d="M745.319 228.507C745.319 230.515 744.917 232.121 744.917 234.129C757.36 233.727 769.802 233.727 782.244 233.727C782.244 231.72 782.645 230.113 782.645 228.105C770.604 228.105 757.761 228.105 745.319 228.507Z" fill="#D0DDFD"/>
<path fill-rule="evenodd" clip-rule="evenodd" d="M788.264 233.727C795.087 233.727 801.509 234.129 808.332 234.531C808.332 232.523 808.733 230.916 808.733 228.908C801.91 228.507 795.488 228.507 788.665 228.105C788.665 230.113 788.665 232.121 788.264 233.727Z" fill="#D0DDFD"/>
<path fill-rule="evenodd" clip-rule="evenodd" d="M815.556 234.932C823.583 235.334 832.012 235.735 840.039 236.539C840.039 234.531 840.44 232.924 840.44 230.916C832.413 230.113 823.985 229.712 815.958 229.31C815.556 231.318 815.556 232.924 815.556 234.932Z" fill="#D0DDFD"/>
<path fill-rule="evenodd" clip-rule="evenodd" d="M783.046 243.366C794.686 243.366 805.924 244.169 817.563 244.571C817.563 242.563 817.964 240.956 817.964 238.948C806.325 238.145 795.087 237.743 783.448 237.743C783.448 239.751 783.046 241.358 783.046 243.366Z" fill="#D0DDFD"/>
<path fill-rule="evenodd" clip-rule="evenodd" d="M753.747 224.491C758.965 224.491 763.781 224.491 768.999 224.089C768.999 222.081 769.4 220.475 769.4 218.467C764.182 218.467 759.366 218.467 754.149 218.869C753.747 220.876 753.747 222.483 753.747 224.491Z" fill="#D0DDFD"/>
<path fill-rule="evenodd" clip-rule="evenodd" d="M744.917 121.683C750.938 121.281 756.958 121.281 762.979 120.88C762.979 118.872 763.38 117.265 763.38 115.257C757.359 115.659 751.339 115.659 744.917 116.061C745.319 118.069 744.917 119.675 744.917 121.683Z" fill="#D0DDFD"/>
<path fill-rule="evenodd" clip-rule="evenodd" d="M773.414 114.856C773.414 116.864 773.012 118.47 773.012 120.478C791.475 120.076 809.536 120.076 827.597 120.88C827.597 118.872 827.998 117.265 827.998 115.257C809.937 114.856 791.475 114.454 773.414 114.856Z" fill="#D0DDFD"/>
<path fill-rule="evenodd" clip-rule="evenodd" d="M724.85 132.124C736.489 131.321 748.53 130.518 760.169 130.116C760.169 128.108 760.57 126.502 760.57 124.494C748.931 124.896 736.89 125.699 725.251 126.502C724.85 128.51 724.85 130.518 724.85 132.124Z" fill="#D0DDFD"/>
<path fill-rule="evenodd" clip-rule="evenodd" d="M724.047 141.763C737.292 140.959 750.135 140.156 763.38 139.755C763.38 137.747 763.781 136.14 763.781 134.132C750.536 134.534 737.693 135.337 724.448 136.14C724.047 138.148 724.047 139.755 724.047 141.763Z" fill="#D0DDFD"/>
<path fill-rule="evenodd" clip-rule="evenodd" d="M723.244 151.401C732.475 150.598 741.305 150.196 750.536 149.794C750.536 147.786 750.938 146.18 750.938 144.172C741.707 144.574 732.877 144.975 723.646 145.778C723.646 147.786 723.244 149.393 723.244 151.401Z" fill="#D0DDFD"/>
<path fill-rule="evenodd" clip-rule="evenodd" d="M771.808 134.132C771.808 136.14 771.407 137.747 771.407 139.755C781.039 139.755 791.073 139.353 800.706 139.755C800.706 137.747 801.107 136.14 801.107 134.132C791.073 133.731 781.441 133.731 771.808 134.132Z" fill="#D0DDFD"/>
<path fill-rule="evenodd" clip-rule="evenodd" d="M756.958 144.172C756.958 146.18 756.557 147.786 756.557 149.794C773.414 149.393 790.271 148.991 807.128 149.393C807.128 147.385 807.529 145.778 807.529 143.77C790.672 143.369 773.815 143.369 756.958 144.172Z" fill="#D0DDFD"/>
<path fill-rule="evenodd" clip-rule="evenodd" d="M811.944 149.393C816.359 149.393 821.175 149.794 825.59 149.794C825.59 147.786 825.991 146.18 825.991 144.172C821.577 143.771 816.76 143.771 812.345 143.771C812.345 145.778 811.944 147.385 811.944 149.393Z" fill="#D0DDFD"/>
<path fill-rule="evenodd" clip-rule="evenodd" d="M743.713 159.433C752.142 159.031 760.57 158.629 768.999 158.629C768.999 156.622 769.4 155.015 769.4 153.007C760.972 153.007 752.543 153.409 744.115 153.81C744.115 155.818 743.713 157.826 743.713 159.433Z" fill="#D0DDFD"/>
<path fill-rule="evenodd" clip-rule="evenodd" d="M773.414 153.007C773.414 155.015 773.012 156.622 773.012 158.629C788.264 158.228 803.515 158.629 818.366 159.433C818.366 157.425 818.767 155.818 818.767 153.81C803.917 153.007 788.665 153.007 773.414 153.007Z" fill="#D0DDFD"/>
<path fill-rule="evenodd" clip-rule="evenodd" d="M823.985 159.433C828.801 159.834 833.617 159.834 838.433 160.236C838.433 158.228 838.835 156.622 838.835 154.614C834.019 154.212 829.202 154.212 824.386 153.81C824.386 155.818 823.985 157.425 823.985 159.433Z" fill="#D0DDFD"/>
<path fill-rule="evenodd" clip-rule="evenodd" d="M633.742 202.002C631.735 205.616 632.939 210.033 636.551 212.041C644.578 216.861 657.02 223.286 666.653 224.892L671.068 216.459C667.054 214.451 656.619 206.018 644.177 198.789C640.565 196.781 635.748 198.387 633.742 202.002Z" fill="#4B66BA"/>
<path fill-rule="evenodd" clip-rule="evenodd" d="M712.809 205.214C709.999 206.018 711.605 203.206 709.197 204.01C706.789 205.214 704.782 206.821 703.176 209.632C702.374 210.837 680.299 215.254 669.864 216.459C666.252 216.861 665.047 223.286 667.456 224.892C673.075 228.507 696.353 219.27 703.578 217.262C708.795 215.656 712.006 214.049 714.013 213.648C716.02 213.246 716.822 212.443 716.02 210.837C716.822 210.435 717.625 209.23 716.822 208.427C718.027 208.026 718.027 206.821 717.224 206.018C718.829 205.214 720.435 204.813 719.632 203.608C719.231 202.805 714.414 204.813 712.809 205.214Z" fill="#FFCAB8"/>
<path fill-rule="evenodd" clip-rule="evenodd" d="M666.653 215.254C663.041 215.656 662.639 223.286 665.048 224.892C670.667 228.507 696.755 220.073 703.979 218.065C702.775 216.459 701.571 212.041 701.17 210.033C700.768 210.033 676.687 214.049 666.653 215.254Z" fill="#4B66BA"/>
<path fill-rule="evenodd" clip-rule="evenodd" d="M701.972 214.853C693.544 219.672 678.292 222.884 669.061 220.475C668.258 220.475 665.048 219.27 664.646 218.869C664.245 218.869 664.245 218.467 663.843 218.467C654.211 214.451 642.17 210.033 635.347 202.002C635.347 201.6 632.538 197.986 632.136 197.986C631.735 198.387 633.742 201.198 633.34 202.002C631.334 205.616 632.538 210.033 636.15 212.041C643.374 216.459 655.014 222.483 664.245 224.491C669.864 228.105 695.952 219.672 703.176 217.664C703.176 217.262 702.775 216.057 701.972 214.853Z" fill="#4B66BA"/>
<path fill-rule="evenodd" clip-rule="evenodd" d="M709.197 202.805L705.183 207.222L708.394 206.821C709.197 206.419 710.401 205.214 711.203 203.608C713.21 202.805 713.612 201.6 713.21 199.994C711.203 201.6 710.401 202.002 709.197 202.805Z" fill="#FFCAB8"/>
<path fill-rule="evenodd" clip-rule="evenodd" d="M761.373 337.74C750.135 340.953 744.115 357.82 738.897 367.86C738.897 367.86 742.509 375.088 755.353 375.892C755.353 375.892 768.597 354.607 768.999 348.985C768.999 344.166 763.781 337.339 761.373 337.74Z" fill="#FEA07D"/>
<path fill-rule="evenodd" clip-rule="evenodd" d="M761.373 337.74C760.57 337.74 760.169 338.142 759.366 338.543C759.768 338.945 760.169 339.748 759.768 340.551C759.768 352.198 752.142 363.442 743.312 372.679C745.72 374.285 749.734 375.892 755.353 376.293C755.353 376.293 768.597 355.009 768.999 349.386C768.999 344.166 763.781 337.339 761.373 337.74Z" fill="#42445D"/>
<path fill-rule="evenodd" clip-rule="evenodd" d="M756.557 339.748C752.945 342.158 756.155 382.317 752.945 388.341C747.727 398.381 741.305 410.429 741.305 410.429C754.951 418.461 807.529 418.461 807.529 418.461C807.529 418.461 810.338 408.822 812.747 393.16C815.155 375.088 816.359 335.331 815.155 334.929C793.08 329.307 762.577 335.732 756.557 339.748Z" fill="#FEA07D"/>
<path fill-rule="evenodd" clip-rule="evenodd" d="M793.481 311.637L775.822 322.48C776.223 323.283 777.026 330.11 775.822 333.323C774.618 336.134 773.815 340.15 779.835 341.756C785.454 342.961 796.291 337.74 794.686 332.921C792.679 324.488 793.481 311.637 793.481 311.637Z" fill="#FFCAB8"/>
<path fill-rule="evenodd" clip-rule="evenodd" d="M793.481 311.637L775.822 322.48C776.223 323.283 777.026 330.11 775.822 333.323C775.822 333.724 775.42 334.126 775.42 334.929C775.42 334.929 778.631 334.527 781.441 332.52C784.652 330.512 787.862 331.315 790.672 334.527C791.475 335.732 791.876 337.339 791.876 338.543C794.284 336.937 795.488 334.929 795.087 332.921C792.679 324.488 793.481 311.637 793.481 311.637Z" fill="#FFC3AB"/>
<path fill-rule="evenodd" clip-rule="evenodd" d="M812.345 334.527C805.522 333.724 793.883 344.166 793.08 361.434C793.08 365.852 791.475 371.876 787.863 379.104C785.856 383.12 777.026 386.333 773.414 387.939C769.801 389.144 768.999 390.751 771.407 391.955C773.414 393.16 790.672 395.971 788.665 398.381C786.257 401.192 765.387 406.011 769.4 414.846C771.407 419.264 803.114 416.051 809.134 414.846C811.141 411.232 811.141 402.798 812.747 397.176C815.556 385.931 814.352 362.237 815.957 349.386C816.359 340.953 819.971 335.732 812.345 334.527Z" fill="url(#paint38_linear_9_2643)"/>
<path fill-rule="evenodd" clip-rule="evenodd" d="M741.707 427.697C740.904 427.697 727.258 426.894 721.639 427.296C716.02 428.099 714.013 428.099 710.802 431.713C707.591 435.327 708.795 441.351 710.401 445.769C712.006 450.186 714.414 450.186 718.829 448.982C723.244 447.777 727.659 444.564 732.074 444.163C736.489 443.761 737.292 444.564 740.503 443.761C743.713 442.958 744.115 443.761 743.713 441.753C743.312 439.343 741.707 427.697 741.707 427.697Z" fill="white"/>
<path fill-rule="evenodd" clip-rule="evenodd" d="M741.707 427.697C740.904 427.697 727.258 426.894 721.639 427.296C716.02 428.099 714.013 428.099 710.802 431.713C709.197 433.721 708.394 436.532 708.795 439.343C712.006 440.147 714.816 440.147 718.027 439.343C720.836 438.54 723.646 437.737 726.856 438.139C730.067 438.54 733.679 440.95 734.884 444.163C736.89 444.163 738.094 444.564 740.503 443.761C743.713 442.958 744.115 443.761 743.713 441.753C743.312 439.343 741.707 427.697 741.707 427.697Z" fill="url(#paint39_linear_9_2643)"/>
<path fill-rule="evenodd" clip-rule="evenodd" d="M717.224 429.304C719.231 428.099 722.442 427.296 721.639 427.296C716.02 428.099 714.013 428.099 710.802 431.713C707.591 435.327 708.795 441.351 710.401 445.769C712.006 449.785 714.013 450.186 717.625 449.383C712.006 444.564 709.999 434.123 717.224 429.304Z" fill="#333242"/>
<path fill-rule="evenodd" clip-rule="evenodd" d="M815.155 428.099C811.944 427.697 801.509 427.697 793.482 426.492C793.482 426.492 785.053 438.54 784.652 438.942C784.25 439.343 791.073 442.958 793.883 444.966C796.692 446.974 807.529 450.588 810.339 450.186C813.148 449.785 818.767 437.737 819.971 433.32C821.175 428.902 818.366 428.5 815.155 428.099Z" fill="white"/>
<path fill-rule="evenodd" clip-rule="evenodd" d="M815.155 428.099C811.944 427.697 801.509 427.697 793.482 426.492C793.482 426.492 786.257 436.934 785.053 438.54C788.665 438.54 792.278 436.532 795.89 437.335C797.896 437.737 799.903 440.147 805.522 439.343C808.733 438.942 808.332 444.564 805.522 447.375C805.121 447.777 804.318 448.58 803.515 448.58C806.325 449.383 809.134 449.785 810.338 449.785C813.148 449.383 818.767 437.335 819.971 432.918C821.175 428.902 818.366 428.5 815.155 428.099Z" fill="url(#paint40_linear_9_2643)"/>
<path fill-rule="evenodd" clip-rule="evenodd" d="M715.217 400.79C707.591 402.397 704.782 408.421 704.782 414.846C704.782 418.862 708.394 422.878 712.408 424.083C716.822 425.288 783.448 440.548 785.454 440.95C787.461 441.351 795.488 422.075 795.488 422.075C792.679 421.673 729.666 397.979 715.217 400.79Z" fill="#4B66BA"/>
<path fill-rule="evenodd" clip-rule="evenodd" d="M735.285 419.264C721.237 419.665 716.823 417.657 704.782 411.633C704.38 412.838 704.38 414.043 704.38 415.248C704.38 419.264 707.993 423.28 712.006 424.484C716.421 425.689 783.046 440.95 785.053 441.351C787.06 441.753 795.087 422.476 795.087 422.476C794.284 422.075 775.42 415.649 763.38 411.633C753.747 416.051 745.72 418.862 735.285 419.264Z" fill="#42445D"/>
<path fill-rule="evenodd" clip-rule="evenodd" d="M757.359 291.959C757.359 291.959 754.149 294.368 754.149 297.982C753.747 301.597 757.761 307.621 757.761 307.621C757.761 307.621 761.774 297.581 760.972 294.77C760.972 293.967 757.359 291.959 757.359 291.959Z" fill="#333242"/>
<path fill-rule="evenodd" clip-rule="evenodd" d="M775.42 335.331L775.822 333.724C775.822 333.724 772.611 333.323 771.808 337.74C771.006 344.969 774.216 350.19 774.216 350.19C774.618 346.575 780.237 341.355 780.237 341.355C775.822 339.347 775.42 335.331 775.42 335.331Z" fill="white"/>
<path fill-rule="evenodd" clip-rule="evenodd" d="M799.502 305.613C797.495 302.4 794.686 305.211 794.686 305.211C794.686 305.211 793.883 296.778 788.264 291.557C782.244 285.935 776.223 288.344 765.788 291.557C754.951 294.77 757.359 297.982 757.359 297.982C757.359 297.982 757.761 306.818 759.366 315.653C760.169 319.267 764.183 324.488 768.597 329.708C773.012 334.929 779.033 332.118 786.658 327.299C794.284 322.881 793.883 318.062 793.883 317.259C793.883 317.259 795.087 318.062 797.495 316.054C799.502 314.448 801.509 309.629 799.502 305.613C799.903 305.613 799.903 305.613 799.502 305.613Z" fill="#FFCAB8"/>
<path fill-rule="evenodd" clip-rule="evenodd" d="M799.502 305.613C797.495 302.4 794.686 305.211 794.686 305.211C794.686 305.211 793.883 296.778 788.264 291.557C787.06 290.352 779.835 292.762 781.039 296.376C781.842 300.392 785.053 303.203 785.856 306.818C786.658 311.235 787.863 319.267 785.053 322.881C781.441 328.102 774.618 332.52 768.196 329.708C768.196 329.708 768.196 329.708 768.597 330.11C773.012 335.331 779.033 332.52 786.658 327.7C794.284 323.283 793.883 318.464 793.883 317.661C793.883 317.661 795.087 318.464 797.495 316.456C799.502 314.448 801.509 309.629 799.502 305.613C799.903 305.613 799.903 305.613 799.502 305.613Z" fill="#FFC3AB"/>
<path fill-rule="evenodd" clip-rule="evenodd" d="M756.155 289.951C754.951 292.762 753.346 301.998 760.972 304.006C769.4 306.416 784.25 295.573 787.461 301.998C790.271 307.219 787.06 310.432 789.468 312.44C790.672 313.645 792.277 313.243 793.08 311.637C793.482 311.235 793.08 307.219 794.686 304.81C794.686 304.81 796.291 303.605 797.495 303.605C797.495 303.605 799.101 297.581 796.692 291.959C788.665 273.084 761.774 277.903 756.155 289.951Z" fill="#42445D"/>
<path fill-rule="evenodd" clip-rule="evenodd" d="M779.434 279.911C785.053 283.927 777.829 292.762 783.448 297.179C788.264 301.195 790.271 302.4 790.271 305.211C790.271 307.219 789.468 311.637 789.468 312.44L789.869 312.841C791.073 314.046 792.679 313.645 793.482 312.038C793.883 311.637 793.482 307.621 795.087 305.211C795.087 305.211 796.692 304.006 797.896 304.006C797.896 304.006 799.502 297.982 797.094 292.36C793.08 284.328 786.658 280.312 779.434 279.911Z" fill="#333242"/>
<path fill-rule="evenodd" clip-rule="evenodd" d="M816.76 402.397C809.134 397.979 795.488 403.602 779.835 408.421C767.795 412.035 734.482 423.681 734.482 423.681C734.482 423.681 731.271 437.737 740.101 446.572C740.101 446.572 786.257 435.327 815.556 422.878C817.563 422.075 820.774 420.469 821.978 415.649C823.182 410.83 820.774 404.806 816.76 402.397Z" fill="#4B66BA"/>
<path fill-rule="evenodd" clip-rule="evenodd" d="M817.563 403.2C818.767 406.011 818.767 409.224 817.162 412.838C814.753 418.059 809.536 420.469 804.318 419.665C801.91 419.264 800.305 417.657 798.298 417.256C794.686 416.453 793.08 418.461 790.271 420.87C785.856 424.484 782.645 427.697 777.026 428.902C773.815 429.705 771.006 428.902 767.795 428.902C763.781 429.304 760.972 431.312 757.359 432.516C749.332 434.926 741.707 432.918 734.081 430.107C734.081 434.926 735.285 441.351 740.503 446.171C740.503 446.171 786.659 434.926 815.958 422.476C817.964 421.673 821.175 420.067 822.379 415.248C823.182 411.232 821.175 406.011 817.563 403.2Z" fill="#42445D"/>
<path fill-rule="evenodd" clip-rule="evenodd" d="M795.087 308.022C794.686 309.227 794.686 309.629 795.087 310.432C795.488 311.235 795.488 310.833 795.89 311.637C795.89 312.44 795.087 312.038 794.686 313.243C794.284 314.046 794.686 314.849 795.488 315.251C796.291 315.653 797.495 314.448 798.298 312.841C799.101 310.833 799.502 308.424 798.699 307.219C797.495 305.613 795.488 306.817 795.087 308.022Z" fill="#C95F39"/>
<path fill-rule="evenodd" clip-rule="evenodd" d="M815.556 428.099C817.964 430.107 811.141 446.974 805.522 449.383C807.529 449.785 809.134 450.186 810.338 449.785C813.148 449.383 818.767 437.335 819.971 432.918C821.175 429.304 818.767 428.5 815.556 428.099Z" fill="#333242"/>
<path fill-rule="evenodd" clip-rule="evenodd" d="M807.529 345.371C806.325 355.009 820.372 379.506 820.372 379.506C820.372 379.506 785.454 371.474 781.842 371.073C776.223 370.671 769.802 365.45 767.393 365.852C766.992 365.852 762.577 367.458 762.176 367.86C761.774 367.86 754.951 373.884 755.353 375.088C755.754 375.49 756.958 375.088 757.36 374.687C758.564 373.884 761.373 371.073 762.577 370.671C764.584 369.868 767.795 369.466 767.795 369.466C767.795 369.466 764.584 371.073 763.38 371.876C761.774 373.08 758.564 376.293 757.36 377.9C756.958 378.703 756.958 379.104 756.958 379.104C757.36 379.506 758.162 379.104 758.965 378.703C760.57 377.9 762.176 375.892 762.577 375.49C762.979 375.088 766.189 373.482 766.189 373.482C766.189 373.482 762.577 377.096 761.774 378.301C760.972 379.506 758.965 382.719 759.768 383.12C760.169 383.12 760.972 382.719 761.774 381.916C763.38 380.711 764.584 378.703 765.387 377.9C766.189 377.498 768.597 375.892 769.4 375.892C769.4 375.892 767.795 377.096 767.393 378.301C766.992 379.104 766.189 381.514 766.189 381.514C766.189 381.514 765.788 384.727 766.591 384.727C767.795 384.325 768.597 381.112 768.597 381.112C768.597 381.112 769.4 380.711 769.802 379.908C769.802 379.908 773.815 381.514 777.427 381.514C781.04 381.514 783.046 380.309 783.046 380.309C783.448 381.514 823.182 393.562 827.196 394.365C831.209 395.168 834.42 392.357 834.821 391.152C836.427 383.924 827.597 362.237 821.577 347.378C817.162 332.52 807.93 342.559 807.529 345.371Z" fill="#FFCAB8"/>
<path fill-rule="evenodd" clip-rule="evenodd" d="M807.529 345.371C806.325 353.402 816.76 373.08 819.57 378.301C821.175 378.301 823.182 378.301 825.59 377.096C830.808 374.687 837.229 382.317 829.604 387.136C824.386 390.349 816.76 387.538 784.652 377.096C781.441 376.293 778.23 378.301 776.223 378.301C775.019 378.301 772.611 377.096 771.407 377.9C768.999 379.506 768.598 381.112 767.795 383.522C767.795 383.924 767.393 383.923 767.393 383.923L767.795 384.325C768.999 383.923 769.802 380.711 769.802 380.711C769.802 380.711 770.604 380.309 771.006 379.506C771.006 379.506 775.019 381.112 778.631 381.112C782.244 381.112 784.25 379.908 784.25 379.908C784.652 381.112 824.386 393.16 828.4 393.963C832.413 394.767 835.624 391.955 836.025 390.751C837.631 383.522 828.801 361.836 822.781 346.977C817.162 332.52 807.93 342.559 807.529 345.371Z" fill="#FFC3AB"/>
<path fill-rule="evenodd" clip-rule="evenodd" d="M811.141 334.929C800.706 336.937 799.502 350.19 817.964 377.096C817.964 377.096 829.202 376.293 835.223 370.671C834.821 370.269 822.781 332.52 811.141 334.929Z" fill="#FEA07D"/>
<path fill-rule="evenodd" clip-rule="evenodd" d="M813.549 334.929C813.951 335.331 814.352 336.134 814.352 336.937C816.359 345.772 814.753 355.41 809.536 363.442C811.543 367.458 814.352 371.876 817.563 377.096C817.563 377.096 828.801 376.293 834.821 370.671C834.821 370.269 824.386 337.339 813.549 334.929Z" fill="url(#paint41_linear_9_2643)"/>
<path fill-rule="evenodd" clip-rule="evenodd" d="M794.284 328.504L794.686 331.716C794.686 331.716 787.461 342.158 780.638 341.355C780.638 341.355 786.257 346.174 787.863 350.19C787.863 350.19 796.692 342.158 797.495 334.929C798.298 330.11 794.284 328.504 794.284 328.504Z" fill="white"/>
<path d="M758.162 398.783C758.162 400.389 759.366 401.594 760.972 401.594H826.393C827.998 401.594 829.202 400.389 829.202 398.783H758.162Z" fill="#333242"/>
<path d="M750.938 340.953C750.135 338.543 748.128 337.339 745.72 337.339H705.584V400.79L760.972 401.594C764.183 401.594 764.584 398.782 764.182 397.979L750.938 340.953Z" fill="#333242"/>
<path d="M748.128 338.543C748.128 337.74 747.326 337.339 746.523 337.339H675.884C674.68 337.339 673.877 338.543 674.279 339.347L687.523 395.57C688.326 399.184 691.537 401.594 695.149 401.594H760.972C762.176 401.594 762.978 400.389 762.577 399.586L748.128 338.543Z" fill="#42445D"/>
<defs>
<linearGradient id="paint0_linear_9_2643" x1="446.958" y1="259.727" x2="1291.6" y2="259.727" gradientUnits="userSpaceOnUse">
<stop offset="1.5e-07" stop-color="#EFF6FF"/>
<stop offset="1" stop-color="#C4D8FB"/>
</linearGradient>
<linearGradient id="paint1_linear_9_2643" x1="249.903" y1="397.446" x2="527.069" y2="397.446" gradientUnits="userSpaceOnUse">
<stop offset="1.5e-07" stop-color="#EFF6FF"/>
<stop offset="1" stop-color="#C4D8FB"/>
</linearGradient>
<linearGradient id="paint2_linear_9_2643" x1="477.907" y1="282.452" x2="568.714" y2="282.452" gradientUnits="userSpaceOnUse">
<stop stop-color="#FB6B14"/>
<stop offset="1" stop-color="#FDB522"/>
</linearGradient>
<linearGradient id="paint3_linear_9_2643" x1="1054.65" y1="375.418" x2="979.72" y2="348.91" gradientUnits="userSpaceOnUse">
<stop stop-color="#FB6B14"/>
<stop offset="1" stop-color="#FDB522"/>
</linearGradient>
<linearGradient id="paint4_linear_9_2643" x1="1172.52" y1="299.443" x2="1219.36" y2="299.443" gradientUnits="userSpaceOnUse">
<stop stop-color="#FB6B14"/>
<stop offset="1" stop-color="#FDB522"/>
</linearGradient>
<linearGradient id="paint5_linear_9_2643" x1="1132.93" y1="264.411" x2="1256.7" y2="213.594" gradientUnits="userSpaceOnUse">
<stop stop-color="#FB6B14"/>
<stop offset="1" stop-color="#FDB522"/>
</linearGradient>
<linearGradient id="paint6_linear_9_2643" x1="892.784" y1="324.791" x2="901.282" y2="362.068" gradientUnits="userSpaceOnUse">
<stop offset="2.5e-07" stop-color="#EFF6FF"/>
<stop offset="1" stop-color="#8AA8DA"/>
</linearGradient>
<linearGradient id="paint7_linear_9_2643" x1="697.52" y1="35.7278" x2="1100.05" y2="35.7278" gradientUnits="userSpaceOnUse">
<stop stop-color="#FB6B14"/>
<stop offset="1" stop-color="#FDB522"/>
</linearGradient>
<linearGradient id="paint8_linear_9_2643" x1="626.286" y1="154.16" x2="609.523" y2="169.769" gradientUnits="userSpaceOnUse">
<stop stop-color="#F86761"/>
<stop offset="1" stop-color="#FEA07D"/>
</linearGradient>
<linearGradient id="paint9_linear_9_2643" x1="620.125" y1="186.855" x2="620.125" y2="160.135" gradientUnits="userSpaceOnUse">
<stop stop-color="#FB6B14"/>
<stop offset="1" stop-color="#FDB522"/>
</linearGradient>
<linearGradient id="paint10_linear_9_2643" x1="619.214" y1="329.951" x2="647.502" y2="329.951" gradientUnits="userSpaceOnUse">
<stop offset="1.5e-07" stop-color="#EFF6FF"/>
<stop offset="1" stop-color="#C4D8FB"/>
</linearGradient>
<linearGradient id="paint11_linear_9_2643" x1="630.644" y1="331.875" x2="675.795" y2="331.875" gradientUnits="userSpaceOnUse">
<stop offset="1.5e-07" stop-color="#EFF6FF"/>
<stop offset="1" stop-color="#C4D8FB"/>
</linearGradient>
<linearGradient id="paint12_linear_9_2643" x1="1020.56" y1="104.118" x2="1080.48" y2="104.118" gradientUnits="userSpaceOnUse">
<stop offset="2.5e-07" stop-color="#EFF6FF"/>
<stop offset="1" stop-color="#8AA8DA"/>
</linearGradient>
<linearGradient id="paint13_linear_9_2643" x1="1019.51" y1="119.192" x2="1079.43" y2="119.192" gradientUnits="userSpaceOnUse">
<stop offset="2.5e-07" stop-color="#EFF6FF"/>
<stop offset="1" stop-color="#8AA8DA"/>
</linearGradient>
<linearGradient id="paint14_linear_9_2643" x1="1018.46" y1="134.266" x2="1078.38" y2="134.266" gradientUnits="userSpaceOnUse">
<stop offset="2.5e-07" stop-color="#EFF6FF"/>
<stop offset="1" stop-color="#8AA8DA"/>
</linearGradient>
<linearGradient id="paint15_linear_9_2643" x1="1017.41" y1="149.339" x2="1077.33" y2="149.339" gradientUnits="userSpaceOnUse">
<stop offset="2.5e-07" stop-color="#EFF6FF"/>
<stop offset="1" stop-color="#8AA8DA"/>
</linearGradient>
<linearGradient id="paint16_linear_9_2643" x1="1053.67" y1="164.412" x2="1076.27" y2="164.412" gradientUnits="userSpaceOnUse">
<stop offset="2.5e-07" stop-color="#EFF6FF"/>
<stop offset="1" stop-color="#8AA8DA"/>
</linearGradient>
<linearGradient id="paint17_linear_9_2643" x1="1035.17" y1="164.412" x2="1043.28" y2="164.412" gradientUnits="userSpaceOnUse">
<stop offset="2.5e-07" stop-color="#EFF6FF"/>
<stop offset="1" stop-color="#8AA8DA"/>
</linearGradient>
<linearGradient id="paint18_linear_9_2643" x1="1015.3" y1="179.483" x2="1075.22" y2="179.483" gradientUnits="userSpaceOnUse">
<stop offset="2.5e-07" stop-color="#EFF6FF"/>
<stop offset="1" stop-color="#8AA8DA"/>
</linearGradient>
<linearGradient id="paint19_linear_9_2643" x1="1054.36" y1="262.241" x2="1053.52" y2="267.003" gradientUnits="userSpaceOnUse">
<stop stop-color="#F86761"/>
<stop offset="1" stop-color="#FEA07D"/>
</linearGradient>
<linearGradient id="paint20_linear_9_2643" x1="1043.9" y1="252.626" x2="1066.13" y2="252.626" gradientUnits="userSpaceOnUse">
<stop stop-color="#FB6B14"/>
<stop offset="1" stop-color="#FDB522"/>
</linearGradient>
<linearGradient id="paint21_linear_9_2643" x1="1044.76" y1="240.315" x2="1066.99" y2="240.315" gradientUnits="userSpaceOnUse">
<stop stop-color="#FB6B14"/>
<stop offset="1" stop-color="#FDB522"/>
</linearGradient>
<linearGradient id="paint22_linear_9_2643" x1="1045.62" y1="228.006" x2="1067.85" y2="228.006" gradientUnits="userSpaceOnUse">
<stop stop-color="#FB6B14"/>
<stop offset="1" stop-color="#FDB522"/>
</linearGradient>
<linearGradient id="paint23_linear_9_2643" x1="1016.08" y1="228.006" x2="1032.3" y2="228.006" gradientUnits="userSpaceOnUse">
<stop stop-color="#FB6B14"/>
<stop offset="1" stop-color="#FDB522"/>
</linearGradient>
<linearGradient id="paint24_linear_9_2643" x1="1014.18" y1="255.226" x2="1030.41" y2="255.226" gradientUnits="userSpaceOnUse">
<stop stop-color="#FB6B14"/>
<stop offset="1" stop-color="#FDB522"/>
</linearGradient>
<linearGradient id="paint25_linear_9_2643" x1="1065.2" y1="206.371" x2="1024.55" y2="180.038" gradientUnits="userSpaceOnUse">
<stop stop-color="#FB6B14"/>
<stop offset="1" stop-color="#FDB522"/>
</linearGradient>
<linearGradient id="paint26_linear_9_2643" x1="1064.16" y1="207.971" x2="1023.51" y2="181.639" gradientUnits="userSpaceOnUse">
<stop stop-color="#FB6B14"/>
<stop offset="1" stop-color="#FDB522"/>
</linearGradient>
<linearGradient id="paint27_linear_9_2643" x1="1099.97" y1="252.186" x2="1099.97" y2="206.523" gradientUnits="userSpaceOnUse">
<stop stop-color="#FB6B14"/>
<stop offset="1" stop-color="#FDB522"/>
</linearGradient>
<linearGradient id="paint28_linear_9_2643" x1="1112.54" y1="283.39" x2="1112.54" y2="191.341" gradientUnits="userSpaceOnUse">
<stop stop-color="#FB6B14"/>
<stop offset="1" stop-color="#FDB522"/>
</linearGradient>
<linearGradient id="paint29_linear_9_2643" x1="1085.58" y1="164.749" x2="1115.07" y2="164.749" gradientUnits="userSpaceOnUse">
<stop offset="1.5e-07" stop-color="#EFF6FF"/>
<stop offset="1" stop-color="#C4D8FB"/>
</linearGradient>
<linearGradient id="paint30_linear_9_2643" x1="1080.65" y1="178.282" x2="1107.67" y2="178.282" gradientUnits="userSpaceOnUse">
<stop offset="1.5e-07" stop-color="#EFF6FF"/>
<stop offset="1" stop-color="#C4D8FB"/>
</linearGradient>
<linearGradient id="paint31_linear_9_2643" x1="1087.52" y1="252.065" x2="1087.52" y2="212.295" gradientUnits="userSpaceOnUse">
<stop stop-color="#FB6B14"/>
<stop offset="1" stop-color="#FDB522"/>
</linearGradient>
<linearGradient id="paint32_linear_9_2643" x1="1083.49" y1="208.135" x2="1088.09" y2="208.135" gradientUnits="userSpaceOnUse">
<stop offset="2.5e-07" stop-color="#EFF6FF"/>
<stop offset="1" stop-color="#8AA8DA"/>
</linearGradient>
<linearGradient id="paint33_linear_9_2643" x1="691.895" y1="268.656" x2="850.643" y2="268.656" gradientUnits="userSpaceOnUse">
<stop offset="1.5e-07" stop-color="#EFF6FF"/>
<stop offset="1" stop-color="#C4D8FB"/>
</linearGradient>
<linearGradient id="paint34_linear_9_2643" x1="849.534" y1="142.917" x2="1011.25" y2="142.917" gradientUnits="userSpaceOnUse">
<stop offset="1.5e-07" stop-color="#EFF6FF"/>
<stop offset="1" stop-color="#C4D8FB"/>
</linearGradient>
<linearGradient id="paint35_linear_9_2643" x1="925.707" y1="78.6569" x2="915.361" y2="258.653" gradientUnits="userSpaceOnUse">
<stop offset="2.5e-07" stop-color="#EFF6FF"/>
<stop offset="1" stop-color="#8AA8DA"/>
</linearGradient>
<linearGradient id="paint36_linear_9_2643" x1="850.643" y1="135.028" x2="976.01" y2="135.028" gradientUnits="userSpaceOnUse">
<stop offset="1.5e-07" stop-color="#EFF6FF"/>
<stop offset="1" stop-color="#C4D8FB"/>
</linearGradient>
<linearGradient id="paint37_linear_9_2643" x1="1011.03" y1="80.4488" x2="1003.97" y2="217.836" gradientUnits="userSpaceOnUse">
<stop offset="2.5e-07" stop-color="#EFF6FF"/>
<stop offset="1" stop-color="#8AA8DA"/>
</linearGradient>
<linearGradient id="paint38_linear_9_2643" x1="792.871" y1="417.31" x2="792.871" y2="334.569" gradientUnits="userSpaceOnUse">
<stop stop-color="#FB6B14"/>
<stop offset="1" stop-color="#FDB522"/>
</linearGradient>
<linearGradient id="paint39_linear_9_2643" x1="708.821" y1="435.66" x2="743.624" y2="435.66" gradientUnits="userSpaceOnUse">
<stop offset="1.5e-07" stop-color="#EFF6FF"/>
<stop offset="1" stop-color="#C4D8FB"/>
</linearGradient>
<linearGradient id="paint40_linear_9_2643" x1="785.115" y1="438.236" x2="820.323" y2="438.236" gradientUnits="userSpaceOnUse">
<stop offset="1.5e-07" stop-color="#EFF6FF"/>
<stop offset="1" stop-color="#C4D8FB"/>
</linearGradient>
<linearGradient id="paint41_linear_9_2643" x1="822.199" y1="376.855" x2="822.199" y2="334.868" gradientUnits="userSpaceOnUse">
<stop stop-color="#FB6B14"/>
<stop offset="1" stop-color="#FDB522"/>
</linearGradient>
</defs>
</svg>
