<svg width="103" height="54" viewBox="0 0 103 54" fill="none" xmlns="http://www.w3.org/2000/svg">
<g id="Group">
<g id="Group_2">
<g id="Group_3">
<g id="Group_4">
<g id="Group_5">
<g id="Group_6">
<g id="Group_7">
<path id="Vector" d="M81.1018 24.4586C81.1018 26.6572 80.277 28.5809 78.9024 30.2298C77.5278 31.6039 75.8783 32.4283 74.2287 32.4283H73.9538H27.767V16.2141H74.2287C78.3525 16.4889 81.1018 20.0616 81.1018 24.4586Z" fill="#FEA07D"/>
</g>
</g>
</g>
</g>
</g>
<g id="Group_8">
<g id="Group_9">
<g id="Group_10">
<g id="Group_11">
<path id="Vector_2" fill-rule="evenodd" clip-rule="evenodd" d="M4.67365 30.7794C7.9727 30.7794 10.447 27.7565 10.447 24.1838C10.447 21.1608 8.24762 18.4127 5.49841 17.863H31.8909C34.915 18.1379 37.3893 20.886 37.3893 24.4586C37.3893 28.0313 34.915 31.0543 31.6159 31.0543L4.67365 30.7794Z" fill="#F1EBFF"/>
</g>
</g>
</g>
</g>
<g id="Group_12">
<g id="Group_13">
<g id="Group_14">
<g id="Group_15">
<g id="Group_16">
<path id="Vector_3" d="M31.6159 29.4054C32.7156 29.4054 33.8153 28.8558 34.915 28.0313C35.7398 27.2069 36.2896 25.8328 36.2896 24.4587C36.2896 21.7105 34.3652 19.512 32.1658 19.512H2.19936V16.489H31.8909C35.7398 16.7638 38.489 20.3365 38.489 24.4587C38.489 26.6572 37.6642 28.581 36.2896 30.2299C34.915 31.604 33.2655 32.7032 31.341 32.7032H1.92444V29.6802L31.6159 29.4054Z" fill="#F86761"/>
</g>
</g>
</g>
</g>
</g>
<path id="Vector_4" d="M49.2109 24.4585L45.9119 27.4815L42.6128 24.4585L45.9119 21.4355L49.2109 24.4585Z" fill="#F86761"/>
</g>
<g id="Group_17">
<g id="Group_18">
<g id="Group_19">
<g id="Group_20">
<g id="Group_21">
<g id="Group_22">
<path id="Vector_5" d="M94.0231 8.24451C94.0231 10.4431 93.1983 12.3668 91.8237 14.0157C90.4491 15.3898 88.7996 16.2142 87.1501 16.2142H86.8751H40.6884V0H87.1501C90.999 0.549634 94.0231 4.12226 94.0231 8.24451Z" fill="#4B66BA"/>
</g>
</g>
</g>
</g>
</g>
<g id="Group_23">
<g id="Group_24">
<g id="Group_25">
<g id="Group_26">
<path id="Vector_6" fill-rule="evenodd" clip-rule="evenodd" d="M17.595 14.8402C20.894 14.8402 23.3683 11.8172 23.3683 8.24462C23.3683 4.94682 21.1689 2.19865 18.4197 1.92383H44.8122C47.8363 2.19865 50.3106 4.94682 50.3106 8.51944C50.3106 12.0921 47.8363 15.1151 44.5373 15.1151L17.595 14.8402Z" fill="#F1EBFF"/>
</g>
</g>
</g>
</g>
<g id="Group_27">
<g id="Group_28">
<g id="Group_29">
<g id="Group_30">
<g id="Group_31">
<path id="Vector_7" d="M44.5372 13.466C45.6369 13.466 46.7366 12.9163 47.8363 12.0919C48.6611 11.2674 49.2109 9.89334 49.2109 8.51926C49.2109 5.77109 47.2865 3.57255 45.0871 3.57255H15.3956V0.549561H45.0871C48.936 0.824378 51.6852 4.397 51.6852 8.51926C51.6852 10.7178 50.8604 12.6415 49.4858 14.2904C48.1112 15.6645 46.4617 16.7638 44.5372 16.7638H15.1207V13.7408L44.5372 13.466Z" fill="#4B66BA"/>
</g>
</g>
</g>
</g>
</g>
<path id="Vector_8" d="M62.1322 8.24451L58.8331 11.2675L55.5341 8.24451L58.8331 5.49634L62.1322 8.24451Z" fill="#4B66BA"/>
</g>
<g id="Group_32">
<g id="Group_33">
<g id="Group_34">
<g id="Group_35">
<g id="Group_36">
<g id="Group_37">
<path id="Vector_9" d="M7.97272 32.4285C3.57398 32.7033 0 36.2759 0 40.673C0 42.8715 0.824764 44.7952 2.47429 46.4441C4.12382 47.8182 6.04827 48.9175 8.52256 48.9175H67.9056V32.7033L7.97272 32.4285Z" fill="#7D66DD"/>
</g>
</g>
</g>
</g>
</g>
<g id="Group_38">
<g id="Group_39">
<g id="Group_40">
<g id="Group_41">
<path id="Vector_10" fill-rule="evenodd" clip-rule="evenodd" d="M100.071 46.9937H87.15H84.4008H78.9024H67.6306H63.2319C59.383 46.9937 56.3589 43.9707 56.3589 40.3981C56.3589 36.8255 59.1081 34.0773 62.682 33.8025H67.3557H86.8751H98.4218C97.0472 34.0773 95.9475 34.6269 94.8478 35.4514C93.4732 36.5507 92.3735 38.4744 92.3735 40.3981C92.3735 42.3218 93.4732 44.2455 94.8478 45.3448C96.7723 46.4441 98.1469 46.9937 100.071 46.9937Z" fill="#F1EBFF"/>
</g>
</g>
</g>
</g>
<g id="Group_42">
<g id="Group_43">
<g id="Group_44">
<g id="Group_45">
<g id="Group_46">
<path id="Vector_11" d="M102.821 48.6428H91.8237H84.1259H78.6275H62.957C62.6821 48.6428 62.4071 48.6428 62.1322 48.6428C61.8573 48.6428 61.5824 48.6428 61.5824 48.6428C59.9328 48.3679 58.2833 47.5435 56.9087 46.4442C55.2592 44.7953 54.4344 42.8716 54.4344 40.6731C54.4344 36.276 58.0084 32.7034 62.4071 32.7034H67.0808H102.271V35.7264H94.8479H86.6002H67.0808H62.4071C59.6579 36.0012 57.4586 38.1997 57.4586 40.6731C57.4586 42.0472 58.0084 43.1464 59.1081 44.2457C60.2078 45.0701 61.5824 45.6198 62.957 45.6198H67.3557H78.6275H84.1259H88.7996H95.3977H102.546L102.821 48.6428Z" fill="#5E4CCC"/>
</g>
</g>
</g>
</g>
</g>
<g id="Group_47">
<g id="Group_48">
<g id="Group_49">
<g id="Group_50">
<g id="Group_51">
<g id="Group_52">
<path id="Vector_12" fill-rule="evenodd" clip-rule="evenodd" d="M78.9024 53.5893L81.6516 51.116L84.4008 53.5893V38.4744H78.9024V53.5893Z" fill="#4B66BA"/>
</g>
</g>
</g>
</g>
</g>
</g>
<path id="Vector_13" d="M42.6128 40.6729L46.4617 43.4211L50.3106 40.6729L46.4617 37.6499L42.6128 40.6729Z" fill="#5E4CCC"/>
</g>
</g>
</svg>
