<svg width="25" height="23" viewBox="0 0 25 23" fill="none" xmlns="http://www.w3.org/2000/svg">
<g id="users 2" clip-path="url(#clip0_9_3621)">
<path id="Vector" d="M3.74839 10.0694C5.11508 10.0694 6.22624 8.86561 6.22624 7.38503C6.22624 5.90445 5.11508 4.70069 3.74839 4.70069C2.3817 4.70069 1.27054 5.90445 1.27054 7.38503C1.27054 8.86561 2.3817 10.0694 3.74839 10.0694ZM21.0933 10.0694C22.46 10.0694 23.5712 8.86561 23.5712 7.38503C23.5712 5.90445 22.46 4.70069 21.0933 4.70069C19.7266 4.70069 18.6155 5.90445 18.6155 7.38503C18.6155 8.86561 19.7266 10.0694 21.0933 10.0694ZM22.3322 11.4115H19.8544C19.173 11.4115 18.5574 11.7093 18.1083 12.1917C19.6686 13.1186 20.7759 14.7921 21.0159 16.7802H23.5712C24.2565 16.7802 24.8101 16.1804 24.8101 15.438V14.0959C24.8101 12.6153 23.6989 11.4115 22.3322 11.4115ZM12.4209 11.4115C14.8174 11.4115 16.7571 9.3102 16.7571 6.71394C16.7571 4.11769 14.8174 2.01636 12.4209 2.01636C10.0243 2.01636 8.08462 4.11769 8.08462 6.71394C8.08462 9.3102 10.0243 11.4115 12.4209 11.4115ZM15.3943 12.7537H15.0729C14.2676 13.1731 13.3733 13.4248 12.4209 13.4248C11.4684 13.4248 10.578 13.1731 9.76878 12.7537H9.44744C6.98508 12.7537 4.98731 14.9179 4.98731 17.5855V18.7935C4.98731 19.9049 5.81971 20.8067 6.8457 20.8067H17.996C19.022 20.8067 19.8544 19.9049 19.8544 18.7935V17.5855C19.8544 14.9179 17.8566 12.7537 15.3943 12.7537ZM6.73342 12.1917C6.28431 11.7093 5.66872 11.4115 4.98731 11.4115H2.50946C1.14278 11.4115 0.0316162 12.6153 0.0316162 14.0959V15.438C0.0316162 16.1804 0.58526 16.7802 1.27054 16.7802H3.82195C4.06586 14.7921 5.17315 13.1186 6.73342 12.1917Z" fill="#093C5F"/>
</g>
<defs>
<clipPath id="clip0_9_3621">
<rect width="24.7785" height="21.4747" fill="white" transform="translate(0.0316162 0.674072)"/>
</clipPath>
</defs>
</svg>
