<svg width="46" height="47" viewBox="0 0 46 47" fill="none" xmlns="http://www.w3.org/2000/svg">
<g id="clarity:library-line">
<path id="Vector" d="M42.7879 38.147L34.3056 15.733C34.1883 15.4239 34.0112 15.1409 33.7846 14.9003C33.5579 14.6596 33.286 14.466 32.9845 14.3304C32.683 14.1949 32.3577 14.12 32.0273 14.1102C31.6968 14.1004 31.3677 14.1557 31.0586 14.2731L27.0818 15.7707V12.0833C27.0818 11.4424 26.8272 10.8278 26.374 10.3747C25.9209 9.92154 25.3063 9.66696 24.6654 9.66696H18.2722V7.04927C18.2722 6.40842 18.0176 5.79381 17.5645 5.34066C17.1113 4.88751 16.4967 4.63293 15.8559 4.63293H6.94566C6.27811 4.63293 5.6379 4.89812 5.16587 5.37015C4.69383 5.84218 4.42865 6.48239 4.42865 7.14995V41.1296C4.42865 41.4634 4.56124 41.7835 4.79726 42.0195C5.03327 42.2555 5.35338 42.3881 5.68716 42.3881H25.8233C26.157 42.3881 26.4771 42.2555 26.7132 42.0195C26.9492 41.7835 27.0818 41.4634 27.0818 41.1296V25.1088L33.3743 41.7337C33.433 41.8882 33.5215 42.0297 33.6348 42.15C33.7481 42.2704 33.8841 42.3672 34.0348 42.435C34.1856 42.5027 34.3482 42.5402 34.5135 42.5451C34.6787 42.55 34.8432 42.5223 34.9978 42.4636L42.058 39.7704C42.2125 39.7118 42.354 39.6233 42.4743 39.5099C42.5947 39.3966 42.6915 39.2607 42.7593 39.1099C42.827 38.9591 42.8645 38.7965 42.8694 38.6313C42.8743 38.4661 42.8466 38.3015 42.7879 38.147ZM15.7552 11.97V39.8711H6.94566V7.14995H15.7552V11.97ZM24.5648 39.8711H18.2722V12.184H24.5648V39.8711ZM35.2746 39.5565L27.2454 18.3758L31.9522 16.5887L39.994 37.7694L35.2746 39.5565Z" fill="#21386D"/>
</g>
</svg>
