<svg width="829" height="572" viewBox="0 0 829 572" fill="none" xmlns="http://www.w3.org/2000/svg">
<g clip-path="url(#clip0_9_3015)">
<path d="M555.428 425.861C342.497 425.861 69.8051 439.421 69.8051 455.993C69.8051 467.041 147.645 476.583 263.15 482.107C104.457 487.129 0 496.671 0 507.217C0 519.27 134.086 529.313 328.938 534.335C319.396 536.846 314.374 539.86 314.374 542.371C314.374 558.943 487.129 572.502 700.06 572.502C1065.66 572.502 1299.18 524.292 1299.18 491.649C1298.68 449.967 1132.45 425.861 555.428 425.861Z" fill="url(#paint0_linear_9_3015)"/>
<path d="M381.668 457.499C376.144 456.997 370.62 455.993 365.598 455.49C365.598 452.477 364.091 439.922 364.091 438.416C363.589 435.403 362.585 431.887 360.074 431.385C357.563 430.883 355.052 432.892 354.55 435.905C353.545 438.918 354.55 441.931 355.554 444.442C356.056 445.949 359.572 451.975 362.585 454.988C357.061 454.486 351.536 453.482 346.012 452.477C345.51 450.971 344.506 448.962 344.506 446.953C344.003 443.94 344.506 440.927 343.501 437.914C342.999 434.9 341.493 431.887 338.479 431.385C335.466 430.883 332.955 434.901 332.955 438.416C332.955 441.931 334.964 445.447 336.973 447.958C337.475 448.962 338.479 449.966 339.484 450.971C338.982 450.971 338.479 450.971 337.977 450.469C335.466 449.966 332.955 449.464 330.444 448.962C329.942 444.944 326.929 439.922 325.924 435.905C324.92 431.887 323.916 427.87 321.405 425.359C318.894 422.346 314.374 421.843 312.365 424.857C310.356 427.87 311.361 431.887 312.867 434.9C314.876 438.416 318.894 443.438 323.413 446.953C318.392 445.447 313.37 443.94 307.845 442.433C304.832 436.407 306.339 425.861 302.321 419.835C300.313 417.324 296.295 414.813 293.784 417.324C291.775 419.332 293.282 424.354 293.784 426.865C294.788 431.385 297.802 435.905 301.317 439.922C299.308 439.42 297.299 438.416 295.291 437.914C292.78 436.909 290.269 435.905 287.758 434.9C286.753 432.39 285.247 428.372 284.744 423.852C283.74 418.328 283.74 412.302 278.216 409.791C273.194 407.782 265.159 409.289 268.172 417.324C269.679 421.843 274.198 427.368 279.22 431.385C274.198 429.376 269.679 427.368 264.657 425.359C263.652 421.341 262.146 418.328 262.146 411.8C262.146 406.778 263.652 399.747 259.133 396.734C253.608 393.721 248.586 398.24 250.093 405.271C251.097 411.8 256.622 417.324 260.639 421.843C261.141 422.346 262.146 423.35 263.15 424.354C260.137 423.35 257.626 421.843 254.613 420.337C252.604 419.332 250.595 418.83 249.089 417.826C248.586 416.319 247.08 412.804 246.075 408.786C245.071 404.267 246.075 401.253 241.556 398.742C237.538 396.232 232.014 396.734 233.521 403.262C234.525 408.786 239.045 412.302 243.565 415.315C237.538 412.804 231.512 410.293 225.486 409.289C212.931 396.232 189.83 397.738 176.27 406.275C174.764 407.28 173.759 408.284 172.755 409.791C171.248 413.306 174.262 417.324 177.275 418.328C181.292 420.337 186.314 419.835 190.834 418.328C195.354 416.822 199.371 414.813 203.891 412.804C207.406 411.297 210.922 410.795 214.939 410.293C221.468 410.293 227.494 411.8 233.521 414.311C229.503 414.311 224.481 415.817 222.472 416.319C216.948 417.826 211.424 421.341 207.909 426.865C207.406 427.87 206.402 428.874 206.904 430.381C207.406 431.887 208.913 432.892 209.917 432.892C214.437 433.896 219.459 432.892 223.979 429.879C229.001 425.861 233.018 420.337 238.543 416.319C242.058 417.826 245.573 419.332 249.089 421.341C244.067 422.346 238.543 424.857 236.032 426.865C234.023 428.372 232.516 429.879 231.512 432.39C230.507 434.9 231.01 437.914 232.516 439.42C233.521 440.425 235.027 440.927 236.032 440.927C240.049 440.927 243.565 437.914 247.08 434.398C250.093 431.385 253.608 428.372 256.622 424.857C257.124 424.857 257.626 425.359 257.626 425.359C263.652 428.372 269.679 430.883 275.705 433.394C272.19 433.394 268.172 433.394 264.657 434.398C257.626 435.403 250.093 438.416 244.569 443.94C242.058 445.949 240.049 448.46 239.547 451.975C239.045 453.482 239.045 454.988 240.049 455.993C240.551 456.495 241.054 456.997 241.556 456.997C245.573 458.001 249.591 456.495 253.106 454.486C258.63 450.971 263.15 445.949 268.172 441.429C271.185 438.918 274.198 435.905 277.714 434.9C284.242 437.411 290.269 439.922 296.797 442.433C289.766 441.931 281.731 443.94 276.207 445.447C270.683 446.953 264.657 450.469 263.15 456.997C263.15 458.001 262.648 459.006 263.15 460.01C263.652 463.023 266.665 464.53 269.176 464.53C272.692 464.53 275.705 462.521 278.216 460.01C280.727 457.499 283.238 454.486 285.749 452.477C290.269 447.958 295.793 445.949 301.317 443.94C306.339 445.447 311.361 447.455 316.383 448.962C312.867 449.464 309.854 450.469 307.845 450.971C302.321 452.98 296.797 455.993 292.78 460.512C291.273 462.019 289.766 464.028 290.269 466.539C290.269 467.041 290.771 467.543 290.771 468.045H306.339C307.845 466.539 309.352 465.032 310.356 463.023C312.365 460.512 314.374 458.001 316.383 455.49C317.889 453.482 319.396 451.975 321.405 450.469C326.929 451.975 332.453 453.482 338.479 454.486C335.968 454.988 333.96 455.491 331.449 455.993C326.427 457.499 321.405 460.512 317.889 465.032C317.387 465.534 316.885 466.539 316.383 467.543H330.946C331.449 466.539 331.951 465.534 332.453 464.53C333.457 462.521 333.96 461.015 335.466 459.508C336.973 457.499 338.982 456.495 340.99 455.49C341.493 455.49 341.995 454.988 341.995 454.988C346.514 455.993 351.034 456.495 355.554 457.499C351.034 459.508 346.514 463.023 344.003 467.543H355.554C356.056 466.037 356.558 464.53 357.061 463.526C358.065 461.517 360.074 460.01 361.078 458.504C368.109 459.508 375.642 459.508 382.672 459.006C383.677 461.015 383.677 457.499 381.668 457.499Z" fill="#42445D"/>
<path d="M220.464 238.543C333.96 286.251 260.639 413.809 353.043 469.552H433.394C434.901 466.037 350.532 255.617 220.464 238.543Z" fill="url(#paint1_linear_9_3015)"/>
<path d="M377.148 440.927C373.131 437.914 367.607 437.914 364.091 435.403C358.567 431.888 355.554 421.844 351.034 416.32C343.501 406.276 334.462 397.739 323.413 392.214C315.881 388.699 306.841 387.695 302.823 380.664C298.304 373.131 295.793 365.096 289.766 358.567C286.753 355.052 282.736 352.039 278.718 350.03C274.198 348.021 270.181 350.03 266.665 349.026C261.644 347.519 259.133 341.493 254.613 337.977C248.586 333.458 238.04 328.938 230.507 331.951C233.018 338.982 235.529 347.017 240.049 352.541C244.067 358.065 251.6 360.074 253.106 366.602C254.111 370.118 253.106 373.131 255.115 377.149C257.626 383.175 260.137 389.201 264.657 393.721C270.683 400.752 278.216 402.258 284.744 407.782C288.762 411.298 287.758 414.311 289.264 419.333C291.775 426.364 296.797 434.399 301.819 439.421C308.85 446.451 316.885 445.949 325.422 448.46C330.444 449.967 328.938 450.971 332.453 455.993C336.973 461.517 345.51 466.037 354.55 469.552H386.69C389.703 465.535 390.708 460.513 387.192 454.487C385.183 449.465 381.668 444.443 377.148 440.927Z" fill="#4B66BA"/>
<path d="M455.993 331.951C448.962 343.502 444.945 354.55 441.931 367.607C441.429 364.091 441.931 360.576 441.429 357.061C440.927 352.039 439.42 347.017 438.416 341.995C431.385 350.03 429.377 363.087 426.866 373.131C423.852 386.69 421.844 400.752 419.835 414.813C417.324 430.381 418.328 447.456 420.839 463.024C421.341 465.033 421.341 467.544 421.844 470.055H446.953C449.464 463.024 450.469 455.491 451.975 450.971C459.006 428.372 465.032 406.778 468.046 383.175C470.054 367.607 472.063 352.541 474.072 336.973C475.578 325.925 476.583 312.868 475.076 301.819C466.539 308.85 461.517 322.409 455.993 331.951Z" fill="#4B66BA"/>
<path d="M444.442 420.337C433.896 422.848 423.852 435.905 419.835 448.46C418.328 441.932 416.822 434.901 415.315 427.87C420.839 419.333 433.896 417.826 438.416 407.28C443.438 396.232 433.394 388.197 423.852 396.232C419.333 400.25 415.315 410.796 413.306 419.333C412.302 414.311 411.298 407.782 410.293 402.76C409.289 398.743 408.787 394.223 407.782 390.206C414.813 382.673 432.39 378.153 430.883 364.091C429.377 354.048 418.328 350.03 412.804 360.074C409.791 365.096 407.28 373.131 405.773 380.664C403.765 372.629 401.756 365.096 399.245 357.563C406.276 348.021 427.87 344.506 428.372 329.942C428.874 317.89 413.809 319.396 407.782 326.929C401.254 334.462 399.747 345.008 398.743 355.052C396.734 349.528 394.725 344.004 392.716 338.48C397.738 329.44 410.795 320.903 410.795 308.85C410.795 296.797 398.241 287.256 390.708 301.317C386.69 308.85 387.192 318.392 388.197 327.933C385.686 321.907 382.672 315.881 379.157 310.357C379.659 306.339 380.664 301.317 382.672 296.295C384.681 290.269 388.699 284.243 386.188 278.216C382.17 267.67 375.642 275.203 373.633 283.74C372.126 289.767 373.131 296.295 374.637 302.322C371.122 295.793 365.096 286.251 361.078 280.225C361.58 268.172 383.175 239.547 363.087 243.565C353.545 245.574 354.55 265.159 357.563 276.207C355.052 272.692 349.528 265.661 349.025 265.159C350.03 255.115 358.567 222.975 344.506 224.984C333.457 226.49 338.479 244.569 341.493 253.106C341.995 254.111 342.497 255.617 342.999 257.626C338.982 252.604 334.964 248.084 330.444 243.565C331.449 240.049 332.955 234.525 333.457 229.503C333.457 225.988 332.955 210.922 325.422 217.953C322.409 220.966 323.916 231.512 326.427 238.543C323.413 235.53 319.898 232.014 316.383 229.001C295.793 204.896 299.308 166.227 278.718 175.266C254.613 186.315 279.22 219.459 309.854 227.494C313.37 231.01 327.431 246.578 328.938 248.587C315.378 239.045 288.762 219.459 284.242 235.53C280.225 249.591 318.392 249.089 331.951 252.102C336.973 258.128 349.528 274.701 350.532 276.207C344.506 272.19 338.479 265.661 331.449 263.653C324.92 262.146 311.361 262.648 313.37 270.683C316.383 282.234 333.457 279.221 341.995 279.221C348.523 279.221 351.536 281.229 353.043 280.225C358.567 288.762 364.091 297.3 369.113 306.339C359.572 296.295 334.964 276.71 329.44 292.278C322.409 312.365 357.061 303.828 370.62 308.348C375.642 317.387 380.162 326.929 384.179 336.471C384.179 336.471 384.179 336.471 384.179 336.973C377.651 328.938 372.126 320.401 362.082 315.881C353.043 311.361 338.982 311.863 342.999 326.929C346.012 337.977 365.598 334.964 375.642 337.977C380.162 339.484 383.677 341.493 386.188 342.497C389.703 351.537 392.716 360.576 395.227 370.118C376.144 361.078 354.55 325.422 345.51 346.515C337.475 365.096 375.14 359.07 396.232 373.633C398.241 382.171 400.249 390.708 402.258 399.747C398.743 393.219 393.219 387.695 388.699 382.171C385.183 378.153 368.109 367.607 364.593 379.66C361.078 391.712 382.672 395.228 389.703 397.236C396.232 398.743 400.249 402.258 403.765 406.276C404.267 407.782 407.782 427.87 409.289 436.408C401.756 423.35 355.554 379.157 349.528 411.298C346.012 431.888 386.69 425.861 397.236 429.879C404.267 432.892 407.782 435.905 409.791 439.923C410.795 444.945 411.8 449.465 413.306 454.487C402.258 443.438 376.646 422.848 371.624 444.443C365.598 470.055 396.232 455.993 403.262 457.5C409.289 459.006 415.817 459.509 417.324 466.539C417.826 468.046 418.328 469.552 418.831 471.059H426.866C425.359 466.037 423.852 461.517 422.346 456.495C429.879 448.46 450.469 443.438 454.989 436.91C461.517 426.364 455.993 417.324 444.442 420.337Z" fill="url(#paint2_linear_9_3015)"/>
<path d="M1129.44 0H378.655V431.888H1129.44V0Z" fill="#FFB725"/>
<path d="M635.277 415.817H619.708V461.015H635.277V415.817Z" fill="#FFB725"/>
<path d="M888.885 450.971H619.708V466.539H888.885V450.971Z" fill="#FFB725"/>
<path d="M1113.87 15.5679H394.223V415.817H1113.87V15.5679Z" fill="#42445D"/>
<path d="M872.815 415.817H634.774V450.971H872.815V415.817Z" fill="url(#paint3_linear_9_3015)"/>
<path d="M728.685 436.91H655.364C651.347 436.91 648.334 439.923 648.334 443.94V444.443C648.334 448.46 651.347 451.473 655.364 451.473H728.685C732.702 451.473 735.716 448.46 735.716 444.443V443.94C735.716 440.425 732.702 436.91 728.685 436.91Z" fill="white"/>
<path d="M833.644 436.91H802.005V451.473H833.644C837.661 451.473 840.674 448.46 840.674 444.443C841.176 440.425 837.661 436.91 833.644 436.91Z" fill="white"/>
<path d="M566.476 132.078L444.442 59.2593C443.94 59.2593 443.94 59.2593 443.438 59.2593C442.936 59.2593 442.434 59.7615 442.434 60.2637L440.927 133.584C440.927 134.086 440.927 134.086 441.429 134.589C441.429 134.589 441.931 135.091 442.434 135.091H468.046L468.548 135.593C469.05 135.593 469.05 135.593 469.05 135.091L566.476 134.589H566.978L567.48 134.086C567.48 133.082 566.978 132.58 566.476 132.078ZM444.442 132.58L447.456 129.064C447.958 128.562 447.958 128.06 447.456 127.558C446.953 127.056 446.451 127.056 445.949 127.558L442.936 131.073L443.438 105.461H465.535L466.539 132.58H444.442ZM468.548 132.58L467.543 104.457C467.543 103.955 467.041 103.452 466.539 103.452H466.037V102.95H443.438L444.442 62.2724L482.107 84.369L479.094 87.3822C478.592 87.8844 478.592 88.3866 479.094 88.8888C479.094 88.8888 479.596 89.391 480.098 89.391C480.6 89.391 480.601 89.391 481.103 88.8888L484.618 85.3734C484.618 85.3734 484.618 85.3734 484.618 84.8712L562.458 131.073L468.548 132.58Z" fill="white"/>
<path d="M450.971 121.029L448.46 123.038C447.958 123.54 447.958 124.042 448.46 124.544C448.46 125.047 448.962 125.047 449.464 125.047C449.967 125.047 449.967 125.047 449.967 124.544L452.478 122.536C452.98 122.033 452.98 121.531 452.478 121.029C452.478 120.527 451.473 120.527 450.971 121.029Z" fill="white"/>
<path d="M456.997 113.998L454.989 116.509C454.486 117.011 454.486 118.016 454.989 118.016L455.491 118.518C455.993 118.518 455.993 118.518 456.495 118.016L458.504 115.505C459.006 115.003 459.006 113.998 458.504 113.998C458.002 113.496 457.5 113.496 456.997 113.998Z" fill="white"/>
<path d="M462.521 106.968L461.015 108.977C460.513 109.479 460.513 110.483 461.015 110.483H461.517C462.019 110.483 462.019 110.483 462.521 109.981L464.028 107.972C464.53 107.47 464.53 106.466 464.028 106.466C463.526 106.466 463.024 106.466 462.521 106.968Z" fill="white"/>
<path d="M470.557 97.928C470.054 97.4258 469.05 97.928 469.05 98.4302L467.543 100.941C467.041 101.443 467.543 102.448 468.046 102.448H468.548C469.05 102.448 469.552 102.448 469.552 101.946L471.059 99.4346C471.561 99.4346 471.561 98.4302 470.557 97.928Z" fill="white"/>
<path d="M476.081 91.3994L474.072 93.4081C473.57 93.9103 473.57 94.4125 474.072 94.9147C474.072 94.9147 474.574 95.4169 475.076 95.4169C475.579 95.4169 475.579 95.4169 476.081 94.9147L478.089 92.9059C478.592 92.4037 478.592 91.9015 478.089 91.3994C477.085 90.8972 476.583 90.8972 476.081 91.3994Z" fill="white"/>
<path d="M522.785 79.8491L516.256 85.8755L512.741 80.3513C512.239 79.8491 511.736 79.8491 511.234 79.8491C510.732 80.3513 510.732 80.8535 510.732 81.3557L514.247 86.8798L508.723 91.9018C508.221 92.404 508.221 92.9062 508.723 93.4084C508.723 93.9106 509.226 93.9106 509.728 93.9106C510.23 93.9106 510.23 93.9106 510.732 93.4084L516.256 88.3864L520.776 94.915C520.776 95.4172 521.278 95.4172 521.78 95.4172H522.283C522.785 94.915 522.785 94.4128 522.785 93.9106L518.265 86.8798L524.794 80.8535C525.296 80.3513 525.296 79.8491 524.794 79.3469C524.291 79.3469 523.287 79.3469 522.785 79.8491Z" fill="white"/>
<path d="M498.68 52.7307C496.169 54.2372 493.658 56.246 491.147 58.2548L486.627 52.7307C486.125 52.2285 485.622 52.2285 485.12 52.7307C484.618 53.2328 484.618 53.735 485.12 54.2372L489.64 59.7614C489.138 60.2636 488.636 60.7658 487.631 61.268C484.618 64.2811 484.618 66.2899 485.12 67.7965C485.12 68.2987 485.623 68.2987 486.125 68.2987H486.627C487.129 67.7965 487.631 67.2943 487.129 66.7921C486.627 65.2855 488.133 63.7789 489.138 62.7745C489.64 62.2724 490.142 61.7702 490.644 61.268L495.164 66.7921C495.164 67.2943 495.666 67.2943 496.169 67.2943C496.671 67.2943 496.671 67.2943 496.671 66.7921C497.173 66.2899 497.173 65.7877 496.671 65.2855L492.151 59.7614C494.662 57.7526 496.671 56.246 499.182 54.7394C499.684 54.2372 499.684 53.735 499.684 53.2328C500.186 52.7307 499.182 52.2285 498.68 52.7307Z" fill="white"/>
<path d="M567.48 178.781H462.019C461.517 178.781 460.513 179.785 460.513 181.292C460.513 182.799 461.015 183.803 462.019 183.803H567.48C567.982 183.803 568.987 182.799 568.987 181.292C568.485 180.288 567.982 178.781 567.48 178.781Z" fill="url(#paint4_linear_9_3015)"/>
<path d="M455.491 168.737H441.429C440.927 168.737 439.923 169.742 439.923 171.248C439.923 172.755 440.425 173.759 441.429 173.759H455.491C455.993 173.759 456.997 172.755 456.997 171.248C456.997 170.244 455.993 168.737 455.491 168.737Z" fill="url(#paint5_linear_9_3015)"/>
<path d="M487.129 168.737H462.019C461.517 168.737 460.513 169.742 460.513 171.248C460.513 172.755 461.015 173.759 462.019 173.759H487.129C487.631 173.759 488.636 172.755 488.636 171.248C488.636 170.244 488.133 168.737 487.129 168.737Z" fill="url(#paint6_linear_9_3015)"/>
<path d="M528.811 168.737H492.151C491.649 168.737 490.644 169.742 490.644 171.248C490.644 172.755 491.146 173.759 492.151 173.759H528.811C529.313 173.759 530.318 172.755 530.318 171.248C530.318 170.244 529.816 168.737 528.811 168.737Z" fill="url(#paint7_linear_9_3015)"/>
<path d="M455.491 197.865H441.429C440.927 197.865 439.923 198.869 439.923 200.376C439.923 201.882 440.425 202.887 441.429 202.887H455.491C455.993 202.887 456.997 201.882 456.997 200.376C456.997 199.371 455.993 197.865 455.491 197.865Z" fill="url(#paint8_linear_9_3015)"/>
<path d="M579.031 197.865H461.015C460.513 197.865 460.513 198.367 460.513 198.367V201.882C460.513 202.384 461.015 202.384 461.015 202.384H578.528C579.031 202.384 579.031 201.882 579.031 201.882V198.367C579.533 198.367 579.031 197.865 579.031 197.865Z" fill="url(#paint9_linear_9_3015)"/>
<path d="M455.491 159.698H441.429C440.927 159.698 439.923 160.702 439.923 162.209C439.923 163.716 440.425 164.72 441.429 164.72H455.491C455.993 164.72 456.997 163.716 456.997 162.209C456.997 160.702 455.993 159.698 455.491 159.698Z" fill="url(#paint10_linear_9_3015)"/>
<path d="M586.564 159.698H517.261C516.758 159.698 515.754 160.702 515.754 162.209C515.754 163.716 516.256 164.72 517.261 164.72H587.066C587.568 164.72 588.572 163.716 588.572 162.209C588.07 160.702 587.568 159.698 586.564 159.698Z" fill="url(#paint11_linear_9_3015)"/>
<path d="M494.662 159.698H462.019C461.517 159.698 460.513 160.702 460.513 162.209C460.513 163.716 461.015 164.72 462.019 164.72H494.662C495.164 164.72 496.169 163.716 496.169 162.209C496.169 160.702 495.666 159.698 494.662 159.698Z" fill="url(#paint12_linear_9_3015)"/>
<path d="M512.239 159.698H499.182C498.679 159.698 497.675 160.702 497.675 162.209C497.675 163.716 498.177 164.72 499.182 164.72H512.239C512.741 164.72 513.745 163.716 513.745 162.209C513.745 160.702 513.243 159.698 512.239 159.698Z" fill="url(#paint13_linear_9_3015)"/>
<path d="M584.053 187.821H516.256C515.754 187.821 515.754 188.323 515.754 188.323V191.838C515.754 192.34 516.256 192.34 516.256 192.34H584.053C584.555 192.34 584.555 191.838 584.555 191.838V188.323L584.053 187.821Z" fill="url(#paint14_linear_9_3015)"/>
<path d="M494.662 187.821H462.019C461.517 187.821 460.513 188.825 460.513 190.332C460.513 191.838 461.015 192.843 462.019 192.843H494.662C495.164 192.843 496.169 191.838 496.169 190.332C496.169 189.327 495.666 187.821 494.662 187.821Z" fill="url(#paint15_linear_9_3015)"/>
<path d="M512.239 187.821H499.182C498.679 187.821 497.675 188.825 497.675 190.332C497.675 191.838 498.177 192.843 499.182 192.843H512.239C512.741 192.843 513.745 191.838 513.745 190.332C513.745 189.327 513.243 187.821 512.239 187.821Z" fill="url(#paint16_linear_9_3015)"/>
<path d="M848.207 303.828H773.38C772.878 303.828 771.874 304.832 771.874 306.339C771.874 307.845 772.376 308.85 773.38 308.85H848.207C848.71 308.85 849.714 307.845 849.714 306.339C849.212 304.832 848.71 303.828 848.207 303.828Z" fill="url(#paint17_linear_9_3015)"/>
<path d="M766.852 293.784H752.79C752.288 293.784 751.284 294.788 751.284 296.295C751.284 297.801 751.786 298.806 752.79 298.806H766.852C767.354 298.806 768.358 297.801 768.358 296.295C767.856 294.788 767.354 293.784 766.852 293.784Z" fill="url(#paint18_linear_9_3015)"/>
<path d="M798.49 293.784H773.38C772.878 293.784 771.874 294.788 771.874 296.295C771.874 297.801 772.376 298.806 773.38 298.806H798.49C798.992 298.806 799.997 297.801 799.997 296.295C799.997 294.788 799.495 293.784 798.49 293.784Z" fill="url(#paint19_linear_9_3015)"/>
<path d="M840.172 293.784H803.512C803.01 293.784 802.005 294.788 802.005 296.295C802.005 297.801 802.508 298.806 803.512 298.806H840.172C840.674 298.806 841.679 297.801 841.679 296.295C841.679 294.788 840.674 293.784 840.172 293.784Z" fill="url(#paint20_linear_9_3015)"/>
<path d="M766.852 353.545H752.79C752.288 353.545 751.284 354.55 751.284 356.056C751.284 357.563 751.786 358.567 752.79 358.567H766.852C767.354 358.567 768.358 357.563 768.358 356.056C767.856 354.55 767.354 353.545 766.852 353.545Z" fill="url(#paint21_linear_9_3015)"/>
<path d="M859.758 353.545H772.376C771.874 353.545 771.874 354.048 771.874 354.048V357.563C771.874 358.065 772.376 358.065 772.376 358.065H859.758C860.26 358.065 860.26 357.563 860.26 357.563V354.048C860.26 353.545 860.26 353.545 859.758 353.545Z" fill="url(#paint22_linear_9_3015)"/>
<path d="M766.852 284.745H752.79C752.288 284.745 751.284 285.749 751.284 287.256C751.284 288.762 751.786 289.767 752.79 289.767H766.852C767.354 289.767 768.358 288.762 768.358 287.256C767.856 285.749 767.354 284.745 766.852 284.745Z" fill="url(#paint23_linear_9_3015)"/>
<path d="M867.793 284.745H828.622C828.12 284.745 827.115 285.749 827.115 287.256C827.115 288.762 827.617 289.767 828.622 289.767H867.793C868.295 289.767 869.3 288.762 869.3 287.256C868.797 285.749 868.295 284.745 867.793 284.745Z" fill="url(#paint24_linear_9_3015)"/>
<path d="M806.023 284.745H773.38C772.878 284.745 771.874 285.749 771.874 287.256C771.874 288.762 772.376 289.767 773.38 289.767H806.023C806.525 289.767 807.53 288.762 807.53 287.256C807.53 285.749 807.027 284.745 806.023 284.745Z" fill="url(#paint25_linear_9_3015)"/>
<path d="M823.6 284.745H810.543C810.04 284.745 809.036 285.749 809.036 287.256C809.036 288.762 809.538 289.767 810.543 289.767H823.6C824.102 289.767 825.106 288.762 825.106 287.256C825.106 285.749 824.604 284.745 823.6 284.745Z" fill="url(#paint26_linear_9_3015)"/>
<path d="M864.78 343.502H827.617C827.115 343.502 827.115 344.004 827.115 344.004V347.519C827.115 348.021 827.617 348.021 827.617 348.021H864.78C865.282 348.021 865.282 347.519 865.282 347.519V344.004C865.282 343.502 865.282 343.502 864.78 343.502Z" fill="url(#paint27_linear_9_3015)"/>
<path d="M806.023 343.502H773.38C772.878 343.502 771.874 344.506 771.874 346.013C771.874 347.519 772.376 348.524 773.38 348.524H806.023C806.525 348.524 807.53 347.519 807.53 346.013C807.53 344.506 807.027 343.502 806.023 343.502Z" fill="url(#paint28_linear_9_3015)"/>
<path d="M823.6 343.502H810.543C810.04 343.502 809.036 344.506 809.036 346.013C809.036 347.519 809.538 348.524 810.543 348.524H823.6C824.102 348.524 825.106 347.519 825.106 346.013C825.106 344.506 824.604 343.502 823.6 343.502Z" fill="url(#paint29_linear_9_3015)"/>
<path d="M725.169 360.576L610.669 360.074L612.176 358.065C612.678 357.563 612.678 356.558 612.176 356.056C611.673 355.554 610.669 355.554 610.167 356.056L608.158 358.065L608.66 293.282L612.176 293.784C612.678 293.784 613.682 293.282 613.682 292.78C613.682 292.277 613.18 291.273 612.678 291.273L608.66 290.771V245.573C608.66 244.569 608.158 244.067 607.154 244.067C606.149 244.067 605.647 244.569 605.647 245.573L605.145 360.576C605.145 361.078 605.145 361.58 605.647 361.58C605.647 362.082 605.647 362.082 606.149 362.585C606.651 362.585 606.651 363.087 607.154 363.087C607.656 363.087 607.656 363.087 607.656 362.585L724.667 363.087C725.672 363.087 726.174 362.585 726.174 361.58C726.676 361.58 726.174 360.576 725.169 360.576Z" fill="white"/>
<path d="M624.73 291.273L620.211 291.775C619.206 291.775 618.704 292.78 619.206 293.282C619.206 293.784 619.708 294.286 620.713 294.286L625.232 293.784C625.735 293.784 626.739 292.78 626.237 292.278C626.237 291.775 625.735 291.273 624.73 291.273Z" fill="white"/>
<path d="M635.779 290.268L633.77 290.771C633.268 290.771 632.765 291.775 632.765 292.277C632.765 292.779 633.268 293.281 634.272 293.281C634.272 293.281 634.272 293.281 634.774 293.281L636.783 292.779C637.285 292.779 637.787 291.775 637.787 291.273C637.285 290.268 636.783 289.766 635.779 290.268Z" fill="white"/>
<path d="M648.836 290.771H646.827C645.823 290.771 645.32 291.273 645.32 292.277C645.32 293.281 645.823 293.784 646.827 293.784H648.836C649.84 293.784 650.342 293.281 650.342 292.277C649.84 291.273 649.338 290.771 648.836 290.771Z" fill="white"/>
<path d="M660.888 290.771H659.382C658.88 290.771 657.875 291.273 657.875 292.277C657.875 293.281 658.377 293.784 659.382 293.784H660.888C661.391 293.784 662.395 293.281 662.395 292.277C662.395 291.273 661.893 290.771 660.888 290.771Z" fill="white"/>
<path d="M673.443 291.775C673.443 291.273 672.941 291.273 671.937 291.273C670.932 291.273 670.43 291.775 670.43 292.78C670.43 293.784 670.932 294.286 671.937 294.789C672.439 294.789 672.439 294.789 672.941 294.789C673.443 294.789 673.945 294.789 674.448 294.286C674.95 293.784 674.95 292.78 674.448 292.278C674.448 291.775 673.945 291.775 673.443 291.775Z" fill="white"/>
<path d="M674.448 300.312C673.443 300.312 672.941 300.815 672.941 301.819V306.841C672.941 307.845 673.443 308.348 674.448 308.348C675.452 308.348 675.954 307.845 675.954 306.841V301.819C675.954 300.815 675.452 300.312 674.448 300.312Z" fill="white"/>
<path d="M673.946 315.88C672.941 315.88 672.439 316.885 672.941 317.387V321.405C672.941 321.907 673.443 322.409 674.448 322.409C675.452 322.409 675.954 321.405 675.452 320.902L674.95 316.885C675.452 316.383 674.448 315.88 673.946 315.88Z" fill="white"/>
<path d="M674.95 328.435C674.448 328.435 673.443 328.937 673.443 329.942V331.951C673.443 332.955 673.945 333.457 674.95 333.457C675.452 333.457 676.456 332.955 676.456 331.951V329.942C676.456 328.937 675.954 328.435 674.95 328.435Z" fill="white"/>
<path d="M674.448 339.986C673.443 339.986 672.941 340.488 672.941 341.492V344.506C672.941 345.008 673.443 346.012 674.448 346.012C675.452 346.012 675.954 345.51 675.954 344.506V341.492C675.452 340.99 674.95 339.986 674.448 339.986Z" fill="white"/>
<path d="M675.452 353.043C675.452 352.541 674.448 352.038 673.945 352.038C673.443 352.038 672.941 353.043 672.941 353.545L673.443 355.051C673.443 355.554 673.945 356.056 674.95 356.056H675.452C675.954 356.056 676.456 355.051 676.456 354.549L675.452 353.043Z" fill="white"/>
<path d="M619.708 347.017L617.7 349.528C617.197 350.03 617.197 351.034 617.7 351.536C618.202 351.536 618.202 352.038 618.704 352.038C619.206 352.038 619.708 352.038 619.708 351.536L621.717 349.025C622.219 348.523 622.219 347.519 621.717 347.017C620.713 346.514 620.211 346.514 619.708 347.017Z" fill="white"/>
<path d="M639.796 326.929L637.787 328.938C637.285 329.44 637.285 330.444 637.787 330.946C637.787 331.449 637.787 331.449 638.29 331.449C638.792 331.449 638.792 331.449 639.294 330.946L641.303 328.938C641.805 328.435 641.805 327.431 641.303 326.929C640.801 326.427 640.298 326.427 639.796 326.929Z" fill="white"/>
<path d="M631.259 334.964L626.237 340.99C625.735 341.493 625.735 342.497 626.237 342.999C626.739 342.999 626.739 343.501 627.241 343.501C627.743 343.501 628.246 343.501 628.246 342.999L633.268 336.973C633.77 336.471 633.77 335.466 633.268 334.964C632.765 333.96 631.761 333.96 631.259 334.964Z" fill="white"/>
<path d="M649.84 315.88L646.827 318.893C646.325 319.396 646.325 320.4 646.827 320.902C647.329 321.404 647.329 321.404 647.831 321.404C648.333 321.404 648.333 321.404 648.836 320.902L651.849 317.889C652.351 317.387 652.351 316.383 651.849 315.88C651.347 315.378 650.342 315.378 649.84 315.88Z" fill="white"/>
<path d="M660.386 304.33L657.875 306.841C657.373 307.343 657.373 308.347 657.875 308.85C658.377 309.352 658.377 309.352 658.88 309.352C659.382 309.352 659.382 309.352 659.884 308.85L662.395 306.339C662.897 305.836 662.897 304.832 662.395 304.33C661.893 303.828 660.888 303.828 660.386 304.33Z" fill="white"/>
<path d="M668.421 296.295L667.417 296.797C666.915 297.299 666.412 297.801 666.915 298.806C666.915 299.308 667.417 299.81 667.919 299.81H668.421L669.426 299.308C669.928 298.806 670.43 298.303 669.928 297.299C669.928 296.295 669.426 295.792 668.421 296.295Z" fill="white"/>
<path d="M696.544 289.767H684.994L693.029 279.723C693.531 279.22 693.531 278.718 693.029 278.216C692.527 277.714 692.024 277.212 691.522 277.714L678.967 279.22C678.465 279.22 677.461 280.225 677.963 280.727C677.963 281.731 678.967 282.234 679.47 281.731L688.509 280.225L680.976 289.767C680.474 290.269 680.474 290.771 680.976 291.273C680.976 291.775 681.478 292.278 681.981 292.278L696.544 292.78C697.046 292.78 698.051 292.278 698.051 291.273C698.051 290.269 697.549 289.767 696.544 289.767Z" fill="white"/>
<path d="M593.092 289.264C592.088 289.264 590.581 289.767 589.577 290.269V279.723C589.577 278.718 589.075 278.216 588.07 278.216C587.066 278.216 586.564 278.718 586.564 279.723L587.066 297.802C587.066 298.304 587.568 298.806 588.07 299.308C589.075 299.308 590.079 299.81 591.586 299.81C592.59 299.81 594.097 299.81 595.101 299.308C597.612 298.304 599.621 295.291 598.616 292.78C598.114 290.269 595.603 288.762 593.092 289.264ZM594.097 296.295C593.092 296.797 591.586 296.797 590.079 296.797V293.784C591.083 293.282 592.59 292.78 593.594 292.278C594.599 292.278 596.105 292.78 596.105 293.784C596.607 294.286 595.603 295.793 594.097 296.295Z" fill="white"/>
<path d="M677.963 376.646C677.963 374.637 677.963 372.629 677.461 370.62C677.461 369.615 677.461 369.113 676.958 368.109C676.456 367.607 675.954 367.104 675.452 367.607C674.448 367.104 673.443 367.104 672.439 367.104C670.43 367.607 669.426 369.113 668.421 370.62C667.417 372.126 666.412 373.633 666.412 375.642C665.91 378.153 666.915 380.162 668.421 381.166C669.426 381.668 670.43 382.17 671.434 382.17C671.937 382.17 672.439 382.17 672.941 382.17C674.448 381.668 675.954 380.664 676.958 379.157C677.963 379.659 678.967 379.659 679.469 379.157C679.972 378.655 680.474 378.153 679.972 377.148C679.469 376.646 678.967 376.144 677.963 376.646ZM674.95 376.646C674.447 378.153 673.443 379.157 671.937 379.157C671.434 379.157 670.43 379.157 669.928 378.655C668.923 378.153 668.923 376.646 668.923 375.642C668.923 374.135 669.928 372.629 670.43 371.624C670.932 370.62 671.937 369.615 672.941 369.113C672.941 369.113 672.941 369.113 673.443 369.113C673.945 369.113 673.945 369.113 674.448 369.615C674.448 369.615 674.448 369.615 674.448 370.118C674.448 370.62 674.447 371.122 674.95 371.122C674.95 371.624 674.95 371.624 674.95 372.126C674.95 372.629 674.95 373.131 674.448 373.633C674.448 375.14 674.447 376.144 674.95 376.646Z" fill="white"/>
<path d="M578.528 369.615C579.533 368.611 580.537 368.109 581.542 367.607C582.044 367.104 582.546 366.602 582.044 365.598C581.542 365.096 581.039 364.593 580.035 365.096C579.031 365.598 577.524 366.602 576.52 367.607C575.013 366.1 573.506 364.593 572 363.087C571.498 362.585 570.493 362.585 569.991 363.087C569.489 363.589 569.489 364.593 569.991 365.096C571.498 366.602 573.004 368.109 574.009 369.615C571.498 372.126 568.987 375.14 567.48 378.153C566.978 378.655 567.48 379.659 567.982 380.161H568.484C568.987 380.161 569.489 379.659 569.489 379.157C570.995 376.144 573.004 373.633 575.515 371.624C577.524 374.135 579.031 377.148 580.035 380.161C580.035 380.664 580.537 381.166 581.542 381.166H582.044C582.546 380.664 583.048 380.161 583.048 379.157C582.044 375.642 580.537 372.629 578.528 369.615Z" fill="white"/>
<path d="M596.105 361.58C594.599 363.087 593.092 364.091 591.586 365.096C591.586 364.091 591.586 363.087 592.088 362.082V361.58C592.59 359.572 593.092 357.061 591.083 355.052C590.079 354.047 588.07 353.043 586.564 353.545C585.057 354.047 584.555 355.052 584.053 356.056C584.053 357.061 584.555 357.563 585.559 357.563C586.564 357.563 587.066 357.061 587.066 356.056C587.066 356.056 587.066 356.056 587.568 355.554C588.07 355.554 589.075 355.554 589.075 356.056C589.577 357.061 590.079 358.065 589.577 360.576V361.078C589.075 363.087 588.572 365.096 589.577 367.104C589.577 367.607 590.079 368.109 591.083 368.109H591.586C594.097 367.104 596.607 365.096 598.616 363.087C599.118 362.585 599.118 361.58 598.616 361.078C597.11 361.078 596.607 361.078 596.105 361.58Z" fill="white"/>
<path d="M744.755 93.408C735.715 81.8576 721.152 77.3378 707.592 81.8576C695.038 86.3773 686.5 99.4344 686.5 112.491C686.5 114.5 686.5 116.007 687.002 118.016C688.007 123.038 690.016 127.557 693.029 131.073C687.505 137.601 683.989 145.636 683.989 154.174C683.989 156.685 684.491 158.693 684.994 161.204C689.011 177.275 706.588 188.825 722.658 185.812C734.711 183.803 744.253 174.261 748.772 160.2C752.288 150.156 750.781 141.117 744.253 133.584C745.257 132.579 746.261 131.073 747.266 130.068C754.297 118.518 753.794 104.456 744.755 93.408ZM746.261 159.196C743.75 167.231 737.222 180.79 722.156 183.301C707.09 185.812 690.518 175.266 687.002 160.702C684.491 151.16 688.007 140.614 694.535 133.081C699.557 138.606 706.086 142.623 713.117 144.13C723.663 146.139 734.711 142.623 742.746 135.09C747.768 142.121 749.275 150.156 746.261 159.196ZM696.042 131.575C699.055 128.562 703.073 126.051 707.592 124.544C716.632 121.531 726.676 123.54 734.711 128.562C737.222 130.068 739.231 131.575 740.737 133.584C733.707 140.614 723.16 143.628 713.117 142.121C706.588 140.614 700.562 136.597 696.042 131.575ZM742.244 132.077C740.235 130.068 738.226 128.562 735.715 127.055C727.178 121.029 716.13 119.522 706.086 122.535C701.566 124.042 697.549 126.553 694.033 130.068C691.522 126.553 689.513 122.535 689.011 118.016C686.5 103.954 695.038 88.8883 708.095 84.3685C710.606 83.3641 713.619 82.862 716.13 82.862L716.632 88.8883C716.632 89.3905 717.134 89.8927 718.139 89.8927C718.641 89.8927 719.143 89.3905 719.143 88.3861L718.641 82.3598C727.68 82.862 736.218 86.8795 742.244 94.9146C748.772 102.95 752.288 116.007 744.253 128.562C744.253 129.566 743.248 131.073 742.244 132.077Z" fill="white"/>
<path d="M718.641 92.9058C718.138 92.9058 717.636 93.408 717.636 93.9102L718.138 98.9321C718.138 99.4343 718.641 99.9365 719.645 99.9365C720.147 99.9365 720.649 99.4343 720.649 98.4299L720.147 93.408C719.645 93.408 719.143 92.9058 718.641 92.9058Z" fill="white"/>
<path d="M718.641 103.452C718.138 103.452 717.636 103.954 717.636 104.456L718.138 108.976C718.138 109.478 718.641 109.98 719.645 109.98C720.147 109.98 720.649 109.478 720.649 108.474L720.147 103.954C720.147 103.452 719.143 102.949 718.641 103.452Z" fill="white"/>
<path d="M718.641 113.496C718.138 113.496 717.636 113.998 717.636 114.5L718.138 118.015C718.138 118.518 718.641 119.02 719.645 119.02C720.147 119.02 720.649 118.518 720.649 117.513L720.147 113.998C719.645 113.496 719.143 112.993 718.641 113.496Z" fill="white"/>
<path d="M719.143 124.042C718.641 124.042 718.139 124.544 718.139 125.046V129.566C718.139 130.068 718.641 130.571 719.143 130.571C719.645 130.571 720.147 130.068 720.147 129.566V125.046C720.147 124.544 719.645 124.042 719.143 124.042Z" fill="white"/>
<path d="M718.641 135.09C718.138 135.09 717.636 135.592 717.636 136.094L718.138 138.605C718.138 139.107 719.143 139.61 719.645 139.61C720.147 139.61 720.649 138.605 720.649 138.103L720.147 135.592C719.645 135.592 719.143 135.09 718.641 135.09Z" fill="white"/>
<path d="M719.143 146.64C718.641 146.64 718.139 147.143 718.139 147.645V150.658C718.139 151.16 718.641 151.662 719.143 151.662C719.645 151.662 720.147 151.16 720.147 150.658V147.645C720.649 147.143 719.645 146.64 719.143 146.64Z" fill="white"/>
<path d="M719.645 154.173C719.143 154.173 718.641 154.676 718.641 155.178V158.693C718.641 159.195 719.143 159.697 720.147 159.697C720.649 159.697 721.152 159.195 721.152 158.191V154.676C721.152 154.676 720.147 154.173 719.645 154.173Z" fill="white"/>
<path d="M720.147 164.719C719.645 164.719 719.143 165.222 719.143 165.724V167.23C719.143 167.733 719.645 168.235 720.147 168.235C720.65 168.235 721.152 167.733 721.152 167.23V165.724C721.152 165.222 720.65 164.719 720.147 164.719Z" fill="white"/>
<path d="M720.147 170.746C719.645 170.746 719.143 171.248 719.143 171.75V174.764C719.143 175.266 719.645 175.768 720.147 175.768C720.65 175.768 721.152 175.266 721.152 174.764V171.75C721.152 171.248 720.65 170.746 720.147 170.746Z" fill="white"/>
<path d="M721.654 179.283C721.654 178.781 720.65 178.279 720.147 178.279C719.645 178.279 719.143 178.781 719.143 179.283L719.645 181.794C719.645 182.297 720.65 182.799 721.152 182.799C721.654 182.799 722.156 181.794 722.156 181.292L721.654 179.283Z" fill="white"/>
<path d="M766.851 76.3329C766.349 75.8307 765.847 75.8307 765.345 76.3329C763.838 77.8395 761.829 79.8483 760.323 81.8571C758.314 79.3461 755.803 76.8351 753.794 74.8264C753.292 74.3242 752.288 74.3242 752.288 74.8264C751.785 75.3285 751.785 76.3329 752.288 76.3329C754.799 78.3417 756.807 80.8527 758.816 83.3637C756.807 85.3724 754.799 87.8834 753.292 90.3944C752.79 90.8966 752.79 91.901 753.292 91.901L753.794 92.4032C754.296 92.4032 754.296 92.4032 754.799 91.901C756.305 89.8922 758.314 87.3812 760.323 85.3724C761.829 87.3812 763.838 89.39 765.345 91.901C765.345 92.4032 765.847 92.4032 766.349 92.4032H766.851C767.353 91.901 767.354 91.3988 767.354 90.8966C765.847 88.3856 763.838 86.3768 762.332 83.8659C763.838 81.8571 765.847 79.8483 767.354 78.3417C767.354 77.8395 767.353 76.8351 766.851 76.3329Z" fill="white"/>
<path d="M782.921 78.3422C781.415 79.3466 779.908 80.351 778.402 80.351C778.904 78.3422 779.908 75.8313 780.41 73.8225C780.41 73.3203 780.913 71.8137 780.41 70.3071C779.908 69.3027 778.904 68.8005 777.397 69.3027C774.886 69.3027 772.878 69.8049 770.367 71.3115C769.864 71.8137 769.362 72.3159 769.864 72.8181C770.367 73.3203 770.869 73.8225 771.371 73.3203C773.38 72.3159 774.886 71.8137 776.895 71.8137C777.899 71.8137 777.899 71.8137 777.899 71.8137C777.899 71.8137 777.899 72.3159 777.899 72.8181C776.895 75.3291 776.393 78.3422 775.388 80.8532C775.388 81.3554 775.388 81.3554 775.388 81.8576C775.388 82.3598 775.891 82.3598 776.393 82.3598C776.895 82.3598 777.397 82.3598 777.899 82.3598C780.41 82.3598 782.921 81.3554 784.428 79.8488C784.93 79.3466 784.93 78.8444 784.428 78.3422C783.926 77.84 783.424 77.84 782.921 78.3422Z" fill="white"/>
<path d="M513.243 196.358L476.583 199.372C477.587 205.9 469.05 213.433 466.539 219.459C463.526 225.486 462.521 245.071 495.164 245.071C527.807 245.071 526.802 224.984 523.287 219.459C519.772 213.935 512.239 202.887 513.243 196.358Z" fill="#FFB725"/>
<path d="M521.78 217.45C522.785 222.472 521.78 228.499 517.261 232.014C506.715 239.045 495.164 233.018 488.636 223.979C487.129 221.97 483.111 231.01 483.111 231.01C483.111 231.01 475.076 212.931 482.609 199.371H476.583C477.587 205.9 469.05 213.433 466.539 219.459C463.526 225.485 462.521 245.071 495.164 245.071C527.807 245.071 526.802 224.983 523.287 219.459C522.785 218.455 522.283 217.953 521.78 217.45Z" fill="url(#paint30_linear_9_3015)"/>
<path fill-rule="evenodd" clip-rule="evenodd" d="M490.142 409.289C489.64 412.804 488.636 415.818 488.636 418.831C488.636 421.844 489.138 424.857 489.138 428.875C489.64 432.892 487.631 436.408 487.129 439.923C483.614 458.504 487.129 470.055 483.112 484.116C481.605 488.636 480.601 490.142 479.596 492.151C478.592 494.662 479.596 498.177 478.592 503.702C477.085 510.732 474.072 517.763 475.076 521.278C476.081 524.794 484.618 528.309 487.631 528.309C491.649 528.309 489.64 523.789 489.138 521.278C488.636 517.261 490.142 492.653 491.649 487.631C495.666 472.063 505.208 449.465 506.715 434.901C508.723 420.839 507.217 418.328 510.23 402.258C510.732 400.249 517.261 356.559 517.763 338.982L489.64 353.043C491.147 370.118 491.649 391.712 490.142 409.289Z" fill="#FFC3AB"/>
<path fill-rule="evenodd" clip-rule="evenodd" d="M503.199 396.232C506.715 410.796 503.199 425.862 498.68 439.923C493.658 455.993 489.138 470.055 488.636 486.627C488.133 499.684 481.103 512.741 480.6 525.798C483.111 527.305 486.125 527.807 487.631 527.807C491.649 527.807 489.64 523.287 489.138 520.776C488.636 516.759 490.142 492.151 491.649 487.129C495.666 471.561 505.208 448.963 506.715 434.399C508.723 420.338 507.217 417.827 510.23 401.756C510.732 399.748 517.261 356.057 517.763 338.48L498.177 348.021C502.697 364.092 499.684 380.664 503.199 396.232Z" fill="#FFCAB8"/>
<path fill-rule="evenodd" clip-rule="evenodd" d="M489.64 516.759C489.138 519.772 483.111 521.278 480.6 517.261C478.592 514.75 478.089 511.234 477.587 508.723C477.587 508.723 477.587 508.723 477.587 508.221C476.081 513.243 474.574 517.763 475.579 520.776C476.583 524.291 485.12 527.807 488.133 527.807C492.151 527.807 490.142 523.287 489.64 520.776C489.64 520.274 489.64 518.767 489.64 516.759Z" fill="#333242"/>
<path fill-rule="evenodd" clip-rule="evenodd" d="M481.605 519.27C481.605 518.767 481.605 518.767 481.605 518.265C481.103 517.763 481.103 517.763 480.6 517.261C478.592 514.75 478.089 511.234 477.587 508.723C477.587 508.723 477.587 508.723 477.587 508.221C476.081 513.243 474.574 517.763 475.579 520.776C476.583 524.291 485.12 527.807 488.133 527.807C489.64 527.807 490.142 526.802 490.644 525.798C489.138 526.3 483.111 524.794 481.605 519.27Z" fill="#42445D"/>
<path fill-rule="evenodd" clip-rule="evenodd" d="M516.759 243.062C513.745 242.56 507.719 240.551 504.204 239.045C498.177 236.534 499.182 231.01 500.688 223.477L489.138 219.459C488.133 227.494 490.142 237.036 481.605 234.525C471.561 231.512 466.539 233.521 463.526 247.08L510.23 269.177C510.23 278.216 513.745 286.753 516.256 294.286L525.798 290.269C524.794 280.225 522.283 244.569 516.759 243.062Z" fill="#FFCAB8"/>
<path fill-rule="evenodd" clip-rule="evenodd" d="M447.455 267.168L452.98 275.705C459.006 270.683 479.596 244.569 479.596 244.569L469.05 236.032C460.513 245.071 451.473 262.146 447.455 267.168Z" fill="#FFCAB8"/>
<path fill-rule="evenodd" clip-rule="evenodd" d="M474.072 240.552C472.063 244.569 464.53 240.049 461.015 245.573C460.01 247.582 461.015 252.604 461.517 254.613C461.517 255.617 460.513 264.657 455.993 269.679C454.988 270.683 450.971 270.181 449.966 270.683L452.98 275.203C459.006 270.181 479.596 244.067 479.596 244.067L474.072 240.552C474.574 240.552 474.574 240.552 474.072 240.552Z" fill="#FFC3AB"/>
<path fill-rule="evenodd" clip-rule="evenodd" d="M447.958 262.648C436.909 258.129 417.324 250.093 416.319 246.578C415.817 243.063 413.808 240.552 411.8 238.543C409.791 236.534 410.293 240.552 407.28 238.543C405.773 237.539 400.751 233.521 400.249 234.023C398.743 235.028 400.249 236.032 401.756 237.539C400.751 238.041 400.249 239.547 401.254 240.05C400.249 241.054 400.249 242.561 401.254 243.063C400.249 244.569 400.751 245.574 402.76 247.08C404.769 248.587 407.782 251.098 413.306 254.613C420.337 259.635 436.407 275.705 451.473 275.705C454.486 275.705 453.984 271.186 453.984 270.181C453.482 266.164 451.975 264.155 447.958 262.648Z" fill="#FFCAB8"/>
<path fill-rule="evenodd" clip-rule="evenodd" d="M447.958 269.177C442.434 267.168 437.914 263.653 432.892 260.64C427.87 257.124 418.83 255.618 413.808 252.102C412.302 251.098 411.297 247.582 410.795 245.072C410.293 243.063 409.791 241.556 408.284 240.05C407.782 239.547 407.28 239.045 407.28 238.543C405.773 237.539 400.751 233.521 400.249 234.023C398.743 235.028 400.249 236.032 401.756 237.539C400.751 238.041 400.249 239.547 401.254 240.05C400.249 241.054 400.249 242.561 401.254 243.063C400.249 244.569 400.751 245.574 402.76 247.08C403.765 248.085 406.778 249.089 408.787 250.596C410.293 251.6 410.795 253.609 413.306 255.115C420.337 260.137 436.407 276.208 451.473 276.208C454.486 276.208 453.984 271.688 453.984 270.683C453.984 269.679 449.966 269.679 447.958 269.177Z" fill="#FFC3AB"/>
<path fill-rule="evenodd" clip-rule="evenodd" d="M408.787 232.014C407.782 233.521 408.284 235.027 410.293 236.534C410.293 238.543 410.795 240.049 411.8 240.551L415.817 242.058L412.804 236.032C411.297 235.53 410.293 234.525 408.787 232.014Z" fill="#FFCAB8"/>
<path d="M387.694 154.174L410.293 262.146C410.293 263.15 411.298 263.653 412.302 263.653C413.306 263.653 413.809 262.648 413.809 261.644L387.694 154.174Z" fill="#333242"/>
<path fill-rule="evenodd" clip-rule="evenodd" d="M481.605 235.028C476.081 233.521 472.063 233.521 469.05 236.032C471.561 235.53 474.072 235.028 476.081 235.53C479.596 236.032 482.107 239.547 485.12 239.547C490.644 240.049 496.671 233.019 499.684 228.499C499.684 226.992 500.186 225.988 500.186 224.481L488.636 220.464C488.133 227.997 490.142 237.036 481.605 235.028Z" fill="#FFC3AB"/>
<path fill-rule="evenodd" clip-rule="evenodd" d="M515.252 270.181C514.75 270.683 511.737 273.696 510.23 274.198C510.23 281.229 514.248 288.26 515.754 294.286L519.27 293.282C517.763 288.26 515.252 281.229 514.75 275.705C515.252 274.198 515.252 272.19 515.252 270.181Z" fill="#FFC3AB"/>
<path fill-rule="evenodd" clip-rule="evenodd" d="M497.675 188.826C493.658 188.323 490.142 188.826 487.631 190.332C482.609 193.345 480.6 199.372 480.6 206.402C480.6 206.905 480.6 206.905 480.6 207.407V207.909C480.6 208.411 480.6 208.411 480.6 208.913C480.6 210.42 480.6 211.927 481.103 212.931C481.605 215.944 482.107 217.953 482.609 219.962C483.614 222.473 490.142 230.508 495.164 230.508C499.684 230.508 506.212 222.473 507.217 220.464C508.221 218.455 509.226 215.944 509.226 213.433C509.226 211.424 509.728 209.918 509.728 207.909C509.728 207.407 509.728 206.905 509.728 206.402C510.23 197.865 507.217 190.332 497.675 188.826Z" fill="#FFCAB8"/>
<path fill-rule="evenodd" clip-rule="evenodd" d="M508.221 498.177C507.719 496.169 505.71 496.671 504.706 492.151C500.688 478.09 504.706 464.53 501.19 445.949C500.688 442.434 498.679 438.918 499.182 434.901C499.182 430.883 499.684 427.87 499.684 424.857C499.684 421.844 498.679 418.831 498.177 415.315C497.173 403.765 497.173 399.747 497.173 383.175C497.675 358.567 499.684 346.515 490.644 327.933H472.063L470.054 345.008C470.557 364.091 474.072 384.179 478.089 405.774C481.103 421.844 480.098 428.372 482.107 442.434C484.116 456.997 499.182 498.177 499.182 503.702C499.182 505.208 499.684 524.794 499.684 527.305C500.186 529.816 499.684 536.344 503.199 536.344C506.212 536.344 512.239 529.313 513.243 527.305C514.247 523.287 511.234 516.256 509.728 509.728C508.221 504.204 509.226 500.688 508.221 498.177Z" fill="#FFCAB8"/>
<path fill-rule="evenodd" clip-rule="evenodd" d="M502.195 527.305C500.688 527.305 500.186 525.798 499.182 525.296C499.182 526.3 499.182 527.305 499.182 527.807C499.684 530.318 499.182 536.847 502.697 536.847C505.71 536.847 511.736 529.816 512.741 527.807C513.745 524.794 512.239 520.274 510.732 515.252C510.23 515.754 508.723 527.305 502.195 527.305Z" fill="#333242"/>
<path fill-rule="evenodd" clip-rule="evenodd" d="M504.204 529.313C504.204 528.309 504.204 527.807 504.204 526.802C503.701 527.305 502.697 527.305 502.195 527.305C500.688 527.305 500.186 525.798 499.182 525.296C499.182 526.3 499.182 527.305 499.182 527.807C499.684 530.318 499.182 536.846 502.697 536.846C504.706 536.846 507.719 533.833 510.23 531.322C509.728 531.824 509.226 531.824 508.723 531.824C506.715 532.327 504.204 531.322 504.204 529.313Z" fill="#42445D"/>
<path fill-rule="evenodd" clip-rule="evenodd" d="M462.521 308.348C462.521 309.352 461.015 322.911 460.513 323.413C457.499 348.021 467.041 382.17 474.072 415.315C491.147 420.839 514.75 414.311 514.75 414.311C514.75 414.311 525.296 363.589 525.296 338.479C525.296 321.405 515.754 310.859 514.75 305.334C502.195 312.365 468.046 309.854 462.521 308.348Z" fill="url(#paint31_linear_9_3015)"/>
<path fill-rule="evenodd" clip-rule="evenodd" d="M487.631 397.739C485.622 391.21 482.609 379.157 483.111 372.629C484.618 358.065 465.535 350.03 472.063 344.004C475.076 340.991 493.658 336.471 496.168 331.951C499.182 325.423 474.574 320.903 462.521 308.85C462.521 308.85 462.521 308.85 462.521 308.348C462.019 310.357 461.015 322.409 460.513 322.912C457.499 347.519 467.041 381.668 474.072 414.813C486.627 418.831 503.701 416.32 511.234 414.813C504.706 407.28 490.644 407.782 487.631 397.739Z" fill="url(#paint32_linear_9_3015)"/>
<path fill-rule="evenodd" clip-rule="evenodd" d="M509.226 240.552L494.662 245.071C494.662 245.071 487.631 239.045 482.609 234.525C482.609 234.525 470.054 226.992 457.499 243.062C455.993 245.071 464.53 248.084 463.526 257.626C461.517 273.194 457.5 303.326 462.019 308.348C466.037 312.868 513.745 314.876 515.252 306.841C516.256 302.321 511.737 299.81 510.23 294.286C509.226 290.269 509.728 286.251 510.732 279.22C513.745 276.71 519.772 273.194 516.759 265.159C514.75 259.133 525.798 259.133 525.296 254.613C523.789 241.054 509.226 240.552 509.226 240.552Z" fill="url(#paint33_linear_9_3015)"/>
<path fill-rule="evenodd" clip-rule="evenodd" d="M495.164 245.072C495.164 245.072 478.592 242.058 473.57 245.072C469.05 248.085 464.53 248.587 463.526 257.626C461.517 273.194 457.499 303.326 462.019 308.348C465.032 311.863 495.164 313.872 508.723 310.859C506.212 309.855 501.19 308.85 498.679 308.85C486.627 308.85 480.098 303.326 473.57 298.304C470.054 295.793 472.565 292.78 476.081 295.793C480.098 298.806 491.649 303.828 491.649 298.806C491.649 287.256 508.221 276.208 504.204 274.701C498.177 271.688 494.662 262.146 500.186 260.137C504.204 258.631 503.701 255.115 503.701 254.111C503.199 249.089 507.719 246.076 511.736 246.076C514.247 246.076 516.256 244.067 517.763 243.565C513.745 241.556 509.728 241.054 509.728 241.054L495.164 245.072ZM492.653 277.212C487.631 278.216 479.094 273.194 476.583 274.199C472.565 276.71 469.552 275.203 470.556 270.683C471.059 267.67 473.57 263.653 475.076 262.146C476.583 260.64 482.609 255.618 487.129 261.142C492.653 268.172 485.622 270.683 490.644 271.186C497.675 272.19 497.173 276.208 492.653 277.212Z" fill="url(#paint34_linear_9_3015)"/>
<path fill-rule="evenodd" clip-rule="evenodd" d="M495.666 217.953C494.16 217.953 493.155 218.455 492.653 218.957C492.653 219.46 493.155 219.962 493.657 219.962C493.657 219.962 494.16 219.962 494.662 219.962C495.164 219.962 495.666 219.962 496.168 219.962C496.671 219.962 496.671 219.962 497.173 219.962C497.675 219.962 498.679 219.46 498.177 218.957C497.675 218.455 496.671 217.953 495.666 217.953Z" fill="#FFC3AB"/>
<path fill-rule="evenodd" clip-rule="evenodd" d="M405.773 237.036C403.765 235.53 403.262 235.028 401.254 234.023C400.249 233.521 399.747 233.521 399.747 234.023C399.747 234.525 399.245 235.028 400.249 235.53C401.756 236.534 403.262 237.539 405.271 238.543C406.778 239.547 407.782 238.543 405.773 237.036Z" fill="#FFCAB8"/>
<path fill-rule="evenodd" clip-rule="evenodd" d="M408.284 241.054C406.276 239.547 404.267 238.543 402.258 237.538C401.254 237.036 401.254 237.538 400.751 238.041C400.751 238.543 400.751 239.045 401.756 239.547C403.765 240.552 405.773 242.058 407.782 242.56C409.289 243.062 410.293 242.56 408.284 241.054Z" fill="#FFCAB8"/>
<path fill-rule="evenodd" clip-rule="evenodd" d="M407.782 243.565C405.773 242.56 404.267 241.556 402.258 240.552C401.756 240.049 401.254 240.552 400.751 241.054C400.751 241.556 400.751 242.058 401.254 242.56C402.76 243.565 405.271 244.569 406.778 245.071C408.787 245.071 409.791 244.569 407.782 243.565Z" fill="#FFCAB8"/>
<path fill-rule="evenodd" clip-rule="evenodd" d="M407.782 246.076C405.773 245.072 404.769 244.569 403.262 243.565C402.76 243.063 402.258 243.565 401.756 244.067C401.756 244.569 401.756 245.072 402.258 245.574C403.765 246.578 405.271 247.08 406.778 247.583C408.284 247.583 409.289 247.08 407.782 246.076Z" fill="#FFCAB8"/>
<path d="M497.675 187.319C493.658 186.817 490.142 187.319 487.631 188.826C482.609 191.839 480.6 197.865 480.6 204.896C481.605 202.385 483.111 198.869 485.622 196.358C485.622 196.358 490.142 200.878 496.169 203.389C496.169 203.389 492.653 197.865 491.649 195.354C492.151 195.856 498.68 199.874 509.226 211.926C509.226 209.918 509.728 208.411 509.728 205.9C510.23 197.363 507.719 188.323 497.675 187.319Z" fill="#FFC3AB"/>
<path d="M495.666 180.288C487.129 180.288 483.614 187.319 483.614 187.319C483.614 187.319 477.587 188.323 476.583 194.35C475.579 199.372 477.587 204.394 481.103 207.909C481.103 207.909 482.107 199.372 487.129 194.852C487.129 194.852 491.649 199.372 497.675 201.883C497.675 201.883 494.16 196.359 493.155 193.848C493.155 193.848 500.688 198.367 512.239 211.927C511.737 205.9 512.741 202.887 512.741 196.359C513.243 188.826 506.212 180.288 495.666 180.288Z" fill="#FFB725"/>
<path d="M490.644 191.839C492.151 196.359 495.666 200.878 498.177 201.883C498.177 201.883 494.662 196.359 493.657 193.848C493.657 193.848 501.19 198.367 512.741 211.927C512.239 211.927 503.701 191.839 490.644 191.839Z" fill="url(#paint35_linear_9_3015)"/>
<path d="M477.085 191.839C476.583 192.341 476.583 193.345 476.081 194.35C475.076 199.372 477.085 204.394 480.6 207.909C480.6 207.909 480.6 205.9 481.605 202.887C477.085 201.883 475.578 195.856 477.085 191.839Z" fill="url(#paint36_linear_9_3015)"/>
<path d="M503.701 214.437C500.688 214.437 498.177 212.429 498.177 209.416C498.177 206.905 499.684 205.9 503.701 205.9C504.706 205.9 505.208 205.9 505.71 205.9L505.208 205.398C504.706 205.398 504.204 205.398 503.701 205.398C501.693 205.398 499.182 205.9 498.177 207.407C498.177 207.909 497.173 207.909 496.671 207.909C496.671 207.909 495.666 207.909 495.164 207.909C494.662 207.909 493.658 207.909 493.658 207.909C493.658 207.909 492.653 207.909 492.151 207.407C491.147 205.9 488.636 205.398 486.627 205.398C485.622 205.398 484.116 205.398 483.111 205.9C482.609 205.9 481.605 205.9 481.103 206.402V206.905C481.103 207.407 481.103 207.407 481.103 207.909C481.103 209.416 481.103 210.922 481.605 211.926C482.609 213.935 484.618 214.94 487.129 214.94C490.142 214.94 493.155 212.429 493.155 209.416C493.658 208.411 494.662 208.411 495.164 208.411C495.666 208.411 497.173 208.411 497.675 209.416C498.177 212.429 500.688 214.437 504.204 214.437C507.217 214.437 509.226 212.429 510.23 209.918C510.23 209.918 509.728 209.415 509.728 208.913C508.723 212.429 506.212 214.437 503.701 214.437ZM486.627 214.94C483.614 214.94 481.103 212.931 481.103 209.918C481.103 207.407 482.609 206.402 486.627 206.402C490.644 206.402 492.151 207.407 492.151 209.416C492.151 212.429 489.64 214.94 486.627 214.94Z" fill="#FFC3AB"/>
<path d="M503.701 204.896C501.19 204.896 497.675 205.398 497.675 208.913C497.675 211.926 500.688 214.437 504.203 214.437C507.719 214.437 510.23 211.926 510.23 208.411C510.23 205.398 506.714 204.896 503.701 204.896ZM504.203 213.935C501.19 213.935 498.679 211.926 498.679 208.913C498.679 206.402 500.186 205.398 504.203 205.398C508.221 205.398 509.728 206.402 509.728 208.411C509.728 211.424 507.217 213.935 504.203 213.935Z" fill="white"/>
<path d="M510.23 205.397C509.728 205.397 508.221 205.397 507.217 205.397C507.217 205.397 508.221 205.9 509.225 206.904C509.728 207.908 509.728 210.419 509.728 210.419C510.23 209.415 510.23 208.411 510.23 207.908C510.23 207.406 510.23 207.406 510.732 207.406C510.732 207.406 511.234 207.406 511.234 206.904V205.9C510.732 205.397 510.732 205.397 510.23 205.397Z" fill="white"/>
<path d="M487.129 205.9C484.618 205.9 481.103 206.402 481.103 209.917C481.103 212.931 484.116 215.442 487.631 215.442C491.146 215.442 493.657 212.931 493.657 209.415C493.155 205.9 489.64 205.398 487.129 205.9ZM487.129 214.437C484.116 214.437 481.605 212.428 481.605 209.415C481.605 206.904 483.111 205.9 487.129 205.9C491.146 205.9 492.653 206.904 492.653 208.913C492.653 211.926 490.644 214.437 487.129 214.437Z" fill="white"/>
<path d="M480.098 206.904V207.908C480.098 207.908 480.098 207.908 480.6 208.411C480.6 208.411 481.103 208.411 481.103 208.913C481.103 209.415 481.103 210.419 481.605 211.424C481.605 211.424 481.605 208.913 482.107 207.908C483.111 206.904 484.116 206.402 484.116 206.402C483.111 206.402 481.605 206.904 481.103 206.904C480.098 206.402 480.098 206.402 480.098 206.904Z" fill="white"/>
<path d="M495.666 207.909C495.164 207.909 494.16 207.909 494.16 207.909C494.16 207.909 493.155 207.909 492.653 207.406L493.155 209.917C493.657 208.913 494.662 208.913 495.164 208.913C495.666 208.913 497.173 208.913 497.675 209.917L498.177 207.406C498.177 207.909 497.173 207.909 497.173 207.909C496.671 207.909 496.168 207.909 495.666 207.909Z" fill="white"/>
<path d="M463.526 281.229L470.557 332.453L504.204 328.938L496.671 277.714L463.526 281.229Z" fill="url(#paint37_linear_9_3015)"/>
<path d="M463.526 281.23L470.557 332.454H506.212L499.182 281.23H463.526Z" fill="#FFB725"/>
<path fill-rule="evenodd" clip-rule="evenodd" d="M515.252 292.278C503.199 294.286 494.662 299.81 488.636 300.313C487.129 300.313 485.622 300.815 484.116 299.81C481.103 297.802 478.09 297.802 475.076 297.802C472.063 297.802 475.579 300.313 472.063 300.815C470.054 301.317 464.028 301.317 463.526 302.321C463.024 303.828 465.032 303.828 467.041 303.828C466.539 304.832 467.543 305.837 468.548 305.837C468.548 307.343 469.552 307.846 471.059 307.846C471.059 309.352 472.565 309.854 474.574 309.854C477.085 309.352 481.103 309.352 487.631 308.348C496.169 306.841 498.177 307.846 504.204 307.343C510.23 306.841 519.772 305.837 524.794 302.321C526.802 300.815 526.802 295.291 525.798 289.767C521.781 290.269 519.27 291.775 515.252 292.278Z" fill="#FFCAB8"/>
<path fill-rule="evenodd" clip-rule="evenodd" d="M467.544 295.291C468.046 296.797 469.552 297.802 471.561 297.802C472.566 298.806 473.068 299.308 473.57 299.81L479.596 297.802L473.068 295.291C472.063 295.793 470.557 295.793 467.544 295.291Z" fill="#FFCAB8"/>
<path fill-rule="evenodd" clip-rule="evenodd" d="M216.948 409.289C206.904 411.8 203.891 427.368 199.371 436.408C199.371 436.408 202.384 442.936 213.935 443.438C213.935 443.438 225.988 424.355 225.988 419.835C225.988 415.315 218.957 408.787 216.948 409.289Z" fill="url(#paint38_linear_9_3015)"/>
<path fill-rule="evenodd" clip-rule="evenodd" d="M219.459 409.289C218.957 409.289 218.455 409.791 217.953 409.791C218.455 410.293 218.455 410.796 218.455 411.8C218.455 421.844 211.424 432.39 203.891 440.425C206.402 441.932 209.415 443.438 214.437 443.438C214.437 443.438 226.49 424.355 226.49 419.835C225.988 415.315 221.468 408.787 219.459 409.289Z" fill="url(#paint39_linear_9_3015)"/>
<path fill-rule="evenodd" clip-rule="evenodd" d="M215.944 409.791C212.931 411.8 214.939 448.962 211.926 454.486C207.406 463.526 201.38 474.072 201.38 474.072C213.433 481.103 260.137 481.103 260.137 481.103C260.137 481.103 262.648 472.565 264.657 459.006C267.168 442.936 266.665 407.28 265.661 407.28C246.578 401.756 221.468 406.276 215.944 409.791Z" fill="url(#paint40_linear_9_3015)"/>
<path fill-rule="evenodd" clip-rule="evenodd" d="M248.084 386.188L232.516 395.73C233.018 396.232 233.521 402.258 232.516 405.271C231.512 407.782 230.508 411.298 236.032 412.804C241.054 413.809 250.595 409.289 249.591 404.769C247.08 397.738 248.084 386.188 248.084 386.188Z" fill="#FFCAB8"/>
<path fill-rule="evenodd" clip-rule="evenodd" d="M248.084 386.188L232.516 395.73C233.018 396.232 233.521 402.258 232.516 405.271C232.516 405.774 232.014 406.276 232.014 406.778C232.014 406.778 234.525 406.276 237.538 404.769C240.551 402.76 243.565 403.765 245.573 406.778C246.578 407.782 246.578 409.289 246.578 410.293C248.586 408.787 250.093 407.28 249.089 405.271C247.08 397.738 248.084 386.188 248.084 386.188Z" fill="#FFC3AB"/>
<path fill-rule="evenodd" clip-rule="evenodd" d="M258.128 414.311C252.102 415.315 247.582 421.843 247.582 430.883C247.582 434.901 246.075 439.922 243.062 446.451C241.054 449.966 233.521 452.98 230.005 453.984C226.49 454.988 225.988 456.495 227.996 457.499C230.005 458.504 245.071 461.015 243.564 463.526C241.556 466.037 222.975 470.054 226.49 478.089C227.996 482.107 256.622 479.094 261.644 478.089C263.15 475.076 263.652 467.543 264.657 462.521C267.168 452.477 266.163 431.385 267.67 419.835C268.172 417.324 268.674 415.315 268.674 413.306C264.154 413.306 262.648 413.306 258.128 414.311Z" fill="url(#paint41_linear_9_3015)"/>
<path fill-rule="evenodd" clip-rule="evenodd" d="M201.882 489.138C200.878 489.138 188.825 488.133 184.305 489.138C179.284 489.64 177.275 489.64 174.764 493.155C171.751 496.169 172.755 501.693 174.262 505.71C175.768 509.728 177.777 509.728 181.795 508.723C185.31 507.719 189.83 504.706 193.345 504.204C197.363 503.701 197.865 504.706 200.878 503.701C203.389 502.697 203.891 503.701 203.891 501.693C203.389 499.684 201.882 489.138 201.882 489.138Z" fill="white"/>
<path fill-rule="evenodd" clip-rule="evenodd" d="M201.882 489.138C200.878 489.138 188.825 488.133 184.305 489.138C179.284 489.64 177.275 489.64 174.764 493.155C173.257 494.662 172.755 497.173 172.755 499.684C175.768 500.186 178.279 500.186 181.292 499.684C183.803 499.182 186.314 498.177 188.825 498.68C191.336 499.182 194.852 501.19 195.856 504.204C197.865 504.204 198.869 504.204 200.878 503.701C203.389 502.697 203.891 503.701 203.891 501.693C203.389 499.684 201.882 489.138 201.882 489.138Z" fill="#D0DDFD"/>
<path fill-rule="evenodd" clip-rule="evenodd" d="M178.781 491.147C180.288 490.143 183.803 489.64 186.314 489.138C185.31 489.138 184.808 489.138 184.305 489.138C179.284 489.64 177.275 489.64 174.764 493.156C171.751 496.169 172.755 501.693 174.262 505.711C175.768 509.226 177.275 509.728 180.79 508.724C175.266 504.204 172.755 495.165 178.781 491.147Z" fill="#42445D"/>
<path fill-rule="evenodd" clip-rule="evenodd" d="M267.168 489.64C264.155 489.138 255.115 489.138 248.084 488.133C248.084 488.133 240.552 498.679 240.552 499.182C240.552 499.182 246.076 502.697 248.587 504.706C251.098 506.715 260.639 509.728 263.15 509.226C265.661 508.723 270.683 498.177 271.688 494.662C272.692 490.644 269.679 490.142 267.168 489.64Z" fill="white"/>
<path fill-rule="evenodd" clip-rule="evenodd" d="M267.168 489.64C264.155 489.138 255.115 489.138 248.084 488.133C248.084 488.133 241.556 497.675 240.552 498.679C244.067 498.679 247.08 497.173 250.093 497.675C251.6 498.177 253.609 500.186 258.631 499.684C261.644 499.182 261.141 504.204 258.631 506.715C258.128 507.217 257.626 507.719 257.124 507.719C259.635 508.221 262.146 508.723 263.15 508.723C265.661 508.221 270.683 497.675 271.688 494.16C272.692 490.644 269.679 490.142 267.168 489.64Z" fill="#D0DDFD"/>
<path fill-rule="evenodd" clip-rule="evenodd" d="M178.279 465.534C171.248 467.041 168.737 472.063 168.737 478.089C168.737 481.605 171.751 485.12 175.768 486.627C179.786 487.631 238.543 501.19 240.551 501.692C242.058 502.195 249.089 485.12 249.089 485.12C247.08 483.613 191.336 463.023 178.279 465.534Z" fill="#FFB725"/>
<path fill-rule="evenodd" clip-rule="evenodd" d="M196.358 481.605C183.803 482.107 179.786 480.098 169.24 474.574C169.24 475.579 168.737 476.583 168.737 477.587C168.737 481.103 171.751 484.618 175.768 486.125C179.786 487.129 238.543 500.688 240.551 501.191C242.058 501.693 249.089 484.618 249.089 484.618C248.084 484.116 231.512 478.592 220.966 475.076C212.931 479.094 205.398 481.605 196.358 481.605Z" fill="url(#paint42_linear_9_3015)"/>
<path fill-rule="evenodd" clip-rule="evenodd" d="M215.944 368.611C215.944 368.611 213.433 370.62 212.931 374.135C212.428 377.148 216.446 382.673 216.446 382.673C216.446 382.673 219.961 374.135 219.459 371.122C218.957 370.62 215.944 368.611 215.944 368.611Z" fill="#333242"/>
<path fill-rule="evenodd" clip-rule="evenodd" d="M232.014 406.778L232.516 405.271C232.516 405.271 229.503 405.774 229.001 409.289C227.996 415.818 231.512 420.337 231.512 420.337C232.014 416.822 237.036 412.804 237.036 412.804C232.014 410.796 232.014 406.778 232.014 406.778Z" fill="white"/>
<path fill-rule="evenodd" clip-rule="evenodd" d="M253.608 380.664C252.102 377.651 249.089 380.162 249.089 380.162C249.089 380.162 248.586 372.629 243.062 368.109C237.538 363.087 232.516 365.096 222.975 368.109C213.433 371.122 215.442 374.135 215.442 374.135C215.442 374.135 215.944 381.668 217.45 389.703C217.953 392.716 221.468 397.236 225.486 402.258C229.503 406.778 234.525 404.267 241.556 400.249C248.586 396.232 248.084 392.214 248.084 391.712C248.084 391.712 249.089 392.214 251.6 390.708C253.106 388.699 255.115 384.681 253.608 380.664C253.608 381.166 253.608 381.166 253.608 380.664Z" fill="#FFCAB8"/>
<path fill-rule="evenodd" clip-rule="evenodd" d="M253.609 380.664C252.102 377.651 249.089 380.162 249.089 380.162C249.089 380.162 248.587 372.629 243.062 368.109C242.058 367.105 235.529 369.113 236.534 372.126C237.538 375.642 240.049 378.153 241.054 381.668C241.556 385.686 242.56 392.716 240.551 395.73C237.036 400.249 231.512 404.267 225.486 401.756C229.503 406.276 234.525 403.765 241.556 399.747C248.587 395.73 248.084 391.712 248.084 391.21C248.084 391.21 249.089 391.712 251.6 390.205C253.106 388.699 255.115 384.681 253.609 380.664C253.609 381.166 253.609 381.166 253.609 380.664Z" fill="#FFC3AB"/>
<path fill-rule="evenodd" clip-rule="evenodd" d="M214.939 367.104C213.935 369.615 212.429 377.65 219.459 379.659C226.992 381.668 240.049 372.126 243.062 377.65C245.573 382.17 242.56 385.183 244.569 386.69C245.573 387.694 247.08 387.192 247.582 386.188C247.582 385.686 247.582 382.672 249.089 380.161C249.089 380.161 250.595 379.157 251.6 379.157C251.6 379.157 253.106 373.633 251.098 369.113C243.565 352.038 219.961 356.558 214.939 367.104Z" fill="#42445D"/>
<path fill-rule="evenodd" clip-rule="evenodd" d="M235.53 358.065C240.551 361.58 234.023 369.615 239.045 373.131C243.062 376.646 245.071 377.651 245.071 380.161C245.071 381.668 244.569 386.188 244.067 386.69C244.067 386.69 244.067 386.69 244.569 387.192C245.573 388.197 247.08 387.694 247.582 386.69C247.582 386.188 247.582 383.175 249.089 380.664C249.089 380.664 250.595 379.659 251.6 379.659C251.6 379.659 253.106 374.135 251.098 369.615C247.582 362.082 241.556 358.567 235.53 358.065Z" fill="#333242"/>
<path fill-rule="evenodd" clip-rule="evenodd" d="M268.674 467.041C261.643 463.023 249.591 468.045 236.032 472.063C225.485 475.578 195.856 485.622 195.856 485.622C195.856 485.622 192.843 498.177 200.878 505.71C200.878 505.71 241.556 495.666 268.172 484.618C270.181 483.613 273.194 482.609 273.696 478.591C274.198 474.072 272.19 469.05 268.674 467.041Z" fill="#FFB725"/>
<path fill-rule="evenodd" clip-rule="evenodd" d="M269.176 467.543C270.181 470.054 270.181 473.067 268.674 476.081C266.665 480.6 261.643 483.111 257.124 482.107C255.115 481.605 253.608 480.098 251.6 480.098C248.084 479.596 247.08 481.102 244.569 483.111C241.054 486.124 237.538 489.138 233.018 490.142C230.005 490.644 227.494 490.142 224.983 490.142C221.468 490.644 218.957 492.151 215.442 493.155C208.411 495.164 201.38 493.657 194.852 491.146C194.852 495.666 195.856 501.19 200.376 505.208C200.376 505.208 241.053 495.164 267.67 484.116C269.679 483.111 272.692 482.107 273.194 478.089C274.198 474.574 272.692 470.054 269.176 467.543Z" fill="url(#paint43_linear_9_3015)"/>
<path fill-rule="evenodd" clip-rule="evenodd" d="M249.591 383.175C249.089 384.179 249.089 384.681 249.591 385.184C250.093 386.188 250.093 385.686 250.093 386.188C250.093 387.192 249.089 386.69 249.089 387.695C249.089 388.699 249.089 389.201 250.093 389.201C251.097 389.201 252.102 388.699 252.604 386.69C253.106 385.184 253.608 382.673 252.604 381.668C251.6 380.664 249.591 381.668 249.591 383.175Z" fill="#C95F39"/>
<path fill-rule="evenodd" clip-rule="evenodd" d="M267.67 489.64C269.679 491.649 263.652 506.212 258.63 508.723C260.639 509.226 262.146 509.226 262.648 509.226C265.159 508.723 270.181 498.177 271.185 494.662C272.19 490.644 270.181 490.142 267.67 489.64Z" fill="#42445D"/>
<path fill-rule="evenodd" clip-rule="evenodd" d="M260.137 416.32C259.133 424.857 271.687 446.953 271.687 446.953C271.687 446.953 240.551 439.421 237.538 439.421C232.516 438.918 226.49 434.399 224.983 434.901C224.481 434.901 220.464 436.407 220.464 436.407C220.464 436.407 213.935 441.932 214.437 442.936C214.437 443.438 215.944 442.936 216.446 442.434C217.45 441.932 219.961 439.421 220.966 438.918C222.472 437.914 225.486 437.914 225.486 437.914C225.486 437.914 222.472 439.421 221.468 439.923C219.961 440.927 216.948 443.94 215.944 445.447C215.442 445.949 215.442 446.451 215.944 446.451C216.446 446.451 216.948 446.451 217.953 445.949C219.459 445.447 220.966 443.438 221.468 442.936C221.97 442.434 224.983 440.927 224.983 440.927C224.983 440.927 221.97 444.443 220.966 444.945C220.464 445.949 218.455 448.962 218.957 448.962C219.459 448.962 219.961 448.46 220.464 447.958C221.97 446.953 222.975 444.945 223.477 444.443C223.979 443.94 226.49 442.434 226.992 442.434C226.992 442.434 225.486 443.438 224.983 444.443C224.481 444.945 223.979 446.953 223.979 446.953C223.979 446.953 223.477 449.967 224.481 449.967C225.486 449.967 225.988 446.953 225.988 446.953C225.988 446.953 226.49 446.451 226.992 445.949C226.992 445.949 230.507 447.456 234.023 447.456C237.538 447.456 239.045 446.451 239.045 446.451C239.547 447.456 274.701 458.002 278.216 459.006C281.731 460.011 284.745 457.5 284.745 455.993C286.251 449.464 278.216 430.381 273.194 417.324C268.674 404.769 260.639 413.809 260.137 416.32Z" fill="#FFCAB8"/>
<path fill-rule="evenodd" clip-rule="evenodd" d="M260.137 416.32C259.133 423.351 268.172 440.927 270.683 445.447C272.19 445.447 273.696 445.447 275.705 444.443C280.225 442.434 286.251 449.465 279.22 453.482C274.701 456.495 267.67 453.984 239.045 444.443C236.534 443.438 233.521 445.447 231.512 445.447C230.508 445.447 228.499 444.443 226.992 444.945C224.983 446.451 224.481 447.958 223.979 449.967C223.979 449.967 223.979 450.469 223.477 450.469C223.477 450.469 223.477 450.469 223.979 450.469C224.983 450.469 225.486 447.456 225.486 447.456C225.486 447.456 225.988 446.954 226.49 446.451C226.49 446.451 230.005 447.958 233.521 447.958C237.036 447.958 238.543 446.954 238.543 446.954C239.045 447.958 274.198 458.504 277.714 459.509C281.229 460.513 284.242 458.002 284.242 456.495C285.749 449.967 277.714 430.883 272.692 417.826C268.674 404.769 260.639 413.809 260.137 416.32Z" fill="#FFC3AB"/>
<path fill-rule="evenodd" clip-rule="evenodd" d="M263.652 406.778C254.613 408.787 253.608 420.337 269.679 443.94C269.679 443.94 279.722 443.438 284.744 438.416C284.744 438.416 273.696 404.769 263.652 406.778Z" fill="url(#paint44_linear_9_3015)"/>
<path fill-rule="evenodd" clip-rule="evenodd" d="M268.674 408.284C277.212 414.813 265.159 427.368 262.146 431.888C264.155 435.403 266.163 439.42 269.176 443.94C269.176 443.94 279.22 443.438 284.242 438.416C284.745 438.416 277.212 414.813 268.674 408.284Z" fill="url(#paint45_linear_9_3015)"/>
<path fill-rule="evenodd" clip-rule="evenodd" d="M248.586 401.254L249.089 403.765C249.089 403.765 242.56 413.307 236.534 412.302C236.534 412.302 241.556 416.822 243.062 420.337C243.062 420.337 250.595 413.307 251.6 406.778C252.102 402.76 248.586 401.254 248.586 401.254Z" fill="white"/>
<path d="M216.446 463.527C216.446 465.033 217.45 466.038 218.957 466.038H277.212C278.718 466.038 279.722 465.033 279.722 463.527H216.446Z" fill="#42445D"/>
<path d="M210.42 412.302C209.917 410.293 207.909 408.787 205.9 408.787H170.244V465.033L219.459 465.535C222.472 465.535 222.472 463.024 222.472 462.522L210.42 412.302Z" fill="#42445D"/>
<path d="M207.909 410.293C207.909 409.791 207.406 409.289 206.402 409.289H143.628C142.623 409.289 142.121 410.293 142.121 411.298L153.672 461.015C154.676 464.028 157.187 466.037 160.702 466.037H218.957C219.961 466.037 220.464 465.033 220.464 464.028L207.909 410.293Z" fill="white"/>
<g filter="url(#filter0_d_9_3015)">
<path fill-rule="evenodd" clip-rule="evenodd" d="M229 136.004C224.029 136.004 220 131.975 220 127.004V57.0044C220 52.0338 224.029 48.0044 229 48.0044H414C418.971 48.0044 423 52.0338 423 57.0044V127.004C423 131.975 418.971 136.004 414 136.004H229Z" fill="white"/>
</g>
<g clip-path="url(#clip1_9_3015)">
<g clip-path="url(#clip2_9_3015)">
<mask id="mask0_9_3015" style="mask-type:luminance" maskUnits="userSpaceOnUse" x="239" y="86" width="37" height="38">
<path fill-rule="evenodd" clip-rule="evenodd" d="M239 104.504C239 94.2871 247.283 86.0043 257.5 86.0043C267.717 86.0043 276 94.2871 276 104.504C276 114.722 267.717 123.004 257.5 123.004C247.283 123.004 239 114.722 239 104.504Z" fill="white"/>
</mask>
<g mask="url(#mask0_9_3015)">
<path fill-rule="evenodd" clip-rule="evenodd" d="M239 85.9956H276V122.996H239V85.9956Z" fill="#EDEDED"/>
</g>
<mask id="mask1_9_3015" style="mask-type:luminance" maskUnits="userSpaceOnUse" x="269" y="86" width="37" height="38">
<path fill-rule="evenodd" clip-rule="evenodd" d="M269 104.504C269 94.2871 277.283 86.0043 287.5 86.0043C297.717 86.0043 306 94.2871 306 104.504C306 114.722 297.717 123.004 287.5 123.004C277.283 123.004 269 114.722 269 104.504Z" fill="white"/>
</mask>
<g mask="url(#mask1_9_3015)">
<path fill-rule="evenodd" clip-rule="evenodd" d="M269 85.9956H306V122.996H269V85.9956Z" fill="#EDEDED"/>
</g>
<mask id="mask2_9_3015" style="mask-type:luminance" maskUnits="userSpaceOnUse" x="296" y="86" width="37" height="38">
<path fill-rule="evenodd" clip-rule="evenodd" d="M296 104.504C296 94.2871 304.283 86.0043 314.5 86.0043C324.717 86.0043 333 94.2871 333 104.504C333 114.722 324.717 123.004 314.5 123.004C304.283 123.004 296 114.722 296 104.504Z" fill="white"/>
</mask>
<g mask="url(#mask2_9_3015)">
<path fill-rule="evenodd" clip-rule="evenodd" d="M296 85.9956H333V122.996H296V85.9956Z" fill="#EDEDED"/>
</g>
<mask id="mask3_9_3015" style="mask-type:luminance" maskUnits="userSpaceOnUse" x="324" y="86" width="37" height="38">
<path fill-rule="evenodd" clip-rule="evenodd" d="M324 104.504C324 94.2871 332.283 86.0043 342.5 86.0043C352.717 86.0043 361 94.2871 361 104.504C361 114.722 352.717 123.004 342.5 123.004C332.283 123.004 324 114.722 324 104.504Z" fill="white"/>
</mask>
<g mask="url(#mask3_9_3015)">
<path fill-rule="evenodd" clip-rule="evenodd" d="M324 85.9956H361V122.996H324V85.9956Z" fill="#EDEDED"/>
</g>
<path d="M376.315 112.281V109.967H374.17V108.836H376.315V106.522H377.485V108.836H379.63V109.967H377.485V112.281H376.315ZM381.064 114.036V113.009L384.795 109.109C385.021 108.875 385.194 108.662 385.315 108.472C385.445 108.281 385.536 108.099 385.588 107.926C385.649 107.744 385.679 107.557 385.679 107.367C385.679 106.985 385.523 106.669 385.211 106.418C384.899 106.166 384.505 106.041 384.028 106.041C383.612 106.041 383.222 106.123 382.858 106.288C382.494 106.452 382.096 106.738 381.662 107.146L380.856 106.171C381.359 105.711 381.875 105.369 382.403 105.144C382.932 104.91 383.482 104.793 384.054 104.793C384.652 104.793 385.177 104.901 385.627 105.118C386.078 105.326 386.429 105.616 386.68 105.989C386.932 106.361 387.057 106.795 387.057 107.289C387.057 107.583 387.018 107.861 386.94 108.121C386.862 108.381 386.728 108.645 386.537 108.914C386.355 109.182 386.1 109.49 385.77 109.837L382.871 112.827L387.226 112.814V114.036H381.064ZM389.44 114.153C389.189 114.153 388.972 114.062 388.79 113.88C388.617 113.689 388.53 113.468 388.53 113.217C388.53 112.948 388.617 112.723 388.79 112.541C388.972 112.359 389.189 112.268 389.44 112.268C389.692 112.268 389.904 112.359 390.077 112.541C390.259 112.723 390.35 112.948 390.35 113.217C390.35 113.468 390.259 113.689 390.077 113.88C389.904 114.062 389.692 114.153 389.44 114.153ZM394.655 114.179C393.424 114.179 392.358 113.767 391.457 112.944L392.315 111.969C392.705 112.315 393.086 112.567 393.459 112.723C393.84 112.879 394.256 112.957 394.707 112.957C395.097 112.957 395.435 112.883 395.721 112.736C396.016 112.588 396.241 112.38 396.397 112.112C396.562 111.834 396.644 111.522 396.644 111.176C396.644 110.664 396.458 110.253 396.085 109.941C395.721 109.62 395.249 109.46 394.668 109.46C394.365 109.46 394.066 109.499 393.771 109.577C393.476 109.655 393.173 109.776 392.861 109.941L391.873 109.642L392.081 104.936H397.606V106.158H393.29L393.16 108.797C393.481 108.641 393.793 108.528 394.096 108.459C394.408 108.389 394.733 108.355 395.071 108.355C395.678 108.355 396.206 108.472 396.657 108.706C397.108 108.931 397.459 109.252 397.71 109.668C397.961 110.075 398.087 110.552 398.087 111.098C398.087 111.713 397.944 112.25 397.658 112.71C397.372 113.169 396.969 113.529 396.449 113.789C395.938 114.049 395.34 114.179 394.655 114.179ZM399.775 114.036V104.936H401.335V109.083L405.287 104.936H407.198L402.856 109.317L407.354 114.036H405.287L401.335 109.785V114.036H399.775Z" fill="url(#paint46_linear_9_3015)"/>
</g>
<path d="M240.144 78.0356V68.9356H241.145V73.0046H246.371V68.9356H247.372V78.0356H246.371V73.9016H241.145V78.0356H240.144ZM251.333 78.1526C250.882 78.1526 250.483 78.0703 250.137 77.9056C249.79 77.741 249.517 77.5156 249.318 77.2296C249.127 76.935 249.032 76.597 249.032 76.2156C249.032 75.8343 249.131 75.505 249.331 75.2276C249.53 74.9416 249.807 74.7206 250.163 74.5646C250.518 74.4086 250.934 74.3306 251.411 74.3306C251.775 74.3306 252.117 74.3696 252.438 74.4476C252.767 74.5256 253.07 74.6513 253.348 74.8246V73.9536C253.348 73.4336 253.209 73.0436 252.932 72.7836C252.654 72.515 252.247 72.3806 251.71 72.3806C251.415 72.3806 251.112 72.424 250.8 72.5106C250.496 72.5973 250.158 72.736 249.786 72.9266L249.435 72.1986C250.284 71.7913 251.081 71.5876 251.827 71.5876C252.615 71.5876 253.222 71.7826 253.647 72.1726C254.071 72.554 254.284 73.1043 254.284 73.8236V78.0356H253.348V77.2946C253.07 77.5806 252.763 77.7973 252.425 77.9446C252.087 78.0833 251.723 78.1526 251.333 78.1526ZM249.942 76.1896C249.942 76.5623 250.085 76.8613 250.371 77.0866C250.665 77.312 251.051 77.4246 251.528 77.4246C251.883 77.4246 252.208 77.364 252.503 77.2426C252.806 77.1213 253.088 76.9393 253.348 76.6966V75.4746C253.079 75.3186 252.802 75.206 252.516 75.1366C252.23 75.0586 251.909 75.0196 251.554 75.0196C251.068 75.0196 250.678 75.128 250.384 75.3446C250.089 75.5526 249.942 75.8343 249.942 76.1896ZM256.212 80.7526V71.6916H257.148V72.6016C257.391 72.281 257.686 72.0383 258.032 71.8736C258.388 71.7003 258.778 71.6136 259.202 71.6136C259.757 71.6136 260.251 71.761 260.684 72.0556C261.126 72.3416 261.477 72.7316 261.737 73.2256C261.997 73.711 262.127 74.257 262.127 74.8636C262.127 75.4703 261.993 76.0206 261.724 76.5146C261.464 77.0086 261.109 77.403 260.658 77.6976C260.216 77.9836 259.714 78.1266 259.15 78.1266C258.752 78.1266 258.383 78.053 258.045 77.9056C257.707 77.7496 257.413 77.5286 257.161 77.2426V80.7526H256.212ZM258.968 77.3076C259.393 77.3076 259.77 77.2036 260.099 76.9956C260.437 76.779 260.702 76.4886 260.892 76.1246C261.092 75.752 261.191 75.336 261.191 74.8766C261.191 74.4086 261.092 73.9926 260.892 73.6286C260.702 73.2646 260.437 72.9786 260.099 72.7706C259.77 72.554 259.393 72.4456 258.968 72.4456C258.596 72.4456 258.249 72.5236 257.928 72.6796C257.616 72.827 257.361 73.0393 257.161 73.3166V76.4236C257.369 76.701 257.629 76.9176 257.941 77.0736C258.262 77.2296 258.604 77.3076 258.968 77.3076ZM263.791 80.7526V71.6916H264.727V72.6016C264.97 72.281 265.265 72.0383 265.611 71.8736C265.967 71.7003 266.357 71.6136 266.781 71.6136C267.336 71.6136 267.83 71.761 268.263 72.0556C268.705 72.3416 269.056 72.7316 269.316 73.2256C269.576 73.711 269.706 74.257 269.706 74.8636C269.706 75.4703 269.572 76.0206 269.303 76.5146C269.043 77.0086 268.688 77.403 268.237 77.6976C267.795 77.9836 267.293 78.1266 266.729 78.1266C266.331 78.1266 265.962 78.053 265.624 77.9056C265.286 77.7496 264.992 77.5286 264.74 77.2426V80.7526H263.791ZM266.547 77.3076C266.972 77.3076 267.349 77.2036 267.678 76.9956C268.016 76.779 268.281 76.4886 268.471 76.1246C268.671 75.752 268.77 75.336 268.77 74.8766C268.77 74.4086 268.671 73.9926 268.471 73.6286C268.281 73.2646 268.016 72.9786 267.678 72.7706C267.349 72.554 266.972 72.4456 266.547 72.4456C266.175 72.4456 265.828 72.5236 265.507 72.6796C265.195 72.827 264.94 73.0393 264.74 73.3166V76.4236C264.948 76.701 265.208 76.9176 265.52 77.0736C265.841 77.2296 266.183 77.3076 266.547 77.3076ZM271.453 80.8826C271.254 80.8826 271.05 80.8523 270.842 80.7916V79.9466C270.929 79.964 271.02 79.977 271.115 79.9856C271.21 79.9943 271.293 79.9986 271.362 79.9986C271.605 79.9986 271.804 79.9336 271.96 79.8036C272.125 79.6736 272.263 79.47 272.376 79.1926L272.844 78.0356L270.4 71.6916H271.453L273.377 76.9046L275.418 71.6916H276.471L273.273 79.4786C273.134 79.8166 272.983 80.0896 272.818 80.2976C272.653 80.5056 272.463 80.653 272.246 80.7396C272.029 80.835 271.765 80.8826 271.453 80.8826ZM285.07 78.1786C284.42 78.1786 283.813 78.0616 283.25 77.8276C282.695 77.585 282.206 77.2513 281.781 76.8266C281.356 76.3933 281.027 75.895 280.793 75.3316C280.559 74.7596 280.442 74.1443 280.442 73.4856C280.442 72.827 280.559 72.216 280.793 71.6526C281.027 71.0806 281.356 70.5823 281.781 70.1576C282.206 69.7243 282.695 69.3906 283.25 69.1566C283.813 68.914 284.42 68.7926 285.07 68.7926C285.521 68.7926 285.95 68.8533 286.357 68.9746C286.773 69.0873 287.163 69.2563 287.527 69.4816C287.891 69.6983 288.216 69.967 288.502 70.2876L287.839 70.9766C287.501 70.5693 287.085 70.2573 286.591 70.0406C286.106 69.8153 285.599 69.7026 285.07 69.7026C284.559 69.7026 284.082 69.798 283.64 69.9886C283.198 70.1793 282.812 70.448 282.483 70.7946C282.162 71.1413 281.911 71.5443 281.729 72.0036C281.547 72.4543 281.456 72.9483 281.456 73.4856C281.456 74.0143 281.547 74.5083 281.729 74.9676C281.911 75.427 282.162 75.83 282.483 76.1766C282.812 76.5233 283.198 76.792 283.64 76.9826C284.082 77.1733 284.559 77.2686 285.07 77.2686C285.599 77.2686 286.106 77.156 286.591 76.9306C287.085 76.7053 287.501 76.3933 287.839 75.9946L288.502 76.6836C288.216 77.0043 287.891 77.2773 287.527 77.5026C287.163 77.7193 286.773 77.8883 286.357 78.0096C285.95 78.1223 285.521 78.1786 285.07 78.1786ZM290.121 78.0356V68.6496L291.07 68.4546V78.0356H290.121ZM293.003 78.0356V71.6916H293.952V78.0356H293.003ZM293.484 70.1186C293.293 70.1186 293.129 70.0536 292.99 69.9236C292.86 69.785 292.795 69.6246 292.795 69.4426C292.795 69.2606 292.86 69.1046 292.99 68.9746C293.129 68.836 293.293 68.7666 293.484 68.7666C293.675 68.7666 293.835 68.836 293.965 68.9746C294.104 69.1046 294.173 69.2606 294.173 69.4426C294.173 69.6246 294.104 69.785 293.965 69.9236C293.835 70.0536 293.675 70.1186 293.484 70.1186ZM298.758 78.1656C298.169 78.1656 297.636 78.0226 297.159 77.7366C296.682 77.442 296.305 77.0476 296.028 76.5536C295.751 76.051 295.612 75.4876 295.612 74.8636C295.612 74.2396 295.742 73.6806 296.002 73.1866C296.271 72.6926 296.63 72.3026 297.081 72.0166C297.532 71.7306 298.034 71.5876 298.589 71.5876C299.152 71.5876 299.651 71.7306 300.084 72.0166C300.526 72.294 300.873 72.6753 301.124 73.1606C301.384 73.6373 301.514 74.179 301.514 74.7856V75.0716H296.535C296.57 75.505 296.687 75.895 296.886 76.2416C297.094 76.5796 297.363 76.8483 297.692 77.0476C298.03 77.2383 298.398 77.3336 298.797 77.3336C299.126 77.3336 299.443 77.2773 299.746 77.1646C300.058 77.0433 300.322 76.883 300.539 76.6836L301.137 77.3206C300.773 77.6066 300.396 77.819 300.006 77.9576C299.616 78.0963 299.2 78.1656 298.758 78.1656ZM296.561 74.3956H300.578C300.535 74.0143 300.418 73.6763 300.227 73.3816C300.045 73.0783 299.811 72.84 299.525 72.6666C299.248 72.4933 298.936 72.4066 298.589 72.4066C298.242 72.4066 297.926 72.4933 297.64 72.6666C297.354 72.8313 297.116 73.0653 296.925 73.3686C296.743 73.6633 296.622 74.0056 296.561 74.3956ZM303.134 78.0356V71.6916H304.083V72.7186C304.326 72.3373 304.616 72.0556 304.954 71.8736C305.292 71.683 305.674 71.5876 306.098 71.5876C306.558 71.5876 306.956 71.6873 307.294 71.8866C307.641 72.0773 307.91 72.3503 308.1 72.7056C308.3 73.0523 308.399 73.4596 308.399 73.9276V78.0356H307.45V74.2006C307.45 73.6373 307.294 73.1953 306.982 72.8746C306.679 72.5453 306.267 72.3806 305.747 72.3806C305.401 72.3806 305.084 72.463 304.798 72.6276C304.512 72.7923 304.274 73.035 304.083 73.3556V78.0356H303.134ZM312.535 78.1656C311.989 78.1656 311.573 78.0356 311.287 77.7756C311.009 77.507 310.871 77.1213 310.871 76.6186V72.4716H309.558V71.6916H310.871V69.9496L311.82 69.7286V71.6916H313.64V72.4716H311.82V76.3716C311.82 76.7096 311.889 76.9523 312.028 77.0996C312.175 77.247 312.413 77.3206 312.743 77.3206C312.907 77.3206 313.055 77.3076 313.185 77.2816C313.315 77.2556 313.466 77.2123 313.64 77.1516V77.9966C313.466 78.0573 313.284 78.1006 313.094 78.1266C312.903 78.1526 312.717 78.1656 312.535 78.1656ZM317.12 78.1656C316.6 78.1656 316.119 78.0876 315.677 77.9316C315.235 77.767 314.858 77.533 314.546 77.2296L315.053 76.6056C315.434 76.883 315.785 77.0866 316.106 77.2166C316.426 77.338 316.756 77.3986 317.094 77.3986C317.553 77.3986 317.934 77.2903 318.238 77.0736C318.541 76.857 318.693 76.5796 318.693 76.2416C318.693 75.9816 318.602 75.778 318.42 75.6306C318.246 75.4833 317.956 75.3706 317.549 75.2926L316.509 75.1106C315.893 74.998 315.438 74.8073 315.144 74.5386C314.858 74.27 314.715 73.906 314.715 73.4466C314.715 73.0826 314.81 72.762 315.001 72.4846C315.2 72.2073 315.473 71.9906 315.82 71.8346C316.166 71.67 316.561 71.5876 317.003 71.5876C317.436 71.5876 317.848 71.6526 318.238 71.7826C318.628 71.904 319.022 72.1033 319.421 72.3806L318.953 73.0436C318.623 72.8096 318.294 72.6406 317.965 72.5366C317.635 72.424 317.302 72.3676 316.964 72.3676C316.548 72.3676 316.214 72.4586 315.963 72.6406C315.711 72.8226 315.586 73.0696 315.586 73.3816C315.586 73.6416 315.664 73.841 315.82 73.9796C315.984 74.1183 316.27 74.2223 316.678 74.2916L317.744 74.4866C318.385 74.5993 318.853 74.7943 319.148 75.0716C319.442 75.349 319.59 75.7216 319.59 76.1896C319.59 76.5623 319.481 76.9003 319.265 77.2036C319.048 77.4983 318.753 77.7323 318.381 77.9056C318.008 78.079 317.588 78.1656 317.12 78.1656Z" fill="black"/>
</g>
</g>
<defs>
<filter id="filter0_d_9_3015" x="200" y="31.0044" width="243" height="128" filterUnits="userSpaceOnUse" color-interpolation-filters="sRGB">
<feFlood flood-opacity="0" result="BackgroundImageFix"/>
<feColorMatrix in="SourceAlpha" type="matrix" values="0 0 0 0 0 0 0 0 0 0 0 0 0 0 0 0 0 0 127 0" result="hardAlpha"/>
<feOffset dy="3"/>
<feGaussianBlur stdDeviation="10"/>
<feColorMatrix type="matrix" values="0 0 0 0 0 0 0 0 0 0 0 0 0 0 0 0 0 0 0.1 0"/>
<feBlend mode="normal" in2="BackgroundImageFix" result="effect1_dropShadow_9_3015"/>
<feBlend mode="normal" in="SourceGraphic" in2="effect1_dropShadow_9_3015" result="shape"/>
</filter>
<linearGradient id="paint0_linear_9_3015" x1="0" y1="499.078" x2="1298.87" y2="499.078" gradientUnits="userSpaceOnUse">
<stop offset="1.5e-07" stop-color="#EFF6FF"/>
<stop offset="1" stop-color="#C4D8FB"/>
</linearGradient>
<linearGradient id="paint1_linear_9_3015" x1="220.463" y1="381.808" x2="433.423" y2="385.179" gradientUnits="userSpaceOnUse">
<stop stop-color="#4B66BA"/>
<stop offset="1" stop-color="#8C68C8"/>
</linearGradient>
<linearGradient id="paint2_linear_9_3015" x1="363.382" y1="173.923" x2="216.943" y2="286.929" gradientUnits="userSpaceOnUse">
<stop stop-color="#F86761"/>
<stop offset="1" stop-color="#FEA07D"/>
</linearGradient>
<linearGradient id="paint3_linear_9_3015" x1="753.794" y1="415.817" x2="749.503" y2="451.115" gradientUnits="userSpaceOnUse">
<stop stop-color="#F86761"/>
<stop offset="1" stop-color="#FEA07D"/>
</linearGradient>
<linearGradient id="paint4_linear_9_3015" x1="460.639" y1="181.44" x2="568.577" y2="181.44" gradientUnits="userSpaceOnUse">
<stop offset="1.5e-07" stop-color="#EFF6FF"/>
<stop offset="1" stop-color="#C4D8FB"/>
</linearGradient>
<linearGradient id="paint5_linear_9_3015" x1="440.247" y1="171.406" x2="456.782" y2="171.406" gradientUnits="userSpaceOnUse">
<stop offset="1.5e-07" stop-color="#EFF6FF"/>
<stop offset="1" stop-color="#C4D8FB"/>
</linearGradient>
<linearGradient id="paint6_linear_9_3015" x1="460.639" y1="171.406" x2="488.608" y2="171.406" gradientUnits="userSpaceOnUse">
<stop offset="1.5e-07" stop-color="#EFF6FF"/>
<stop offset="1" stop-color="#C4D8FB"/>
</linearGradient>
<linearGradient id="paint7_linear_9_3015" x1="491.087" y1="171.406" x2="530.215" y2="171.406" gradientUnits="userSpaceOnUse">
<stop offset="1.5e-07" stop-color="#EFF6FF"/>
<stop offset="1" stop-color="#C4D8FB"/>
</linearGradient>
<linearGradient id="paint8_linear_9_3015" x1="440.247" y1="200.525" x2="456.782" y2="200.525" gradientUnits="userSpaceOnUse">
<stop offset="1.5e-07" stop-color="#EFF6FF"/>
<stop offset="1" stop-color="#C4D8FB"/>
</linearGradient>
<linearGradient id="paint9_linear_9_3015" x1="460.639" y1="200.525" x2="579.462" y2="200.525" gradientUnits="userSpaceOnUse">
<stop offset="1.5e-07" stop-color="#EFF6FF"/>
<stop offset="1" stop-color="#C4D8FB"/>
</linearGradient>
<linearGradient id="paint10_linear_9_3015" x1="440.247" y1="162.115" x2="456.782" y2="162.115" gradientUnits="userSpaceOnUse">
<stop offset="1.5e-07" stop-color="#EFF6FF"/>
<stop offset="1" stop-color="#C4D8FB"/>
</linearGradient>
<linearGradient id="paint11_linear_9_3015" x1="515.748" y1="162.115" x2="588.139" y2="162.115" gradientUnits="userSpaceOnUse">
<stop offset="1.5e-07" stop-color="#EFF6FF"/>
<stop offset="1" stop-color="#C4D8FB"/>
</linearGradient>
<linearGradient id="paint12_linear_9_3015" x1="460.639" y1="162.115" x2="496.185" y2="162.115" gradientUnits="userSpaceOnUse">
<stop offset="1.5e-07" stop-color="#EFF6FF"/>
<stop offset="1" stop-color="#C4D8FB"/>
</linearGradient>
<linearGradient id="paint13_linear_9_3015" x1="497.977" y1="162.115" x2="513.683" y2="162.115" gradientUnits="userSpaceOnUse">
<stop offset="1.5e-07" stop-color="#EFF6FF"/>
<stop offset="1" stop-color="#C4D8FB"/>
</linearGradient>
<linearGradient id="paint14_linear_9_3015" x1="515.748" y1="190.491" x2="584.525" y2="190.491" gradientUnits="userSpaceOnUse">
<stop offset="1.5e-07" stop-color="#EFF6FF"/>
<stop offset="1" stop-color="#C4D8FB"/>
</linearGradient>
<linearGradient id="paint15_linear_9_3015" x1="460.639" y1="190.491" x2="496.185" y2="190.491" gradientUnits="userSpaceOnUse">
<stop offset="1.5e-07" stop-color="#EFF6FF"/>
<stop offset="1" stop-color="#C4D8FB"/>
</linearGradient>
<linearGradient id="paint16_linear_9_3015" x1="497.977" y1="190.491" x2="513.683" y2="190.491" gradientUnits="userSpaceOnUse">
<stop offset="1.5e-07" stop-color="#EFF6FF"/>
<stop offset="1" stop-color="#C4D8FB"/>
</linearGradient>
<linearGradient id="paint17_linear_9_3015" x1="771.916" y1="306.386" x2="849.419" y2="306.386" gradientUnits="userSpaceOnUse">
<stop offset="1.5e-07" stop-color="#EFF6FF"/>
<stop offset="1" stop-color="#C4D8FB"/>
</linearGradient>
<linearGradient id="paint18_linear_9_3015" x1="751.527" y1="296.354" x2="768.057" y2="296.354" gradientUnits="userSpaceOnUse">
<stop offset="1.5e-07" stop-color="#EFF6FF"/>
<stop offset="1" stop-color="#C4D8FB"/>
</linearGradient>
<linearGradient id="paint19_linear_9_3015" x1="771.916" y1="296.354" x2="799.886" y2="296.354" gradientUnits="userSpaceOnUse">
<stop offset="1.5e-07" stop-color="#EFF6FF"/>
<stop offset="1" stop-color="#C4D8FB"/>
</linearGradient>
<linearGradient id="paint20_linear_9_3015" x1="802.364" y1="296.354" x2="841.493" y2="296.354" gradientUnits="userSpaceOnUse">
<stop offset="1.5e-07" stop-color="#EFF6FF"/>
<stop offset="1" stop-color="#C4D8FB"/>
</linearGradient>
<linearGradient id="paint21_linear_9_3015" x1="751.527" y1="355.907" x2="768.057" y2="355.907" gradientUnits="userSpaceOnUse">
<stop offset="1.5e-07" stop-color="#EFF6FF"/>
<stop offset="1" stop-color="#C4D8FB"/>
</linearGradient>
<linearGradient id="paint22_linear_9_3015" x1="771.916" y1="355.907" x2="860.303" y2="355.907" gradientUnits="userSpaceOnUse">
<stop offset="1.5e-07" stop-color="#EFF6FF"/>
<stop offset="1" stop-color="#C4D8FB"/>
</linearGradient>
<linearGradient id="paint23_linear_9_3015" x1="751.527" y1="287.061" x2="768.057" y2="287.061" gradientUnits="userSpaceOnUse">
<stop offset="1.5e-07" stop-color="#EFF6FF"/>
<stop offset="1" stop-color="#C4D8FB"/>
</linearGradient>
<linearGradient id="paint24_linear_9_3015" x1="827.028" y1="287.061" x2="868.982" y2="287.061" gradientUnits="userSpaceOnUse">
<stop offset="1.5e-07" stop-color="#EFF6FF"/>
<stop offset="1" stop-color="#C4D8FB"/>
</linearGradient>
<linearGradient id="paint25_linear_9_3015" x1="771.916" y1="287.061" x2="807.465" y2="287.061" gradientUnits="userSpaceOnUse">
<stop offset="1.5e-07" stop-color="#EFF6FF"/>
<stop offset="1" stop-color="#C4D8FB"/>
</linearGradient>
<linearGradient id="paint26_linear_9_3015" x1="809.253" y1="287.061" x2="824.961" y2="287.061" gradientUnits="userSpaceOnUse">
<stop offset="1.5e-07" stop-color="#EFF6FF"/>
<stop offset="1" stop-color="#C4D8FB"/>
</linearGradient>
<linearGradient id="paint27_linear_9_3015" x1="827.028" y1="345.873" x2="865.367" y2="345.873" gradientUnits="userSpaceOnUse">
<stop offset="1.5e-07" stop-color="#EFF6FF"/>
<stop offset="1" stop-color="#C4D8FB"/>
</linearGradient>
<linearGradient id="paint28_linear_9_3015" x1="771.916" y1="345.873" x2="807.465" y2="345.873" gradientUnits="userSpaceOnUse">
<stop offset="1.5e-07" stop-color="#EFF6FF"/>
<stop offset="1" stop-color="#C4D8FB"/>
</linearGradient>
<linearGradient id="paint29_linear_9_3015" x1="809.253" y1="345.873" x2="824.961" y2="345.873" gradientUnits="userSpaceOnUse">
<stop offset="1.5e-07" stop-color="#EFF6FF"/>
<stop offset="1" stop-color="#C4D8FB"/>
</linearGradient>
<linearGradient id="paint30_linear_9_3015" x1="495.062" y1="199.371" x2="474.076" y2="232.738" gradientUnits="userSpaceOnUse">
<stop stop-color="#F86761"/>
<stop offset="1" stop-color="#FEA07D"/>
</linearGradient>
<linearGradient id="paint31_linear_9_3015" x1="492.618" y1="305.334" x2="438.715" y2="343.47" gradientUnits="userSpaceOnUse">
<stop stop-color="#F86761"/>
<stop offset="1" stop-color="#FEA07D"/>
</linearGradient>
<linearGradient id="paint32_linear_9_3015" x1="485.588" y1="308.348" x2="437.817" y2="335.744" gradientUnits="userSpaceOnUse">
<stop stop-color="#F86761"/>
<stop offset="1" stop-color="#FEA07D"/>
</linearGradient>
<linearGradient id="paint33_linear_9_3015" x1="491.317" y1="232.761" x2="450.82" y2="274.806" gradientUnits="userSpaceOnUse">
<stop stop-color="#F86761"/>
<stop offset="1" stop-color="#FEA07D"/>
</linearGradient>
<linearGradient id="paint34_linear_9_3015" x1="488.859" y1="241.054" x2="452.55" y2="276.822" gradientUnits="userSpaceOnUse">
<stop stop-color="#F86761"/>
<stop offset="1" stop-color="#FEA07D"/>
</linearGradient>
<linearGradient id="paint35_linear_9_3015" x1="501.693" y1="191.839" x2="491.873" y2="204.958" gradientUnits="userSpaceOnUse">
<stop stop-color="#F86761"/>
<stop offset="1" stop-color="#FEA07D"/>
</linearGradient>
<linearGradient id="paint36_linear_9_3015" x1="478.713" y1="191.839" x2="472.705" y2="194.465" gradientUnits="userSpaceOnUse">
<stop stop-color="#F86761"/>
<stop offset="1" stop-color="#FEA07D"/>
</linearGradient>
<linearGradient id="paint37_linear_9_3015" x1="483.865" y1="277.714" x2="456.122" y2="302.754" gradientUnits="userSpaceOnUse">
<stop stop-color="#F86761"/>
<stop offset="1" stop-color="#FEA07D"/>
</linearGradient>
<linearGradient id="paint38_linear_9_3015" x1="212.68" y1="409.262" x2="195.294" y2="425.707" gradientUnits="userSpaceOnUse">
<stop stop-color="#F86761"/>
<stop offset="1" stop-color="#FEA07D"/>
</linearGradient>
<linearGradient id="paint39_linear_9_3015" x1="215.19" y1="409.262" x2="198.188" y2="422.917" gradientUnits="userSpaceOnUse">
<stop stop-color="#F86761"/>
<stop offset="1" stop-color="#FEA07D"/>
</linearGradient>
<linearGradient id="paint40_linear_9_3015" x1="233.932" y1="404.694" x2="195.027" y2="444.957" gradientUnits="userSpaceOnUse">
<stop stop-color="#F86761"/>
<stop offset="1" stop-color="#FEA07D"/>
</linearGradient>
<linearGradient id="paint41_linear_9_3015" x1="247.361" y1="413.306" x2="214.399" y2="438.848" gradientUnits="userSpaceOnUse">
<stop stop-color="#F86761"/>
<stop offset="1" stop-color="#FEA07D"/>
</linearGradient>
<linearGradient id="paint42_linear_9_3015" x1="208.913" y1="474.574" x2="202.023" y2="499.826" gradientUnits="userSpaceOnUse">
<stop stop-color="#F86761"/>
<stop offset="1" stop-color="#FEA07D"/>
</linearGradient>
<linearGradient id="paint43_linear_9_3015" x1="234.175" y1="467.543" x2="221.079" y2="500.758" gradientUnits="userSpaceOnUse">
<stop stop-color="#F86761"/>
<stop offset="1" stop-color="#FEA07D"/>
</linearGradient>
<linearGradient id="paint44_linear_9_3015" x1="270.949" y1="406.691" x2="252.077" y2="423.67" gradientUnits="userSpaceOnUse">
<stop stop-color="#F86761"/>
<stop offset="1" stop-color="#FEA07D"/>
</linearGradient>
<linearGradient id="paint45_linear_9_3015" x1="273.206" y1="408.284" x2="255.744" y2="421.442" gradientUnits="userSpaceOnUse">
<stop stop-color="#F86761"/>
<stop offset="1" stop-color="#FEA07D"/>
</linearGradient>
<linearGradient id="paint46_linear_9_3015" x1="390.5" y1="98.0356" x2="380.691" y2="116.165" gradientUnits="userSpaceOnUse">
<stop stop-color="#F86761"/>
<stop offset="1" stop-color="#FEA07D"/>
</linearGradient>
<clipPath id="clip0_9_3015">
<rect width="1298.68" height="572" fill="white"/>
</clipPath>
<clipPath id="clip1_9_3015">
<rect width="167" height="60.9643" fill="white" transform="translate(239 62.0356)"/>
</clipPath>
<clipPath id="clip2_9_3015">
<rect width="167" height="37" fill="white" transform="translate(239 86)"/>
</clipPath>
</defs>
</svg>
