<svg width="768" height="529" viewBox="0 0 768 529" fill="none" xmlns="http://www.w3.org/2000/svg">
<circle cx="593.014" cy="416.259" r="105.924" fill="#8C68C8"/>
<circle cx="475.856" cy="492.493" r="12.0368" fill="#F56666"/>
<circle cx="190.984" cy="19.0442" r="12.0368" fill="#E3F6FF"/>
<circle cx="106.727" cy="56.7595" r="56.1719" fill="#FEA07D"/>
<g filter="url(#filter0_b_12_240)">
<rect y="61.5742" width="628.323" height="387.586" rx="16.0491" fill="#F4F4F4" fill-opacity="0.6"/>
</g>
<g filter="url(#filter1_b_12_240)">
<path d="M0 77.6233C0 68.7596 7.18543 61.5742 16.0491 61.5742H612.273C621.137 61.5742 628.323 68.7596 628.323 77.6233V88.8577H0V77.6233Z" fill="#EAEAEA" fill-opacity="0.6"/>
</g>
<circle cx="27.3015" cy="74.824" r="5.61719" fill="#EE6767"/>
<circle cx="46.5605" cy="74.824" r="5.61719" fill="#F7C566"/>
<circle cx="65.8194" cy="74.824" r="5.61719" fill="#5BEB7B"/>
<g filter="url(#filter2_d_12_240)">
<rect x="35.8401" y="367.042" width="122.938" height="40.9795" rx="20.4897" fill="#4B66BA"/>
</g>
<path d="M67.1687 393.334V380.815H72.6026C73.9759 380.815 75.0354 381.158 75.7812 381.845C76.5271 382.532 76.9 383.491 76.9 384.722C76.9 385.953 76.5271 386.918 75.7812 387.616C75.0354 388.303 73.9759 388.646 72.6026 388.646H69.4417V393.334H67.1687ZM69.4417 386.853H72.2474C73.8811 386.853 74.698 386.142 74.698 384.722C74.698 383.313 73.8811 382.609 72.2474 382.609H69.4417V386.853ZM78.3664 393.334V384.651H80.5328V386.178C80.959 385.148 81.8706 384.58 83.2675 384.473L83.9423 384.42L84.0844 386.302L82.8058 386.426C81.3497 386.569 80.6216 387.314 80.6216 388.664V393.334H78.3664ZM89.4612 393.512C88.4786 393.512 87.6322 393.328 86.9219 392.961C86.2116 392.594 85.6611 392.073 85.2704 391.399C84.8916 390.724 84.7021 389.925 84.7021 389.001C84.7021 388.102 84.8856 387.314 85.2526 386.64C85.6315 385.965 86.1464 385.438 86.7976 385.059C87.4605 384.668 88.2123 384.473 89.0528 384.473C90.284 384.473 91.2548 384.864 91.9651 385.645C92.6872 386.426 93.0483 387.492 93.0483 388.842V389.499H86.8331C86.9988 391.049 87.8867 391.825 89.4967 391.825C89.9821 391.825 90.4675 391.754 90.9529 391.612C91.4383 391.458 91.8822 391.221 92.2847 390.901L92.9062 392.393C92.4919 392.736 91.971 393.009 91.3435 393.21C90.7161 393.411 90.0887 393.512 89.4612 393.512ZM89.1416 385.983C88.4905 385.983 87.9637 386.184 87.5611 386.586C87.1586 386.989 86.9159 387.533 86.8331 388.22H91.2015C91.1541 387.498 90.9529 386.947 90.5977 386.569C90.2544 386.178 89.769 385.983 89.1416 385.983ZM97.9848 393.512C97.2508 393.512 96.5642 393.423 95.9249 393.245C95.2856 393.068 94.7529 392.813 94.3267 392.482L94.895 391.026C95.333 391.322 95.8243 391.553 96.3689 391.718C96.9134 391.872 97.458 391.949 98.0026 391.949C98.5708 391.949 98.9911 391.854 99.2634 391.665C99.5475 391.464 99.6896 391.203 99.6896 390.884C99.6896 390.386 99.3226 390.067 98.5886 389.925L96.8128 389.587C95.3093 389.303 94.5576 388.522 94.5576 387.243C94.5576 386.675 94.7115 386.184 95.0193 385.769C95.3389 385.355 95.7769 385.035 96.3333 384.811C96.8897 384.586 97.529 384.473 98.2512 384.473C98.8668 384.473 99.4587 384.562 100.027 384.739C100.595 384.905 101.081 385.16 101.483 385.503L100.879 386.959C100.536 386.675 100.122 386.45 99.6363 386.284C99.1627 386.119 98.707 386.036 98.2689 386.036C97.6888 386.036 97.2567 386.136 96.9726 386.338C96.7003 386.539 96.5642 386.805 96.5642 387.137C96.5642 387.658 96.9016 387.977 97.5764 388.096L99.3522 388.433C100.122 388.575 100.702 388.836 101.092 389.214C101.495 389.593 101.696 390.102 101.696 390.742C101.696 391.606 101.359 392.287 100.684 392.784C100.009 393.269 99.1095 393.512 97.9848 393.512ZM107.757 393.512C106.774 393.512 105.928 393.328 105.217 392.961C104.507 392.594 103.956 392.073 103.566 391.399C103.187 390.724 102.997 389.925 102.997 389.001C102.997 388.102 103.181 387.314 103.548 386.64C103.927 385.965 104.442 385.438 105.093 385.059C105.756 384.668 106.508 384.473 107.348 384.473C108.579 384.473 109.55 384.864 110.26 385.645C110.983 386.426 111.344 387.492 111.344 388.842V389.499H105.128C105.294 391.049 106.182 391.825 107.792 391.825C108.277 391.825 108.763 391.754 109.248 391.612C109.734 391.458 110.178 391.221 110.58 390.901L111.202 392.393C110.787 392.736 110.266 393.009 109.639 393.21C109.011 393.411 108.384 393.512 107.757 393.512ZM107.437 385.983C106.786 385.983 106.259 386.184 105.856 386.586C105.454 386.989 105.211 387.533 105.128 388.22H109.497C109.449 387.498 109.248 386.947 108.893 386.569C108.55 386.178 108.064 385.983 107.437 385.983ZM113.102 393.334V384.651H115.268V386C115.564 385.503 115.961 385.124 116.458 384.864C116.967 384.603 117.535 384.473 118.162 384.473C120.211 384.473 121.235 385.663 121.235 388.042V393.334H119.015V388.149C119.015 387.474 118.885 386.983 118.624 386.675C118.376 386.367 117.985 386.213 117.452 386.213C116.801 386.213 116.28 386.421 115.889 386.835C115.511 387.237 115.321 387.776 115.321 388.451V393.334H113.102ZM127.467 393.512C125.17 393.512 124.022 392.375 124.022 390.102V386.32H122.353V384.651H124.022V382.058H126.242V384.651H128.87V386.32H126.242V389.978C126.242 390.546 126.366 390.972 126.614 391.257C126.863 391.541 127.266 391.683 127.822 391.683C127.988 391.683 128.159 391.665 128.337 391.629C128.515 391.582 128.698 391.535 128.887 391.487L129.225 393.121C129.012 393.24 128.739 393.334 128.408 393.405C128.088 393.476 127.775 393.512 127.467 393.512Z" fill="white"/>
<rect x="178.145" y="361.692" width="135.615" height="52.1596" rx="26.0798" fill="#FFD4E1"/>
<g filter="url(#filter3_d_12_240)">
<rect x="184.565" y="367.31" width="122.938" height="40.9795" rx="20.4897" fill="url(#paint0_linear_12_240)"/>
</g>
<path d="M247.079 394.314C245.777 394.314 244.658 394.054 243.723 393.533C242.799 393 242.089 392.254 241.592 391.295C241.094 390.325 240.846 389.182 240.846 387.868C240.846 386.554 241.094 385.418 241.592 384.459C242.089 383.5 242.799 382.76 243.723 382.239C244.658 381.706 245.777 381.44 247.079 381.44C247.919 381.44 248.713 381.57 249.458 381.831C250.216 382.091 250.838 382.464 251.323 382.949L250.577 384.761C250.044 384.311 249.5 383.985 248.943 383.784C248.387 383.571 247.789 383.464 247.15 383.464C245.883 383.464 244.918 383.849 244.255 384.619C243.592 385.376 243.261 386.459 243.261 387.868C243.261 389.277 243.592 390.366 244.255 391.136C244.918 391.905 245.883 392.29 247.15 392.29C247.789 392.29 248.387 392.189 248.943 391.988C249.5 391.775 250.044 391.443 250.577 390.994L251.323 392.805C250.838 393.278 250.216 393.651 249.458 393.924C248.713 394.184 247.919 394.314 247.079 394.314ZM255.64 394.314C255.013 394.314 254.451 394.196 253.953 393.959C253.468 393.711 253.083 393.379 252.799 392.965C252.527 392.55 252.391 392.083 252.391 391.562C252.391 390.923 252.557 390.419 252.888 390.052C253.219 389.674 253.758 389.401 254.504 389.236C255.25 389.07 256.25 388.987 257.505 388.987H258.127V388.614C258.127 388.022 257.996 387.596 257.736 387.335C257.475 387.075 257.037 386.945 256.422 386.945C255.936 386.945 255.439 387.022 254.93 387.176C254.421 387.318 253.906 387.543 253.385 387.85L252.746 386.341C253.054 386.128 253.415 385.944 253.829 385.791C254.255 385.625 254.699 385.501 255.161 385.418C255.635 385.323 256.078 385.276 256.493 385.276C257.76 385.276 258.701 385.572 259.316 386.163C259.932 386.744 260.24 387.649 260.24 388.88V394.137H258.162V392.752C257.961 393.237 257.641 393.622 257.203 393.906C256.765 394.178 256.244 394.314 255.64 394.314ZM256.102 392.787C256.682 392.787 257.162 392.586 257.541 392.183C257.931 391.781 258.127 391.272 258.127 390.656V390.266H257.523C256.41 390.266 255.635 390.354 255.197 390.532C254.77 390.698 254.557 391.005 254.557 391.455C254.557 391.846 254.693 392.166 254.966 392.414C255.238 392.663 255.617 392.787 256.102 392.787ZM265.512 394.314C264.482 394.314 263.718 394.036 263.221 393.48C262.735 392.911 262.493 392.083 262.493 390.994V381.617H264.712V390.887C264.712 391.953 265.162 392.485 266.062 392.485C266.192 392.485 266.322 392.479 266.453 392.467C266.583 392.456 266.707 392.432 266.826 392.396L266.79 394.154C266.364 394.261 265.938 394.314 265.512 394.314ZM271.182 394.314C270.152 394.314 269.389 394.036 268.891 393.48C268.406 392.911 268.163 392.083 268.163 390.994V381.617H270.383V390.887C270.383 391.953 270.833 392.485 271.733 392.485C271.863 392.485 271.993 392.479 272.123 392.467C272.254 392.456 272.378 392.432 272.496 392.396L272.461 394.154C272.035 394.261 271.608 394.314 271.182 394.314Z" fill="white"/>
<g clip-path="url(#clip0_12_240)">
<path d="M231.877 381.607L229.103 380.967C228.801 380.898 228.492 381.055 228.369 381.338L227.088 384.326C226.976 384.587 227.051 384.894 227.273 385.073L228.889 386.396C227.929 388.443 226.251 390.145 224.162 391.124L222.838 389.507C222.657 389.286 222.353 389.211 222.091 389.323L219.103 390.604C218.818 390.729 218.66 391.038 218.73 391.34L219.37 394.115C219.437 394.403 219.693 394.611 219.994 394.611C226.827 394.611 232.374 389.075 232.374 382.232C232.374 381.933 232.168 381.674 231.877 381.607Z" fill="white"/>
</g>
<g filter="url(#filter4_f_12_240)">
<mask id="mask0_12_240" style="mask-type:alpha" maskUnits="userSpaceOnUse" x="75" y="157" width="189" height="183">
<rect x="75.4874" y="157.193" width="188.505" height="182.222" rx="13.6598" fill="#E9E9E9"/>
</mask>
<g mask="url(#mask0_12_240)">
<rect x="44.6982" y="157.193" width="272.076" height="182.222" rx="13.6598" fill="#E9E9E9"/>
</g>
</g>
<mask id="mask1_12_240" style="mask-type:alpha" maskUnits="userSpaceOnUse" x="67" y="136" width="206" height="199">
<rect x="67.2915" y="136.02" width="204.897" height="198.067" rx="13.6598" fill="#E9E9E9"/>
</mask>
<g mask="url(#mask1_12_240)">
<rect x="33.825" y="136.021" width="295.735" height="198.067" rx="13.6598" fill="#E9E9E9"/>
</g>
<g filter="url(#filter5_b_12_240)">
<rect x="73.8259" y="309.533" width="136.417" height="17.654" rx="4.45026" fill="#E9E9E9"/>
</g>
<rect x="89.0726" y="311.94" width="46.5424" height="12.8393" rx="4.45026" fill="#E9E9E9"/>
<path d="M143.567 321.203V314.928H147.626V315.676H144.457V317.643H147.439V318.39H144.457V320.455H147.626V321.203H143.567ZM149.905 321.203L148.036 316.859H149.006L150.332 320.162L151.694 316.859H152.611L150.715 321.203H149.905ZM155.216 321.283C154.504 321.283 153.943 321.084 153.534 320.687C153.124 320.283 152.92 319.734 152.92 319.04C152.92 318.595 153.009 318.203 153.187 317.865C153.371 317.521 153.623 317.254 153.943 317.064C154.264 316.874 154.632 316.779 155.047 316.779C155.646 316.779 156.118 316.972 156.462 317.358C156.806 317.738 156.978 318.263 156.978 318.933V319.236H153.792C153.857 320.138 154.335 320.589 155.225 320.589C155.474 320.589 155.717 320.55 155.955 320.473C156.198 320.396 156.427 320.268 156.64 320.09L156.907 320.713C156.711 320.891 156.459 321.031 156.151 321.132C155.842 321.233 155.531 321.283 155.216 321.283ZM155.083 317.411C154.709 317.411 154.412 317.527 154.193 317.758C153.973 317.99 153.839 318.298 153.792 318.684H156.222C156.204 318.281 156.097 317.969 155.901 317.749C155.706 317.524 155.433 317.411 155.083 317.411ZM157.958 321.203V316.859H158.831V317.58C158.979 317.319 159.181 317.121 159.436 316.984C159.697 316.848 159.988 316.779 160.308 316.779C161.335 316.779 161.848 317.361 161.848 318.524V321.203H160.949V318.577C160.949 318.203 160.875 317.93 160.726 317.758C160.584 317.586 160.359 317.5 160.05 317.5C159.688 317.5 159.397 317.616 159.178 317.847C158.964 318.073 158.857 318.373 158.857 318.746V321.203H157.958ZM163.488 322.805L164.263 321.087L162.447 316.859H163.408L164.743 320.162L166.096 316.859H167.022L164.432 322.805H163.488ZM170.103 321.203V314.928H171.029V317.634H174.545V314.928H175.461V321.203H174.545V318.408H171.029V321.203H170.103ZM178.715 321.283C178.276 321.283 177.897 321.191 177.576 321.007C177.256 320.823 177.007 320.565 176.829 320.233C176.656 319.895 176.57 319.494 176.57 319.031C176.57 318.568 176.656 318.171 176.829 317.838C177.007 317.5 177.256 317.239 177.576 317.055C177.897 316.871 178.276 316.779 178.715 316.779C179.143 316.779 179.517 316.871 179.837 317.055C180.157 317.239 180.407 317.5 180.585 317.838C180.763 318.171 180.852 318.568 180.852 319.031C180.852 319.494 180.763 319.895 180.585 320.233C180.407 320.565 180.157 320.823 179.837 321.007C179.517 321.191 179.143 321.283 178.715 321.283ZM178.715 320.589C179.083 320.589 179.38 320.455 179.606 320.188C179.831 319.921 179.944 319.536 179.944 319.031C179.944 318.527 179.831 318.144 179.606 317.883C179.38 317.616 179.083 317.482 178.715 317.482C178.342 317.482 178.042 317.616 177.817 317.883C177.591 318.144 177.478 318.527 177.478 319.031C177.478 319.536 177.591 319.921 177.817 320.188C178.042 320.455 178.342 320.589 178.715 320.589ZM182.958 321.203L181.302 316.859H182.228L183.394 320.153L184.596 316.859H185.29L186.474 320.17L187.657 316.859H188.538L186.883 321.203H186.064L184.916 318.097L183.777 321.203H182.958ZM190.612 321.283C190.309 321.283 190.039 321.224 189.802 321.105C189.564 320.986 189.375 320.826 189.232 320.624C189.096 320.423 189.027 320.194 189.027 319.939C189.027 319.619 189.108 319.366 189.268 319.182C189.434 318.999 189.704 318.865 190.078 318.782C190.457 318.699 190.968 318.657 191.609 318.657H191.911V318.426C191.911 318.088 191.84 317.844 191.698 317.696C191.555 317.548 191.321 317.474 190.994 317.474C190.745 317.474 190.496 317.512 190.247 317.589C189.998 317.66 189.742 317.776 189.481 317.936L189.205 317.304C189.431 317.144 189.713 317.017 190.051 316.922C190.389 316.827 190.713 316.779 191.021 316.779C191.614 316.779 192.054 316.922 192.338 317.207C192.623 317.485 192.766 317.925 192.766 318.524V321.203H191.92V320.482C191.813 320.731 191.647 320.927 191.422 321.069C191.196 321.212 190.926 321.283 190.612 321.283ZM190.79 320.642C191.11 320.642 191.377 320.529 191.591 320.304C191.804 320.078 191.911 319.794 191.911 319.449V319.209H191.617C191.184 319.209 190.843 319.23 190.594 319.271C190.351 319.313 190.176 319.384 190.069 319.485C189.968 319.58 189.917 319.714 189.917 319.886C189.917 320.111 189.995 320.295 190.149 320.437C190.303 320.574 190.517 320.642 190.79 320.642ZM194.004 321.203V316.859H194.876V317.634C195.101 317.118 195.57 316.83 196.282 316.77L196.576 316.753L196.638 317.518L196.095 317.571C195.306 317.649 194.912 318.055 194.912 318.791V321.203H194.004ZM198.919 321.283C198.539 321.283 198.204 321.194 197.913 321.016C197.628 320.832 197.406 320.571 197.245 320.233C197.085 319.895 197.005 319.494 197.005 319.031C197.005 318.568 197.085 318.171 197.245 317.838C197.406 317.5 197.628 317.239 197.913 317.055C198.198 316.871 198.533 316.779 198.919 316.779C199.245 316.779 199.536 316.851 199.791 316.993C200.046 317.135 200.236 317.328 200.361 317.571V314.928H201.26V321.203H200.378V320.446C200.254 320.707 200.061 320.912 199.8 321.06C199.545 321.209 199.251 321.283 198.919 321.283ZM199.15 320.589C199.518 320.589 199.815 320.455 200.04 320.188C200.266 319.921 200.378 319.536 200.378 319.031C200.378 318.527 200.266 318.144 200.04 317.883C199.815 317.616 199.518 317.482 199.15 317.482C198.776 317.482 198.477 317.616 198.251 317.883C198.026 318.144 197.913 318.527 197.913 319.031C197.913 319.536 198.026 319.921 198.251 320.188C198.477 320.455 198.776 320.589 199.15 320.589Z" fill="#E9E9E9"/>
<path d="M95.3477 320.743V315.085H96.1823V320.743H95.3477ZM97.3988 320.743V316.827H98.1852V317.477C98.319 317.241 98.5009 317.062 98.7309 316.939C98.9663 316.816 99.2284 316.754 99.5173 316.754C100.443 316.754 100.906 317.279 100.906 318.327V320.743H100.095V318.375C100.095 318.038 100.028 317.792 99.8945 317.637C99.7661 317.482 99.5628 317.404 99.2846 317.404C98.9583 317.404 98.6961 317.509 98.4982 317.717C98.3056 317.921 98.2093 318.191 98.2093 318.528V320.743H97.3988ZM103.395 320.815C103.074 320.815 102.774 320.775 102.496 320.695C102.218 320.609 101.985 320.491 101.798 320.341L102.03 319.796C102.228 319.935 102.445 320.042 102.68 320.117C102.921 320.192 103.162 320.229 103.403 320.229C103.686 320.229 103.9 320.178 104.045 320.077C104.189 319.975 104.261 319.839 104.261 319.667C104.261 319.528 104.213 319.421 104.117 319.346C104.02 319.266 103.876 319.205 103.683 319.162L102.921 319.009C102.247 318.87 101.91 318.523 101.91 317.966C101.91 317.597 102.057 317.303 102.351 317.083C102.646 316.864 103.031 316.754 103.507 316.754C103.78 316.754 104.039 316.795 104.285 316.875C104.537 316.955 104.745 317.075 104.911 317.236L104.678 317.782C104.518 317.643 104.333 317.536 104.125 317.461C103.916 317.386 103.71 317.348 103.507 317.348C103.229 317.348 103.017 317.402 102.873 317.509C102.729 317.61 102.656 317.75 102.656 317.926C102.656 318.194 102.833 318.365 103.186 318.44L103.948 318.592C104.296 318.662 104.558 318.779 104.735 318.945C104.917 319.111 105.007 319.336 105.007 319.619C105.007 319.994 104.86 320.288 104.566 320.502C104.272 320.711 103.881 320.815 103.395 320.815ZM107.539 320.815C107.047 320.815 106.681 320.689 106.44 320.438C106.199 320.186 106.079 319.823 106.079 319.346V317.453H105.316V316.827H106.079V315.647H106.889V316.827H108.101V317.453H106.889V319.282C106.889 319.566 106.948 319.78 107.066 319.924C107.189 320.069 107.387 320.141 107.66 320.141C107.745 320.141 107.828 320.133 107.908 320.117C107.989 320.095 108.069 320.071 108.149 320.045L108.277 320.654C108.197 320.703 108.085 320.74 107.94 320.767C107.801 320.799 107.668 320.815 107.539 320.815ZM108.801 320.743V316.827H109.587V317.525C109.791 317.059 110.213 316.8 110.855 316.746L111.12 316.73L111.176 317.421L110.687 317.469C109.975 317.538 109.619 317.905 109.619 318.568V320.743H108.801ZM113.191 320.815C112.244 320.815 111.77 320.288 111.77 319.234V316.827H112.581V319.242C112.581 319.558 112.645 319.79 112.773 319.94C112.902 320.09 113.105 320.165 113.383 320.165C113.688 320.165 113.934 320.063 114.122 319.86C114.314 319.657 114.41 319.384 114.41 319.041V316.827H115.221V320.743H114.435V320.117C114.306 320.347 114.135 320.521 113.921 320.638C113.707 320.756 113.464 320.815 113.191 320.815ZM118.088 320.815C117.687 320.815 117.339 320.732 117.045 320.566C116.756 320.395 116.532 320.157 116.371 319.852C116.211 319.542 116.13 319.178 116.13 318.761C116.13 318.14 116.307 317.651 116.66 317.292C117.013 316.934 117.489 316.754 118.088 316.754C118.334 316.754 118.578 316.797 118.819 316.883C119.059 316.968 119.257 317.086 119.412 317.236L119.156 317.806C119.006 317.667 118.84 317.565 118.658 317.501C118.482 317.431 118.313 317.396 118.153 317.396C117.773 317.396 117.479 317.517 117.27 317.758C117.067 317.993 116.965 318.33 116.965 318.769C116.965 319.207 117.067 319.552 117.27 319.804C117.479 320.05 117.773 320.173 118.153 320.173C118.313 320.173 118.482 320.141 118.658 320.077C118.84 320.007 119.006 319.903 119.156 319.764L119.412 320.341C119.257 320.486 119.057 320.601 118.811 320.687C118.57 320.772 118.329 320.815 118.088 320.815ZM121.786 320.815C121.294 320.815 120.927 320.689 120.687 320.438C120.446 320.186 120.325 319.823 120.325 319.346V317.453H119.563V316.827H120.325V315.647H121.136V316.827H122.348V317.453H121.136V319.282C121.136 319.566 121.195 319.78 121.312 319.924C121.435 320.069 121.633 320.141 121.906 320.141C121.992 320.141 122.075 320.133 122.155 320.117C122.235 320.095 122.316 320.071 122.396 320.045L122.524 320.654C122.444 320.703 122.332 320.74 122.187 320.767C122.048 320.799 121.914 320.815 121.786 320.815ZM124.71 320.815C124.314 320.815 123.971 320.732 123.683 320.566C123.394 320.4 123.169 320.168 123.008 319.868C122.853 319.563 122.776 319.202 122.776 318.785C122.776 318.367 122.853 318.009 123.008 317.709C123.169 317.404 123.394 317.169 123.683 317.003C123.971 316.837 124.314 316.754 124.71 316.754C125.095 316.754 125.432 316.837 125.721 317.003C126.01 317.169 126.234 317.404 126.395 317.709C126.555 318.009 126.636 318.367 126.636 318.785C126.636 319.202 126.555 319.563 126.395 319.868C126.234 320.168 126.01 320.4 125.721 320.566C125.432 320.732 125.095 320.815 124.71 320.815ZM124.71 320.189C125.041 320.189 125.309 320.069 125.512 319.828C125.715 319.587 125.817 319.239 125.817 318.785C125.817 318.33 125.715 317.985 125.512 317.75C125.309 317.509 125.041 317.388 124.71 317.388C124.373 317.388 124.102 317.509 123.899 317.75C123.696 317.985 123.594 318.33 123.594 318.785C123.594 319.239 123.696 319.587 123.899 319.828C124.102 320.069 124.373 320.189 124.71 320.189ZM127.546 320.743V316.827H128.332V317.525C128.535 317.059 128.958 316.8 129.6 316.746L129.865 316.73L129.921 317.421L129.432 317.469C128.72 317.538 128.364 317.905 128.364 318.568V320.743H127.546Z" fill="#E9E9E9"/>
<rect x="78.2762" y="318.434" width="1.33508" height="3.11518" rx="0.445026" fill="#E9E9E9"/>
<rect x="80.5013" y="316.876" width="1.33508" height="4.67277" rx="0.445026" fill="#E9E9E9"/>
<rect x="82.7265" y="315.319" width="1.33508" height="6.23036" rx="0.445026" fill="#E9E9E9"/>
<g filter="url(#filter6_d_12_240)">
<mask id="mask2_12_240" style="mask-type:alpha" maskUnits="userSpaceOnUse" x="543" y="104" width="163" height="157">
<rect x="543.262" y="104.117" width="162.096" height="156.693" rx="10.8064" fill="#E9E9E9"/>
</mask>
<g mask="url(#mask2_12_240)">
<rect x="524.351" y="104.117" width="200.999" height="156.693" fill="#E9E9E9"/>
</g>
<g filter="url(#filter7_b_12_240)">
<rect x="551.907" y="231.093" width="82.1286" height="21.0725" rx="5.4032" fill="#E9E9E9"/>
</g>
<path d="M569.857 245.334L573.25 237.716H574.179L577.583 245.334H576.438L575.638 243.476H571.78L570.991 245.334H569.857ZM573.704 238.958L572.18 242.568H575.26L573.725 238.958H573.704ZM580.419 245.431C579.958 245.431 579.551 245.323 579.198 245.107C578.852 244.884 578.582 244.567 578.388 244.156C578.193 243.746 578.096 243.259 578.096 242.697C578.096 242.136 578.193 241.653 578.388 241.249C578.582 240.839 578.852 240.522 579.198 240.298C579.544 240.075 579.951 239.963 580.419 239.963C580.816 239.963 581.169 240.05 581.478 240.223C581.788 240.396 582.019 240.63 582.17 240.925V237.716H583.261V245.334H582.192V244.416C582.04 244.733 581.806 244.981 581.489 245.161C581.179 245.341 580.823 245.431 580.419 245.431ZM580.7 244.589C581.147 244.589 581.507 244.426 581.781 244.102C582.055 243.778 582.192 243.31 582.192 242.697C582.192 242.085 582.055 241.62 581.781 241.303C581.507 240.979 581.147 240.817 580.7 240.817C580.246 240.817 579.883 240.979 579.609 241.303C579.335 241.62 579.198 242.085 579.198 242.697C579.198 243.31 579.335 243.778 579.609 244.102C579.883 244.426 580.246 244.589 580.7 244.589ZM586.48 245.431C586.112 245.431 585.785 245.359 585.496 245.215C585.208 245.071 584.978 244.877 584.805 244.632C584.639 244.387 584.556 244.11 584.556 243.8C584.556 243.411 584.654 243.105 584.848 242.881C585.05 242.658 585.378 242.496 585.831 242.395C586.293 242.294 586.912 242.244 587.69 242.244H588.058V241.963C588.058 241.552 587.971 241.257 587.798 241.077C587.625 240.896 587.341 240.806 586.945 240.806C586.642 240.806 586.339 240.853 586.037 240.947C585.734 241.033 585.424 241.174 585.107 241.368L584.772 240.601C585.046 240.407 585.388 240.252 585.799 240.136C586.21 240.021 586.602 239.963 586.977 239.963C587.697 239.963 588.23 240.136 588.576 240.482C588.922 240.821 589.095 241.354 589.095 242.082V245.334H588.068V244.459C587.939 244.761 587.737 244.999 587.463 245.172C587.189 245.345 586.862 245.431 586.48 245.431ZM586.696 244.653C587.085 244.653 587.409 244.517 587.669 244.243C587.928 243.969 588.058 243.623 588.058 243.205V242.914H587.701C587.175 242.914 586.761 242.939 586.458 242.989C586.163 243.04 585.95 243.126 585.821 243.249C585.698 243.364 585.637 243.526 585.637 243.735C585.637 244.009 585.731 244.232 585.918 244.405C586.105 244.571 586.365 244.653 586.696 244.653ZM590.62 245.334V240.061H591.679V240.914C591.837 240.612 592.057 240.378 592.338 240.212C592.619 240.046 592.947 239.963 593.321 239.963C594.128 239.963 594.651 240.316 594.888 241.022C595.054 240.691 595.292 240.432 595.602 240.244C595.911 240.057 596.264 239.963 596.661 239.963C597.842 239.963 598.433 240.669 598.433 242.082V245.334H597.341V242.136C597.341 241.689 597.262 241.361 597.104 241.152C596.952 240.943 596.7 240.839 596.347 240.839C595.951 240.839 595.638 240.979 595.407 241.26C595.177 241.534 595.061 241.909 595.061 242.384V245.334H593.97V242.136C593.97 241.689 593.894 241.361 593.743 241.152C593.592 240.943 593.339 240.839 592.986 240.839C592.59 240.839 592.277 240.979 592.046 241.26C591.823 241.534 591.711 241.909 591.711 242.384V245.334H590.62ZM602.917 245.334V237.716H604.04V244.372H607.812V245.334H602.917ZM611.182 245.431C610.318 245.431 609.637 245.19 609.14 244.707C608.643 244.218 608.394 243.551 608.394 242.708C608.394 242.168 608.502 241.692 608.718 241.282C608.942 240.864 609.248 240.54 609.637 240.309C610.026 240.079 610.472 239.963 610.977 239.963C611.704 239.963 612.277 240.198 612.695 240.666C613.113 241.127 613.322 241.765 613.322 242.579V242.946H609.453C609.532 244.041 610.112 244.589 611.193 244.589C611.495 244.589 611.791 244.542 612.079 244.448C612.374 244.354 612.652 244.2 612.911 243.983L613.235 244.74C612.998 244.956 612.691 245.125 612.317 245.248C611.942 245.37 611.564 245.431 611.182 245.431ZM611.02 240.731C610.566 240.731 610.206 240.871 609.939 241.152C609.673 241.433 609.511 241.808 609.453 242.276H612.403C612.382 241.786 612.252 241.408 612.014 241.141C611.776 240.868 611.445 240.731 611.02 240.731ZM615.983 245.334L613.714 240.061H614.892L616.502 244.07L618.155 240.061H619.268L616.966 245.334H615.983ZM619.955 238.84V237.705H621.23V238.84H619.955ZM620.052 245.334V240.061H621.143V245.334H620.052ZM622.68 245.334V240.061H623.739V240.936C623.919 240.619 624.164 240.378 624.474 240.212C624.791 240.046 625.144 239.963 625.533 239.963C626.779 239.963 627.402 240.669 627.402 242.082V245.334H626.311V242.146C626.311 241.692 626.221 241.361 626.041 241.152C625.868 240.943 625.594 240.839 625.219 240.839C624.78 240.839 624.427 240.979 624.16 241.26C623.901 241.534 623.771 241.898 623.771 242.352V245.334H622.68Z" fill="#E9E9E9"/>
<rect x="557.311" y="241.899" width="1.62096" height="3.78224" rx="0.54032" fill="#E9E9E9"/>
<rect x="560.012" y="240.009" width="1.62096" height="5.67336" rx="0.54032" fill="#E9E9E9"/>
<rect x="562.714" y="238.117" width="1.62096" height="7.56448" rx="0.54032" fill="#E9E9E9"/>
</g>
<mask id="mask3_12_240" style="mask-type:alpha" maskUnits="userSpaceOnUse" x="365" y="136" width="135" height="130">
<rect x="365.725" y="136.02" width="133.508" height="129.057" rx="8.90052" fill="#E9E9E9"/>
</mask>
<g mask="url(#mask3_12_240)">
<rect x="355.044" y="138.69" width="154.869" height="126.387" fill="#E9E9E9"/>
</g>
<g filter="url(#filter8_b_12_240)">
<rect x="372.845" y="240.602" width="77.8795" height="17.356" rx="4.45026" fill="#E9E9E9"/>
</g>
<path d="M389.792 252.272V246.771H387.567V245.997H392.934V246.771H390.708V252.272H389.792ZM394.306 252.352C394.003 252.352 393.733 252.292 393.496 252.174C393.259 252.055 393.069 251.895 392.926 251.693C392.79 251.491 392.722 251.263 392.722 251.008C392.722 250.687 392.802 250.435 392.962 250.251C393.128 250.067 393.398 249.934 393.772 249.851C394.152 249.768 394.662 249.726 395.303 249.726H395.605V249.495C395.605 249.157 395.534 248.913 395.392 248.765C395.249 248.617 395.015 248.542 394.689 248.542C394.439 248.542 394.19 248.581 393.941 248.658C393.692 248.729 393.437 248.845 393.176 249.005L392.9 248.373C393.125 248.213 393.407 248.086 393.745 247.991C394.083 247.896 394.407 247.848 394.715 247.848C395.309 247.848 395.748 247.991 396.033 248.275C396.317 248.554 396.46 248.993 396.46 249.593V252.272H395.614V251.551C395.507 251.8 395.341 251.996 395.116 252.138C394.89 252.281 394.62 252.352 394.306 252.352ZM394.484 251.711C394.804 251.711 395.071 251.598 395.285 251.373C395.499 251.147 395.605 250.862 395.605 250.518V250.278H395.312C394.878 250.278 394.537 250.299 394.288 250.34C394.045 250.382 393.87 250.453 393.763 250.554C393.662 250.649 393.612 250.782 393.612 250.954C393.612 251.18 393.689 251.364 393.843 251.506C393.997 251.643 394.211 251.711 394.484 251.711ZM397.716 252.272V247.928H398.588V248.631C398.719 248.382 398.9 248.189 399.131 248.053C399.362 247.916 399.632 247.848 399.941 247.848C400.605 247.848 401.036 248.139 401.231 248.72C401.368 248.447 401.564 248.234 401.819 248.08C402.074 247.925 402.365 247.848 402.691 247.848C403.664 247.848 404.151 248.43 404.151 249.593V252.272H403.252V249.637C403.252 249.269 403.187 248.999 403.056 248.827C402.931 248.655 402.724 248.569 402.433 248.569C402.107 248.569 401.849 248.685 401.659 248.916C401.469 249.142 401.374 249.45 401.374 249.842V252.272H400.475V249.637C400.475 249.269 400.413 248.999 400.288 248.827C400.163 248.655 399.956 248.569 399.665 248.569C399.339 248.569 399.081 248.685 398.891 248.916C398.707 249.142 398.615 249.45 398.615 249.842V252.272H397.716ZM406.796 252.352C406.494 252.352 406.224 252.292 405.986 252.174C405.749 252.055 405.559 251.895 405.417 251.693C405.28 251.491 405.212 251.263 405.212 251.008C405.212 250.687 405.292 250.435 405.452 250.251C405.618 250.067 405.888 249.934 406.262 249.851C406.642 249.768 407.152 249.726 407.793 249.726H408.096V249.495C408.096 249.157 408.024 248.913 407.882 248.765C407.74 248.617 407.505 248.542 407.179 248.542C406.93 248.542 406.68 248.581 406.431 248.658C406.182 248.729 405.927 248.845 405.666 249.005L405.39 248.373C405.615 248.213 405.897 248.086 406.235 247.991C406.574 247.896 406.897 247.848 407.206 247.848C407.799 247.848 408.238 247.991 408.523 248.275C408.808 248.554 408.95 248.993 408.95 249.593V252.272H408.105V251.551C407.998 251.8 407.832 251.996 407.606 252.138C407.381 252.281 407.111 252.352 406.796 252.352ZM406.974 251.711C407.295 251.711 407.562 251.598 407.775 251.373C407.989 251.147 408.096 250.862 408.096 250.518V250.278H407.802C407.369 250.278 407.028 250.299 406.778 250.34C406.535 250.382 406.36 250.453 406.253 250.554C406.152 250.649 406.102 250.782 406.102 250.954C406.102 251.18 406.179 251.364 406.333 251.506C406.488 251.643 406.701 251.711 406.974 251.711ZM410.188 252.272V247.928H411.06V248.703C411.286 248.186 411.755 247.899 412.467 247.839L412.76 247.821L412.823 248.587L412.28 248.64C411.491 248.717 411.096 249.124 411.096 249.86V252.272H410.188ZM414.854 252.352C414.551 252.352 414.281 252.292 414.044 252.174C413.806 252.055 413.616 251.895 413.474 251.693C413.338 251.491 413.269 251.263 413.269 251.008C413.269 250.687 413.349 250.435 413.51 250.251C413.676 250.067 413.946 249.934 414.32 249.851C414.699 249.768 415.21 249.726 415.85 249.726H416.153V249.495C416.153 249.157 416.082 248.913 415.939 248.765C415.797 248.617 415.563 248.542 415.236 248.542C414.987 248.542 414.738 248.581 414.489 248.658C414.239 248.729 413.984 248.845 413.723 249.005L413.447 248.373C413.673 248.213 413.955 248.086 414.293 247.991C414.631 247.896 414.954 247.848 415.263 247.848C415.856 247.848 416.295 247.991 416.58 248.275C416.865 248.554 417.007 248.993 417.007 249.593V252.272H416.162V251.551C416.055 251.8 415.889 251.996 415.664 252.138C415.438 252.281 415.168 252.352 414.854 252.352ZM415.032 251.711C415.352 251.711 415.619 251.598 415.833 251.373C416.046 251.147 416.153 250.862 416.153 250.518V250.278H415.859C415.426 250.278 415.085 250.299 414.836 250.34C414.592 250.382 414.417 250.453 414.311 250.554C414.21 250.649 414.159 250.782 414.159 250.954C414.159 251.18 414.236 251.364 414.391 251.506C414.545 251.643 414.759 251.711 415.032 251.711ZM423.494 252.352C422.859 252.352 422.316 252.221 421.865 251.96C421.414 251.699 421.067 251.328 420.824 250.848C420.587 250.361 420.468 249.788 420.468 249.13C420.468 248.471 420.587 247.902 420.824 247.421C421.067 246.94 421.414 246.569 421.865 246.308C422.316 246.047 422.859 245.917 423.494 245.917C423.921 245.917 424.319 245.985 424.687 246.121C425.061 246.252 425.372 246.442 425.621 246.691L425.301 247.43C425.028 247.187 424.746 247.012 424.455 246.905C424.171 246.792 423.859 246.736 423.521 246.736C422.844 246.736 422.328 246.943 421.972 247.359C421.616 247.774 421.438 248.364 421.438 249.13C421.438 249.895 421.616 250.489 421.972 250.91C422.328 251.325 422.844 251.533 423.521 251.533C423.859 251.533 424.171 251.48 424.455 251.373C424.746 251.26 425.028 251.082 425.301 250.839L425.621 251.577C425.372 251.821 425.061 252.011 424.687 252.147C424.319 252.284 423.921 252.352 423.494 252.352ZM428.014 252.352C427.539 252.352 427.183 252.218 426.946 251.951C426.714 251.684 426.599 251.293 426.599 250.776V245.997H427.498V250.723C427.498 251.31 427.738 251.604 428.218 251.604C428.29 251.604 428.355 251.601 428.414 251.595C428.48 251.589 428.545 251.577 428.61 251.56L428.592 252.281C428.391 252.328 428.198 252.352 428.014 252.352ZM430.708 252.352C430.405 252.352 430.135 252.292 429.898 252.174C429.66 252.055 429.47 251.895 429.328 251.693C429.192 251.491 429.123 251.263 429.123 251.008C429.123 250.687 429.203 250.435 429.364 250.251C429.53 250.067 429.8 249.934 430.174 249.851C430.553 249.768 431.064 249.726 431.704 249.726H432.007V249.495C432.007 249.157 431.936 248.913 431.793 248.765C431.651 248.617 431.417 248.542 431.09 248.542C430.841 248.542 430.592 248.581 430.343 248.658C430.093 248.729 429.838 248.845 429.577 249.005L429.301 248.373C429.527 248.213 429.809 248.086 430.147 247.991C430.485 247.896 430.808 247.848 431.117 247.848C431.71 247.848 432.149 247.991 432.434 248.275C432.719 248.554 432.862 248.993 432.862 249.593V252.272H432.016V251.551C431.909 251.8 431.743 251.996 431.518 252.138C431.292 252.281 431.022 252.352 430.708 252.352ZM430.886 251.711C431.206 251.711 431.473 251.598 431.687 251.373C431.9 251.147 432.007 250.862 432.007 250.518V250.278H431.713C431.28 250.278 430.939 250.299 430.69 250.34C430.447 250.382 430.271 250.453 430.165 250.554C430.064 250.649 430.013 250.782 430.013 250.954C430.013 251.18 430.091 251.364 430.245 251.506C430.399 251.643 430.613 251.711 430.886 251.711ZM434.1 252.272V247.928H434.972V248.703C435.197 248.186 435.666 247.899 436.378 247.839L436.672 247.821L436.734 248.587L436.191 248.64C435.402 248.717 435.008 249.124 435.008 249.86V252.272H434.1ZM437.42 252.272V245.997H438.319V249.824H438.337L440.224 247.928H441.336L439.254 250.02L441.496 252.272H440.375L438.337 250.287H438.319V252.272H437.42ZM443.952 252.352C443.24 252.352 442.679 252.153 442.27 251.755C441.86 251.352 441.656 250.803 441.656 250.109C441.656 249.664 441.745 249.272 441.923 248.934C442.107 248.59 442.359 248.323 442.679 248.133C443 247.943 443.367 247.848 443.783 247.848C444.382 247.848 444.854 248.041 445.198 248.427C445.542 248.806 445.714 249.332 445.714 250.002V250.305H442.528C442.593 251.207 443.071 251.658 443.961 251.658C444.21 251.658 444.453 251.619 444.691 251.542C444.934 251.465 445.162 251.337 445.376 251.159L445.643 251.782C445.447 251.96 445.195 252.1 444.886 252.201C444.578 252.301 444.266 252.352 443.952 252.352ZM443.818 248.48C443.445 248.48 443.148 248.596 442.928 248.827C442.709 249.059 442.575 249.367 442.528 249.753H444.958C444.94 249.349 444.833 249.038 444.637 248.818C444.441 248.593 444.169 248.48 443.818 248.48Z" fill="#E9E9E9"/>
<rect x="377.295" y="249.502" width="1.33508" height="3.11518" rx="0.445026" fill="#E9E9E9"/>
<rect x="379.521" y="247.945" width="1.33508" height="4.67277" rx="0.445026" fill="#E9E9E9"/>
<rect x="381.746" y="246.387" width="1.33508" height="6.23036" rx="0.445026" fill="#E9E9E9"/>
<mask id="mask4_12_240" style="mask-type:alpha" maskUnits="userSpaceOnUse" x="365" y="285" width="135" height="130">
<rect x="365.725" y="285.104" width="133.508" height="129.057" rx="8.90052" fill="#E9E9E9"/>
</mask>
<g mask="url(#mask4_12_240)">
<rect x="365.725" y="285.104" width="133.508" height="200.707" fill="#E9E9E9"/>
</g>
<g filter="url(#filter9_b_12_240)">
<rect x="372.845" y="389.685" width="90.7853" height="17.356" rx="4.45026" fill="#E9E9E9"/>
</g>
<path d="M388.261 401.355V395.08H389.187V397.786H392.702V395.08H393.619V401.355H392.702V398.56H389.187V401.355H388.261ZM396.535 401.435C395.485 401.435 394.959 400.851 394.959 399.682V397.012H395.858V399.691C395.858 400.041 395.93 400.299 396.072 400.465C396.214 400.631 396.44 400.714 396.748 400.714C397.087 400.714 397.36 400.601 397.567 400.376C397.781 400.15 397.888 399.848 397.888 399.468V397.012H398.787V401.355H397.914V400.661C397.772 400.916 397.582 401.109 397.345 401.239C397.107 401.37 396.837 401.435 396.535 401.435ZM400.071 401.355V397.012H400.944V397.715C401.074 397.465 401.255 397.273 401.486 397.136C401.718 397 401.988 396.931 402.296 396.931C402.961 396.931 403.391 397.222 403.587 397.804C403.723 397.531 403.919 397.317 404.174 397.163C404.43 397.009 404.72 396.931 405.047 396.931C406.02 396.931 406.506 397.513 406.506 398.676V401.355H405.607V398.72C405.607 398.353 405.542 398.083 405.412 397.91C405.287 397.738 405.079 397.652 404.789 397.652C404.462 397.652 404.204 397.768 404.014 397.999C403.824 398.225 403.729 398.534 403.729 398.925V401.355H402.83V398.72C402.83 398.353 402.768 398.083 402.644 397.91C402.519 397.738 402.311 397.652 402.02 397.652C401.694 397.652 401.436 397.768 401.246 397.999C401.062 398.225 400.97 398.534 400.97 398.925V401.355H400.071ZM410.095 401.435C409.763 401.435 409.469 401.361 409.214 401.213C408.959 401.064 408.769 400.865 408.644 400.616V401.355H407.763V395.08H408.662V397.715C408.793 397.477 408.983 397.287 409.232 397.145C409.487 397.003 409.775 396.931 410.095 396.931C410.481 396.931 410.816 397.023 411.101 397.207C411.392 397.391 411.614 397.652 411.768 397.991C411.929 398.323 412.009 398.72 412.009 399.183C412.009 399.646 411.929 400.047 411.768 400.385C411.614 400.723 411.392 400.984 411.101 401.168C410.816 401.346 410.481 401.435 410.095 401.435ZM409.873 400.741C410.246 400.741 410.543 400.607 410.763 400.34C410.988 400.073 411.101 399.688 411.101 399.183C411.101 398.679 410.988 398.296 410.763 398.035C410.543 397.768 410.246 397.635 409.873 397.635C409.499 397.635 409.199 397.768 408.974 398.035C408.754 398.296 408.644 398.679 408.644 399.183C408.644 399.688 408.754 400.073 408.974 400.34C409.199 400.607 409.499 400.741 409.873 400.741ZM415.06 401.435C414.348 401.435 413.787 401.236 413.378 400.839C412.968 400.435 412.764 399.886 412.764 399.192C412.764 398.747 412.853 398.356 413.031 398.017C413.215 397.673 413.467 397.406 413.787 397.216C414.108 397.026 414.476 396.931 414.891 396.931C415.49 396.931 415.962 397.124 416.306 397.51C416.65 397.89 416.822 398.415 416.822 399.085V399.388H413.636C413.701 400.29 414.179 400.741 415.069 400.741C415.318 400.741 415.561 400.702 415.799 400.625C416.042 400.548 416.27 400.42 416.484 400.242L416.751 400.865C416.555 401.043 416.303 401.183 415.995 401.284C415.686 401.385 415.375 401.435 415.06 401.435ZM414.927 397.563C414.553 397.563 414.256 397.679 414.036 397.91C413.817 398.142 413.683 398.45 413.636 398.836H416.066C416.048 398.433 415.941 398.121 415.745 397.902C415.55 397.676 415.277 397.563 414.927 397.563ZM417.802 401.355V397.012H418.675V397.786C418.9 397.27 419.369 396.982 420.081 396.923L420.375 396.905L420.437 397.67L419.894 397.724C419.105 397.801 418.71 398.207 418.71 398.943V401.355H417.802ZM423.217 401.435C422.671 401.435 422.265 401.296 421.998 401.017C421.731 400.738 421.597 400.334 421.597 399.806V397.706H420.752V397.012H421.597V395.703H422.496V397.012H423.84V397.706H422.496V399.735C422.496 400.05 422.562 400.287 422.692 400.447C422.829 400.607 423.048 400.687 423.351 400.687C423.446 400.687 423.538 400.679 423.627 400.661C423.716 400.637 423.805 400.61 423.894 400.581L424.036 401.257C423.947 401.31 423.823 401.352 423.662 401.382C423.508 401.417 423.36 401.435 423.217 401.435ZM427.053 401.355V395.08H427.978V397.786H431.494V395.08H432.411V401.355H431.494V398.56H427.978V401.355H427.053ZM435.665 401.435C435.226 401.435 434.846 401.343 434.526 401.159C434.205 400.975 433.956 400.717 433.778 400.385C433.606 400.047 433.52 399.646 433.52 399.183C433.52 398.72 433.606 398.323 433.778 397.991C433.956 397.652 434.205 397.391 434.526 397.207C434.846 397.023 435.226 396.931 435.665 396.931C436.092 396.931 436.466 397.023 436.786 397.207C437.107 397.391 437.356 397.652 437.534 397.991C437.712 398.323 437.801 398.72 437.801 399.183C437.801 399.646 437.712 400.047 437.534 400.385C437.356 400.717 437.107 400.975 436.786 401.159C436.466 401.343 436.092 401.435 435.665 401.435ZM435.665 400.741C436.033 400.741 436.33 400.607 436.555 400.34C436.781 400.073 436.893 399.688 436.893 399.183C436.893 398.679 436.781 398.296 436.555 398.035C436.33 397.768 436.033 397.635 435.665 397.635C435.291 397.635 434.992 397.768 434.766 398.035C434.541 398.296 434.428 398.679 434.428 399.183C434.428 399.688 434.541 400.073 434.766 400.34C434.992 400.607 435.291 400.741 435.665 400.741ZM440.226 401.435C439.751 401.435 439.395 401.302 439.158 401.035C438.926 400.768 438.811 400.376 438.811 399.86V395.08H439.71V399.806C439.71 400.394 439.95 400.687 440.431 400.687C440.502 400.687 440.567 400.684 440.626 400.679C440.692 400.673 440.757 400.661 440.822 400.643L440.804 401.364C440.603 401.411 440.41 401.435 440.226 401.435ZM442.946 401.435C442.472 401.435 442.116 401.302 441.878 401.035C441.647 400.768 441.531 400.376 441.531 399.86V395.08H442.43V399.806C442.43 400.394 442.671 400.687 443.151 400.687C443.222 400.687 443.288 400.684 443.347 400.679C443.412 400.673 443.478 400.661 443.543 400.643L443.525 401.364C443.323 401.411 443.13 401.435 442.946 401.435ZM445.64 401.435C445.338 401.435 445.068 401.376 444.83 401.257C444.593 401.138 444.403 400.978 444.261 400.776C444.124 400.575 444.056 400.346 444.056 400.091C444.056 399.771 444.136 399.519 444.296 399.335C444.462 399.151 444.732 399.017 445.106 398.934C445.486 398.851 445.996 398.809 446.637 398.809H446.94V398.578C446.94 398.24 446.869 397.997 446.726 397.848C446.584 397.7 446.349 397.626 446.023 397.626C445.774 397.626 445.525 397.664 445.275 397.741C445.026 397.813 444.771 397.928 444.51 398.088L444.234 397.457C444.46 397.296 444.741 397.169 445.08 397.074C445.418 396.979 445.741 396.931 446.05 396.931C446.643 396.931 447.082 397.074 447.367 397.359C447.652 397.638 447.794 398.077 447.794 398.676V401.355H446.949V400.634C446.842 400.883 446.676 401.079 446.45 401.221C446.225 401.364 445.955 401.435 445.64 401.435ZM445.818 400.794C446.139 400.794 446.406 400.682 446.619 400.456C446.833 400.231 446.94 399.946 446.94 399.602V399.361H446.646C446.213 399.361 445.872 399.382 445.623 399.424C445.379 399.465 445.204 399.536 445.097 399.637C444.997 399.732 444.946 399.866 444.946 400.038C444.946 400.263 445.023 400.447 445.177 400.59C445.332 400.726 445.545 400.794 445.818 400.794ZM449.032 401.355V397.012H449.905V397.732C450.053 397.471 450.255 397.273 450.51 397.136C450.771 397 451.062 396.931 451.382 396.931C452.409 396.931 452.922 397.513 452.922 398.676V401.355H452.023V398.729C452.023 398.356 451.949 398.083 451.8 397.91C451.658 397.738 451.433 397.652 451.124 397.652C450.762 397.652 450.471 397.768 450.252 397.999C450.038 398.225 449.931 398.525 449.931 398.898V401.355H449.032ZM455.816 401.435C455.436 401.435 455.101 401.346 454.81 401.168C454.526 400.984 454.303 400.723 454.143 400.385C453.983 400.047 453.903 399.646 453.903 399.183C453.903 398.72 453.983 398.323 454.143 397.991C454.303 397.652 454.526 397.391 454.81 397.207C455.095 397.023 455.43 396.931 455.816 396.931C456.142 396.931 456.433 397.003 456.688 397.145C456.944 397.287 457.133 397.48 457.258 397.724V395.08H458.157V401.355H457.276V400.598C457.151 400.86 456.958 401.064 456.697 401.213C456.442 401.361 456.148 401.435 455.816 401.435ZM456.048 400.741C456.415 400.741 456.712 400.607 456.938 400.34C457.163 400.073 457.276 399.688 457.276 399.183C457.276 398.679 457.163 398.296 456.938 398.035C456.712 397.768 456.415 397.635 456.048 397.635C455.674 397.635 455.374 397.768 455.149 398.035C454.923 398.296 454.81 398.679 454.81 399.183C454.81 399.688 454.923 400.073 455.149 400.34C455.374 400.607 455.674 400.741 456.048 400.741Z" fill="#E9E9E9"/>
<rect x="377.295" y="398.585" width="1.33508" height="3.11518" rx="0.445026" fill="#E9E9E9"/>
<rect x="379.521" y="397.028" width="1.33508" height="4.67277" rx="0.445026" fill="#E9E9E9"/>
<rect x="381.746" y="395.471" width="1.33508" height="6.23036" rx="0.445026" fill="#E9E9E9"/>
<g filter="url(#filter10_d_12_240)">
<mask id="mask5_12_240" style="mask-type:alpha" maskUnits="userSpaceOnUse" x="526" y="294" width="193" height="187">
<rect x="526.411" y="294.286" width="192.589" height="186.17" rx="12.8393" fill="#E9E9E9"/>
</mask>
<g mask="url(#mask5_12_240)">
<rect x="485.967" y="265.397" width="273.477" height="273.477" fill="#E9E9E9"/>
</g>
<g filter="url(#filter11_b_12_240)">
<rect x="536.682" y="445.148" width="127.751" height="25.0366" rx="6.41964" fill="#E9E9E9"/>
</g>
<path d="M558.92 461.999V452.947H562.669C563.645 452.947 564.398 453.191 564.929 453.679C565.459 454.158 565.725 454.834 565.725 455.707C565.725 456.589 565.459 457.274 564.929 457.762C564.398 458.241 563.645 458.481 562.669 458.481H560.255V461.999H558.92ZM560.255 457.415H562.476C563.777 457.415 564.428 456.846 564.428 455.707C564.428 454.577 563.777 454.012 562.476 454.012H560.255V457.415ZM568.706 462.114C568.269 462.114 567.88 462.028 567.537 461.857C567.195 461.686 566.921 461.455 566.716 461.164C566.519 460.873 566.42 460.543 566.42 460.175C566.42 459.713 566.536 459.349 566.767 459.084C567.007 458.819 567.396 458.626 567.935 458.506C568.483 458.386 569.219 458.326 570.144 458.326H570.58V457.993C570.58 457.505 570.478 457.154 570.272 456.94C570.067 456.726 569.729 456.619 569.258 456.619C568.898 456.619 568.539 456.675 568.179 456.786C567.82 456.888 567.452 457.055 567.075 457.287L566.677 456.375C567.002 456.144 567.409 455.96 567.897 455.823C568.385 455.686 568.851 455.617 569.296 455.617C570.152 455.617 570.786 455.823 571.197 456.234C571.607 456.636 571.813 457.269 571.813 458.134V461.999H570.593V460.959C570.439 461.318 570.199 461.601 569.874 461.806C569.549 462.011 569.159 462.114 568.706 462.114ZM568.962 461.19C569.425 461.19 569.81 461.027 570.118 460.702C570.426 460.377 570.58 459.966 570.58 459.469V459.123H570.157C569.532 459.123 569.04 459.152 568.68 459.212C568.329 459.272 568.077 459.375 567.923 459.521C567.777 459.658 567.704 459.85 567.704 460.098C567.704 460.424 567.816 460.689 568.038 460.894C568.261 461.091 568.569 461.19 568.962 461.19ZM576.269 462.114C575.482 462.114 574.896 461.913 574.51 461.511C574.125 461.108 573.933 460.526 573.933 459.764V456.734H572.713V455.733H573.933V453.846H575.229V455.733H577.168V456.734H575.229V459.662C575.229 460.115 575.324 460.458 575.512 460.689C575.709 460.92 576.026 461.036 576.462 461.036C576.599 461.036 576.732 461.023 576.86 460.997C576.988 460.963 577.117 460.924 577.245 460.882L577.451 461.857C577.322 461.934 577.143 461.994 576.911 462.037C576.689 462.088 576.475 462.114 576.269 462.114ZM578.288 461.999V455.733H579.546V456.85C579.872 456.105 580.548 455.69 581.575 455.605L581.999 455.579L582.089 456.683L581.305 456.76C580.167 456.871 579.598 457.458 579.598 458.519V461.999H578.288ZM582.962 454.282V452.934H584.477V454.282H582.962ZM583.078 461.999V455.733H584.375V461.999H583.078ZM588.96 462.114C588.318 462.114 587.762 461.981 587.291 461.716C586.829 461.442 586.47 461.061 586.213 460.573C585.956 460.077 585.828 459.495 585.828 458.827C585.828 457.834 586.11 457.051 586.675 456.478C587.24 455.904 588.002 455.617 588.96 455.617C589.354 455.617 589.744 455.686 590.129 455.823C590.514 455.96 590.831 456.148 591.079 456.388L590.668 457.299C590.428 457.077 590.163 456.914 589.872 456.811C589.59 456.7 589.32 456.645 589.063 456.645C588.455 456.645 587.985 456.837 587.651 457.222C587.326 457.599 587.163 458.138 587.163 458.84C587.163 459.542 587.326 460.094 587.651 460.496C587.985 460.89 588.455 461.087 589.063 461.087C589.32 461.087 589.59 461.036 589.872 460.933C590.163 460.822 590.428 460.655 590.668 460.432L591.079 461.357C590.831 461.588 590.51 461.772 590.116 461.909C589.731 462.046 589.346 462.114 588.96 462.114ZM592.078 454.282V452.934H593.593V454.282H592.078ZM592.193 461.999V455.733H593.49V461.999H592.193ZM597.318 462.114C596.882 462.114 596.492 462.028 596.15 461.857C595.808 461.686 595.534 461.455 595.328 461.164C595.131 460.873 595.033 460.543 595.033 460.175C595.033 459.713 595.148 459.349 595.38 459.084C595.619 458.819 596.009 458.626 596.548 458.506C597.096 458.386 597.832 458.326 598.756 458.326H599.193V457.993C599.193 457.505 599.09 457.154 598.885 456.94C598.679 456.726 598.341 456.619 597.87 456.619C597.511 456.619 597.151 456.675 596.792 456.786C596.432 456.888 596.064 457.055 595.688 457.287L595.29 456.375C595.615 456.144 596.021 455.96 596.509 455.823C596.997 455.686 597.464 455.617 597.909 455.617C598.765 455.617 599.398 455.823 599.809 456.234C600.22 456.636 600.425 457.269 600.425 458.134V461.999H599.206V460.959C599.052 461.318 598.812 461.601 598.487 461.806C598.161 462.011 597.772 462.114 597.318 462.114ZM597.575 461.19C598.037 461.19 598.422 461.027 598.731 460.702C599.039 460.377 599.193 459.966 599.193 459.469V459.123H598.769C598.144 459.123 597.652 459.152 597.293 459.212C596.942 459.272 596.689 459.375 596.535 459.521C596.39 459.658 596.317 459.85 596.317 460.098C596.317 460.424 596.428 460.689 596.651 460.894C596.873 461.091 597.181 461.19 597.575 461.19ZM605.751 461.999V452.947H606.868L610.219 459.2L613.557 452.947H614.649V461.999H613.455V455.361L610.617 460.612H609.808L606.958 455.386V461.999H605.751ZM619.583 462.114C618.556 462.114 617.747 461.827 617.157 461.254C616.566 460.672 616.271 459.88 616.271 458.879C616.271 458.237 616.399 457.672 616.656 457.184C616.921 456.687 617.285 456.302 617.747 456.028C618.209 455.754 618.74 455.617 619.339 455.617C620.204 455.617 620.884 455.896 621.381 456.452C621.877 457 622.125 457.757 622.125 458.725V459.161H617.529C617.623 460.462 618.312 461.113 619.596 461.113C619.956 461.113 620.307 461.057 620.649 460.946C621 460.834 621.329 460.65 621.638 460.394L622.023 461.292C621.74 461.549 621.377 461.75 620.931 461.896C620.486 462.041 620.037 462.114 619.583 462.114ZM619.391 456.529C618.851 456.529 618.423 456.696 618.107 457.03C617.79 457.364 617.597 457.809 617.529 458.365H621.034C621.008 457.783 620.854 457.334 620.572 457.017C620.289 456.692 619.896 456.529 619.391 456.529ZM623.539 461.999V455.733H624.797V456.773C625.011 456.396 625.302 456.11 625.671 455.913C626.047 455.716 626.467 455.617 626.929 455.617C628.41 455.617 629.15 456.456 629.15 458.134V461.999H627.853V458.211C627.853 457.672 627.746 457.278 627.532 457.03C627.327 456.782 627.002 456.657 626.556 456.657C626.034 456.657 625.615 456.824 625.298 457.158C624.99 457.483 624.836 457.916 624.836 458.455V461.999H623.539ZM633.325 462.114C632.777 462.114 632.294 461.986 631.874 461.729C631.463 461.464 631.142 461.087 630.911 460.599C630.68 460.111 630.564 459.533 630.564 458.866C630.564 458.198 630.68 457.625 630.911 457.145C631.142 456.657 631.463 456.281 631.874 456.015C632.285 455.75 632.769 455.617 633.325 455.617C633.796 455.617 634.215 455.72 634.583 455.926C634.951 456.131 635.225 456.409 635.405 456.76V452.947H636.702V461.999H635.431V460.907C635.251 461.284 634.973 461.579 634.596 461.793C634.228 462.007 633.804 462.114 633.325 462.114ZM633.659 461.113C634.189 461.113 634.617 460.92 634.943 460.535C635.268 460.15 635.431 459.593 635.431 458.866C635.431 458.138 635.268 457.586 634.943 457.209C634.617 456.824 634.189 456.632 633.659 456.632C633.12 456.632 632.687 456.824 632.362 457.209C632.037 457.586 631.874 458.138 631.874 458.866C631.874 459.593 632.037 460.15 632.362 460.535C632.687 460.92 633.12 461.113 633.659 461.113ZM641.244 462.114C640.611 462.114 640.063 461.981 639.601 461.716C639.139 461.451 638.779 461.078 638.523 460.599C638.274 460.111 638.15 459.533 638.15 458.866C638.15 458.198 638.274 457.625 638.523 457.145C638.779 456.657 639.139 456.281 639.601 456.015C640.063 455.75 640.611 455.617 641.244 455.617C641.861 455.617 642.4 455.75 642.862 456.015C643.324 456.281 643.684 456.657 643.941 457.145C644.198 457.625 644.326 458.198 644.326 458.866C644.326 459.533 644.198 460.111 643.941 460.599C643.684 461.078 643.324 461.451 642.862 461.716C642.4 461.981 641.861 462.114 641.244 462.114ZM641.244 461.113C641.775 461.113 642.203 460.92 642.528 460.535C642.854 460.15 643.016 459.593 643.016 458.866C643.016 458.138 642.854 457.586 642.528 457.209C642.203 456.824 641.775 456.632 641.244 456.632C640.705 456.632 640.273 456.824 639.948 457.209C639.622 457.586 639.46 458.138 639.46 458.866C639.46 459.593 639.622 460.15 639.948 460.535C640.273 460.92 640.705 461.113 641.244 461.113ZM645.451 461.999V461.151L648.866 456.734H645.451V455.733H650.291V456.593L646.876 461.01H650.432V461.999H645.451ZM653.641 462.114C653.204 462.114 652.815 462.028 652.472 461.857C652.13 461.686 651.856 461.455 651.651 461.164C651.454 460.873 651.355 460.543 651.355 460.175C651.355 459.713 651.471 459.349 651.702 459.084C651.942 458.819 652.331 458.626 652.87 458.506C653.418 458.386 654.154 458.326 655.079 458.326H655.515V457.993C655.515 457.505 655.412 457.154 655.207 456.94C655.002 456.726 654.663 456.619 654.193 456.619C653.833 456.619 653.474 456.675 653.114 456.786C652.755 456.888 652.387 457.055 652.01 457.287L651.612 456.375C651.937 456.144 652.344 455.96 652.832 455.823C653.32 455.686 653.786 455.617 654.231 455.617C655.087 455.617 655.721 455.823 656.131 456.234C656.542 456.636 656.748 457.269 656.748 458.134V461.999H655.528V460.959C655.374 461.318 655.134 461.601 654.809 461.806C654.484 462.011 654.094 462.114 653.641 462.114ZM653.897 461.19C654.36 461.19 654.745 461.027 655.053 460.702C655.361 460.377 655.515 459.966 655.515 459.469V459.123H655.091C654.467 459.123 653.974 459.152 653.615 459.212C653.264 459.272 653.011 459.375 652.857 459.521C652.712 459.658 652.639 459.85 652.639 460.098C652.639 460.424 652.75 460.689 652.973 460.894C653.196 461.091 653.504 461.19 653.897 461.19Z" fill="#E9E9E9"/>
<rect x="543.102" y="457.987" width="1.92589" height="4.49375" rx="0.641964" fill="#E9E9E9"/>
<rect x="546.312" y="455.741" width="1.92589" height="6.74062" rx="0.641964" fill="#E9E9E9"/>
<rect x="549.521" y="453.493" width="1.92589" height="8.9875" rx="0.641964" fill="#E9E9E9"/>
</g>
<g opacity="0.8" filter="url(#filter12_d_12_240)">
<circle cx="358.296" cy="301.91" r="37.3142" fill="#F9F9F9"/>
</g>
<g filter="url(#filter13_d_12_240)">
<circle cx="358.296" cy="301.909" r="29.2896" fill="#F9F9F9"/>
</g>
<path d="M374.393 363.506C373.425 362.702 372.055 362.445 370.902 362.85C370.593 362.959 370.306 363.112 370.049 363.304C369.393 363.794 367.938 365.267 366.784 366.724V355.493C366.784 354.539 366.398 353.606 365.725 352.933C365.057 352.266 364.18 351.906 363.259 351.923C362.841 351.931 362.44 352.015 362.07 352.162V351.065C362.07 350.027 361.65 349.011 360.917 348.279C360.191 347.553 359.241 347.162 358.235 347.18C356.231 347.216 354.595 348.872 354.535 350.896C354.101 350.696 353.63 350.584 353.142 350.569C352.123 350.539 351.115 350.939 350.376 351.669C349.652 352.383 349.253 353.327 349.253 354.322L349.251 355.386C348.938 355.281 348.605 355.224 348.259 355.224C346.511 355.224 345.089 356.67 345.089 358.446L345.09 374.771L345.093 374.849C345.239 376.991 345.68 378.826 346.404 380.301C347.083 381.685 348.03 382.799 349.219 383.612C351.559 385.213 354.45 385.418 356.707 385.418C361.139 385.418 365.126 383.178 367.12 379.57C367.362 379.173 368.001 378.151 368.692 377.049C369.364 375.975 369.989 374.986 370.54 374.113C370.843 373.633 371.119 373.197 371.358 372.816C372.25 371.399 373.2 370.025 374.182 368.731C374.547 368.252 374.659 368.122 374.684 368.093C375.144 367.583 375.434 366.958 375.523 366.286C375.662 365.232 375.25 364.219 374.393 363.506ZM373.336 365.989C373.308 366.203 373.212 366.407 373.058 366.577C372.978 366.666 372.835 366.836 372.436 367.36C371.414 368.706 370.426 370.135 369.499 371.608C369.261 371.988 368.986 372.422 368.683 372.901C368.131 373.776 367.505 374.767 366.83 375.844C366.124 376.972 365.471 378.017 365.231 378.41L365.206 378.453C363.606 381.366 360.349 383.175 356.707 383.175C354.764 383.175 352.296 383.013 350.451 381.751C348.569 380.464 347.537 378.168 347.296 374.732L347.295 358.447C347.295 357.907 347.727 357.467 348.259 357.467C348.793 357.467 349.228 357.907 349.228 358.447V364.556C349.228 364.574 349.23 364.592 349.23 364.61C349.231 364.629 349.231 364.65 349.233 364.669C349.235 364.687 349.239 364.704 349.241 364.722C349.244 364.741 349.246 364.761 349.25 364.781C349.253 364.798 349.259 364.816 349.263 364.833C349.268 364.851 349.271 364.87 349.277 364.888C349.282 364.906 349.289 364.923 349.295 364.94C349.301 364.957 349.307 364.974 349.314 364.991C349.321 365.008 349.329 365.024 349.337 365.041C349.345 365.057 349.352 365.073 349.36 365.09C349.369 365.105 349.379 365.12 349.388 365.136C349.397 365.151 349.406 365.167 349.415 365.182C349.425 365.197 349.437 365.211 349.447 365.225C349.458 365.24 349.468 365.255 349.479 365.268C349.49 365.282 349.502 365.295 349.514 365.308C349.526 365.321 349.537 365.335 349.55 365.348C349.562 365.361 349.575 365.372 349.588 365.384C349.601 365.396 349.614 365.409 349.628 365.421C349.641 365.432 349.655 365.442 349.669 365.452C349.684 365.463 349.698 365.475 349.713 365.485C349.727 365.495 349.742 365.503 349.756 365.512C349.772 365.522 349.787 365.532 349.804 365.542C349.819 365.55 349.835 365.557 349.85 365.564C349.866 365.573 349.883 365.581 349.9 365.589C349.916 365.596 349.933 365.601 349.949 365.607C349.967 365.614 349.984 365.621 350.002 365.627C350.018 365.632 350.036 365.636 350.053 365.641C350.072 365.645 350.089 365.651 350.107 365.655C350.125 365.658 350.144 365.66 350.162 365.663C350.181 365.666 350.198 365.67 350.217 365.672C350.235 365.674 350.254 365.674 350.273 365.675C350.291 365.676 350.309 365.678 350.328 365.678C350.329 365.678 350.33 365.678 350.331 365.678C350.369 365.678 350.407 365.676 350.444 365.672C350.46 365.67 350.476 365.667 350.492 365.665C350.512 365.662 350.533 365.659 350.553 365.655C350.574 365.651 350.595 365.644 350.615 365.639C350.63 365.635 350.645 365.632 350.659 365.627C350.682 365.62 350.704 365.611 350.726 365.602C350.737 365.598 350.749 365.595 350.76 365.59C350.782 365.58 350.804 365.569 350.825 365.558C350.835 365.553 350.846 365.548 350.856 365.543C350.876 365.532 350.895 365.519 350.915 365.507C350.925 365.5 350.937 365.494 350.947 365.487C350.965 365.475 350.982 365.461 350.999 365.447C351.01 365.439 351.021 365.431 351.032 365.422C351.048 365.409 351.062 365.395 351.077 365.381C351.088 365.37 351.1 365.361 351.111 365.35C351.124 365.336 351.137 365.321 351.15 365.306C351.16 365.294 351.172 365.283 351.182 365.27C351.193 365.256 351.204 365.241 351.214 365.226C351.225 365.212 351.236 365.199 351.245 365.184C351.255 365.169 351.264 365.154 351.273 365.138C351.282 365.123 351.292 365.108 351.301 365.092C351.309 365.076 351.316 365.06 351.323 365.044C351.331 365.027 351.34 365.011 351.347 364.994C351.354 364.977 351.359 364.96 351.365 364.944C351.372 364.926 351.379 364.909 351.384 364.891C351.389 364.874 351.393 364.856 351.398 364.839C351.402 364.82 351.408 364.802 351.412 364.783C351.415 364.766 351.417 364.748 351.42 364.73C351.423 364.711 351.426 364.692 351.428 364.672C351.43 364.654 351.43 364.636 351.431 364.617C351.432 364.598 351.434 364.579 351.434 364.559L351.46 354.325C351.46 353.939 351.621 353.567 351.913 353.279C352.227 352.969 352.651 352.798 353.076 352.811C353.872 352.836 354.52 353.54 354.52 354.382L354.533 364.497C354.533 364.517 354.535 364.537 354.536 364.557C354.537 364.575 354.537 364.593 354.538 364.61C354.54 364.631 354.544 364.652 354.548 364.672C354.55 364.689 354.552 364.706 354.555 364.722C354.56 364.744 354.566 364.766 354.572 364.787C354.575 364.801 354.578 364.816 354.582 364.829C354.59 364.853 354.599 364.875 354.607 364.898C354.612 364.91 354.615 364.921 354.619 364.932C354.63 364.956 354.641 364.98 354.653 365.003C354.658 365.012 354.661 365.022 354.666 365.03C354.679 365.054 354.693 365.077 354.708 365.1C354.712 365.108 354.716 365.115 354.721 365.122C354.736 365.146 354.753 365.167 354.77 365.189C354.775 365.195 354.779 365.202 354.785 365.209C354.803 365.232 354.823 365.253 354.844 365.275C354.848 365.279 354.851 365.284 354.856 365.288C354.877 365.31 354.899 365.33 354.922 365.349C354.926 365.353 354.93 365.357 354.934 365.361C354.957 365.38 354.98 365.397 355.004 365.414C355.009 365.418 355.014 365.422 355.019 365.425C355.043 365.442 355.068 365.457 355.094 365.471C355.099 365.475 355.104 365.478 355.11 365.482C355.136 365.496 355.164 365.509 355.191 365.521C355.196 365.524 355.201 365.527 355.206 365.529C355.235 365.541 355.264 365.551 355.293 365.561C355.298 365.562 355.303 365.565 355.308 365.567C355.337 365.576 355.366 365.583 355.396 365.59C355.402 365.591 355.408 365.593 355.414 365.594C355.485 365.609 355.56 365.617 355.636 365.617C355.636 365.617 355.637 365.617 355.637 365.617C355.657 365.617 355.676 365.615 355.695 365.614C355.713 365.613 355.731 365.613 355.749 365.611C355.769 365.609 355.789 365.605 355.808 365.602C355.825 365.599 355.842 365.597 355.859 365.594C355.879 365.59 355.898 365.584 355.918 365.579C355.933 365.574 355.949 365.571 355.965 365.566C355.984 365.56 356.003 365.552 356.023 365.545C356.037 365.539 356.052 365.535 356.066 365.529C356.086 365.52 356.105 365.51 356.124 365.5C356.137 365.494 356.15 365.488 356.162 365.481C356.181 365.471 356.199 365.459 356.218 365.447C356.229 365.44 356.242 365.433 356.253 365.425C356.271 365.413 356.287 365.4 356.304 365.387C356.315 365.378 356.327 365.37 356.338 365.36C356.354 365.347 356.369 365.332 356.384 365.318C356.395 365.308 356.406 365.298 356.417 365.288C356.431 365.273 356.444 365.258 356.457 365.242C356.467 365.231 356.478 365.22 356.488 365.208C356.5 365.193 356.511 365.177 356.522 365.162C356.532 365.148 356.542 365.135 356.551 365.122C356.561 365.106 356.57 365.09 356.579 365.074C356.588 365.059 356.598 365.045 356.606 365.029C356.615 365.013 356.622 364.996 356.629 364.98C356.637 364.964 356.646 364.948 356.653 364.931C356.659 364.915 356.665 364.898 356.67 364.882C356.677 364.864 356.684 364.846 356.69 364.828C356.695 364.811 356.699 364.793 356.703 364.775C356.708 364.757 356.713 364.739 356.717 364.721C356.72 364.702 356.722 364.683 356.725 364.665C356.728 364.646 356.732 364.628 356.733 364.609C356.735 364.59 356.735 364.571 356.736 364.552C356.737 364.533 356.739 364.514 356.739 364.495V351.012C356.739 350.151 357.428 349.438 358.274 349.423C358.682 349.417 359.07 349.578 359.371 349.879C359.685 350.192 359.864 350.624 359.864 351.065V364.557C359.864 364.578 359.866 364.597 359.867 364.617C359.868 364.635 359.868 364.653 359.87 364.671C359.872 364.691 359.876 364.71 359.879 364.73C359.882 364.748 359.883 364.765 359.887 364.783C359.891 364.802 359.897 364.821 359.901 364.84C359.906 364.857 359.909 364.874 359.914 364.89C359.92 364.911 359.928 364.931 359.936 364.951C359.941 364.965 359.945 364.979 359.951 364.993C359.96 365.014 359.97 365.034 359.98 365.055C359.986 365.066 359.991 365.079 359.998 365.091C360.009 365.112 360.021 365.131 360.033 365.151C360.04 365.162 360.046 365.173 360.053 365.183C360.066 365.203 360.081 365.222 360.095 365.241C360.103 365.251 360.109 365.26 360.116 365.27C360.132 365.29 360.15 365.308 360.168 365.327C360.175 365.334 360.181 365.342 360.188 365.349C360.206 365.368 360.225 365.385 360.245 365.402C360.252 365.408 360.258 365.415 360.266 365.422C360.288 365.44 360.311 365.457 360.334 365.473C360.339 365.477 360.345 365.482 360.351 365.486C360.376 365.503 360.401 365.519 360.427 365.534C360.432 365.536 360.437 365.54 360.442 365.542C360.47 365.558 360.499 365.572 360.53 365.585C360.532 365.587 360.535 365.588 360.538 365.59C360.569 365.603 360.601 365.615 360.634 365.625C360.636 365.626 360.637 365.627 360.64 365.627C360.708 365.649 360.78 365.664 360.853 365.672C360.854 365.672 360.854 365.672 360.855 365.672C360.892 365.676 360.929 365.678 360.967 365.678C360.968 365.678 360.968 365.678 360.969 365.678C360.988 365.678 361.007 365.676 361.027 365.675C361.045 365.674 361.063 365.674 361.081 365.672C361.101 365.67 361.121 365.666 361.141 365.662C361.157 365.66 361.174 365.658 361.19 365.655C361.212 365.65 361.233 365.644 361.254 365.638C361.268 365.634 361.282 365.632 361.296 365.627C361.318 365.62 361.34 365.611 361.362 365.603C361.374 365.598 361.386 365.594 361.397 365.589C361.419 365.58 361.441 365.569 361.462 365.557C361.473 365.552 361.483 365.548 361.494 365.542C361.515 365.53 361.535 365.517 361.555 365.504C361.565 365.498 361.575 365.492 361.585 365.486C361.605 365.472 361.625 365.456 361.644 365.44C361.652 365.434 361.661 365.428 361.67 365.421C361.689 365.405 361.707 365.387 361.725 365.37C361.733 365.363 361.741 365.356 361.748 365.349C361.765 365.331 361.782 365.312 361.798 365.292C361.805 365.284 361.813 365.277 361.819 365.269C361.835 365.25 361.849 365.229 361.864 365.209C361.87 365.2 361.877 365.192 361.883 365.183C361.896 365.162 361.908 365.141 361.92 365.12C361.926 365.11 361.932 365.101 361.938 365.09C361.949 365.069 361.959 365.046 361.969 365.024C361.974 365.013 361.98 365.003 361.984 364.992C361.993 364.97 362.001 364.948 362.009 364.925C362.013 364.913 362.018 364.902 362.021 364.889C362.028 364.868 362.033 364.845 362.038 364.823C362.041 364.809 362.046 364.796 362.048 364.782C362.053 364.76 362.055 364.738 362.058 364.716C362.06 364.701 362.064 364.686 362.065 364.67C362.067 364.65 362.067 364.629 362.068 364.608C362.069 364.591 362.071 364.574 362.071 364.556V355.299C362.143 354.673 362.665 354.177 363.298 354.166C363.623 354.16 363.937 354.291 364.179 354.533C364.433 354.786 364.578 355.136 364.578 355.493V368.732L364.579 368.782C364.585 369.509 365.054 370.123 365.747 370.31C366.435 370.496 367.137 370.202 367.499 369.573L367.506 369.56C368.371 368.024 370.682 365.616 371.357 365.111C371.435 365.052 371.525 365.005 371.624 364.97C372.064 364.816 372.615 364.926 372.997 365.243C373.176 365.393 373.381 365.644 373.336 365.989Z" fill="#F48C06"/>
<defs>
<filter id="filter0_b_12_240" x="-64.1964" y="-2.62221" width="756.715" height="515.979" filterUnits="userSpaceOnUse" color-interpolation-filters="sRGB">
<feFlood flood-opacity="0" result="BackgroundImageFix"/>
<feGaussianBlur in="BackgroundImageFix" stdDeviation="32.0982"/>
<feComposite in2="SourceAlpha" operator="in" result="effect1_backgroundBlur_12_240"/>
<feBlend mode="normal" in="SourceGraphic" in2="effect1_backgroundBlur_12_240" result="shape"/>
</filter>
<filter id="filter1_b_12_240" x="-64.1964" y="-2.62221" width="756.715" height="155.676" filterUnits="userSpaceOnUse" color-interpolation-filters="sRGB">
<feFlood flood-opacity="0" result="BackgroundImageFix"/>
<feGaussianBlur in="BackgroundImageFix" stdDeviation="32.0982"/>
<feComposite in2="SourceAlpha" operator="in" result="effect1_backgroundBlur_12_240"/>
<feBlend mode="normal" in="SourceGraphic" in2="effect1_backgroundBlur_12_240" result="shape"/>
</filter>
<filter id="filter2_d_12_240" x="19.4484" y="357.481" width="155.722" height="73.7631" filterUnits="userSpaceOnUse" color-interpolation-filters="sRGB">
<feFlood flood-opacity="0" result="BackgroundImageFix"/>
<feColorMatrix in="SourceAlpha" type="matrix" values="0 0 0 0 0 0 0 0 0 0 0 0 0 0 0 0 0 0 127 0" result="hardAlpha"/>
<feOffset dy="6.82991"/>
<feGaussianBlur stdDeviation="8.19589"/>
<feColorMatrix type="matrix" values="0 0 0 0 0.203922 0 0 0 0 0.396078 0 0 0 0 0.882353 0 0 0 0.3 0"/>
<feBlend mode="normal" in2="BackgroundImageFix" result="effect1_dropShadow_12_240"/>
<feBlend mode="normal" in="SourceGraphic" in2="effect1_dropShadow_12_240" result="shape"/>
</filter>
<filter id="filter3_d_12_240" x="168.173" y="357.748" width="155.722" height="73.7631" filterUnits="userSpaceOnUse" color-interpolation-filters="sRGB">
<feFlood flood-opacity="0" result="BackgroundImageFix"/>
<feColorMatrix in="SourceAlpha" type="matrix" values="0 0 0 0 0 0 0 0 0 0 0 0 0 0 0 0 0 0 127 0" result="hardAlpha"/>
<feOffset dy="6.82991"/>
<feGaussianBlur stdDeviation="8.19589"/>
<feColorMatrix type="matrix" values="0 0 0 0 0.791667 0 0 0 0 0.182743 0 0 0 0 0.365772 0 0 0 0.3 0"/>
<feBlend mode="normal" in2="BackgroundImageFix" result="effect1_dropShadow_12_240"/>
<feBlend mode="normal" in="SourceGraphic" in2="effect1_dropShadow_12_240" result="shape"/>
</filter>
<filter id="filter4_f_12_240" x="34.5079" y="116.213" width="270.464" height="264.181" filterUnits="userSpaceOnUse" color-interpolation-filters="sRGB">
<feFlood flood-opacity="0" result="BackgroundImageFix"/>
<feBlend mode="normal" in="SourceGraphic" in2="BackgroundImageFix" result="shape"/>
<feGaussianBlur stdDeviation="20.4897" result="effect1_foregroundBlur_12_240"/>
</filter>
<filter id="filter5_b_12_240" x="64.9254" y="300.632" width="154.218" height="35.4551" filterUnits="userSpaceOnUse" color-interpolation-filters="sRGB">
<feFlood flood-opacity="0" result="BackgroundImageFix"/>
<feGaussianBlur in="BackgroundImageFix" stdDeviation="4.45026"/>
<feComposite in2="SourceAlpha" operator="in" result="effect1_backgroundBlur_12_240"/>
<feBlend mode="normal" in="SourceGraphic" in2="effect1_backgroundBlur_12_240" result="shape"/>
</filter>
<filter id="filter6_d_12_240" x="524.804" y="85.659" width="226.292" height="220.889" filterUnits="userSpaceOnUse" color-interpolation-filters="sRGB">
<feFlood flood-opacity="0" result="BackgroundImageFix"/>
<feColorMatrix in="SourceAlpha" type="matrix" values="0 0 0 0 0 0 0 0 0 0 0 0 0 0 0 0 0 0 127 0" result="hardAlpha"/>
<feOffset dx="13.64" dy="13.64"/>
<feGaussianBlur stdDeviation="16.0491"/>
<feColorMatrix type="matrix" values="0 0 0 0 0.0509804 0 0 0 0 0.0588235 0 0 0 0 0.109804 0 0 0 0.1 0"/>
<feBlend mode="normal" in2="BackgroundImageFix" result="effect1_dropShadow_12_240"/>
<feBlend mode="normal" in="SourceGraphic" in2="effect1_dropShadow_12_240" result="shape"/>
</filter>
<filter id="filter7_b_12_240" x="541.101" y="220.286" width="103.741" height="42.6853" filterUnits="userSpaceOnUse" color-interpolation-filters="sRGB">
<feFlood flood-opacity="0" result="BackgroundImageFix"/>
<feGaussianBlur in="BackgroundImageFix" stdDeviation="5.4032"/>
<feComposite in2="SourceAlpha" operator="in" result="effect1_backgroundBlur_12_240"/>
<feBlend mode="normal" in="SourceGraphic" in2="effect1_backgroundBlur_12_240" result="shape"/>
</filter>
<filter id="filter8_b_12_240" x="363.945" y="231.701" width="95.6805" height="35.157" filterUnits="userSpaceOnUse" color-interpolation-filters="sRGB">
<feFlood flood-opacity="0" result="BackgroundImageFix"/>
<feGaussianBlur in="BackgroundImageFix" stdDeviation="4.45026"/>
<feComposite in2="SourceAlpha" operator="in" result="effect1_backgroundBlur_12_240"/>
<feBlend mode="normal" in="SourceGraphic" in2="effect1_backgroundBlur_12_240" result="shape"/>
</filter>
<filter id="filter9_b_12_240" x="363.945" y="380.785" width="108.586" height="35.157" filterUnits="userSpaceOnUse" color-interpolation-filters="sRGB">
<feFlood flood-opacity="0" result="BackgroundImageFix"/>
<feGaussianBlur in="BackgroundImageFix" stdDeviation="4.45026"/>
<feComposite in2="SourceAlpha" operator="in" result="effect1_backgroundBlur_12_240"/>
<feBlend mode="normal" in="SourceGraphic" in2="effect1_backgroundBlur_12_240" result="shape"/>
</filter>
<filter id="filter10_d_12_240" x="510.362" y="278.237" width="256.786" height="250.366" filterUnits="userSpaceOnUse" color-interpolation-filters="sRGB">
<feFlood flood-opacity="0" result="BackgroundImageFix"/>
<feColorMatrix in="SourceAlpha" type="matrix" values="0 0 0 0 0 0 0 0 0 0 0 0 0 0 0 0 0 0 127 0" result="hardAlpha"/>
<feOffset dx="16.0491" dy="16.0491"/>
<feGaussianBlur stdDeviation="16.0491"/>
<feColorMatrix type="matrix" values="0 0 0 0 0.0509804 0 0 0 0 0.0588235 0 0 0 0 0.109804 0 0 0 0.15 0"/>
<feBlend mode="normal" in2="BackgroundImageFix" result="effect1_dropShadow_12_240"/>
<feBlend mode="normal" in="SourceGraphic" in2="effect1_dropShadow_12_240" result="shape"/>
</filter>
<filter id="filter11_b_12_240" x="523.843" y="432.308" width="153.429" height="50.7152" filterUnits="userSpaceOnUse" color-interpolation-filters="sRGB">
<feFlood flood-opacity="0" result="BackgroundImageFix"/>
<feGaussianBlur in="BackgroundImageFix" stdDeviation="6.41964"/>
<feComposite in2="SourceAlpha" operator="in" result="effect1_backgroundBlur_12_240"/>
<feBlend mode="normal" in="SourceGraphic" in2="effect1_backgroundBlur_12_240" result="shape"/>
</filter>
<filter id="filter12_d_12_240" x="295.304" y="245.337" width="129.195" height="129.195" filterUnits="userSpaceOnUse" color-interpolation-filters="sRGB">
<feFlood flood-opacity="0" result="BackgroundImageFix"/>
<feColorMatrix in="SourceAlpha" type="matrix" values="0 0 0 0 0 0 0 0 0 0 0 0 0 0 0 0 0 0 127 0" result="hardAlpha"/>
<feOffset dx="1.60491" dy="8.02455"/>
<feGaussianBlur stdDeviation="13.6417"/>
<feColorMatrix type="matrix" values="0 0 0 0 0.0599965 0 0 0 0 0.0750638 0 0 0 0 0.154167 0 0 0 0.15 0"/>
<feBlend mode="normal" in2="BackgroundImageFix" result="effect1_dropShadow_12_240"/>
<feBlend mode="normal" in="SourceGraphic" in2="effect1_dropShadow_12_240" result="shape"/>
</filter>
<filter id="filter13_d_12_240" x="303.328" y="253.361" width="113.146" height="113.146" filterUnits="userSpaceOnUse" color-interpolation-filters="sRGB">
<feFlood flood-opacity="0" result="BackgroundImageFix"/>
<feColorMatrix in="SourceAlpha" type="matrix" values="0 0 0 0 0 0 0 0 0 0 0 0 0 0 0 0 0 0 127 0" result="hardAlpha"/>
<feOffset dx="1.60491" dy="8.02455"/>
<feGaussianBlur stdDeviation="13.6417"/>
<feColorMatrix type="matrix" values="0 0 0 0 0.0599965 0 0 0 0 0.0750638 0 0 0 0 0.154167 0 0 0 0.15 0"/>
<feBlend mode="normal" in2="BackgroundImageFix" result="effect1_dropShadow_12_240"/>
<feBlend mode="normal" in="SourceGraphic" in2="effect1_dropShadow_12_240" result="shape"/>
</filter>
<linearGradient id="paint0_linear_12_240" x1="246.034" y1="367.31" x2="235.377" y2="406.141" gradientUnits="userSpaceOnUse">
<stop stop-color="#F86761"/>
<stop offset="1" stop-color="#FEA07D"/>
</linearGradient>
<clipPath id="clip0_12_240">
<rect width="13.6598" height="13.6598" fill="white" transform="translate(218.714 380.951)"/>
</clipPath>
</defs>
</svg>
