<svg width="46" height="46" viewBox="0 0 46 46" fill="none" xmlns="http://www.w3.org/2000/svg">
<g id="fluent:music-note-2-20-filled">
<g id="Group">
<path id="Vector" d="M36.2156 6.85193C36.1623 6.5325 36.0412 6.2282 35.8604 5.95954C35.6796 5.69088 35.4433 5.46411 35.1675 5.29451C34.8916 5.12491 34.5826 5.01643 34.2612 4.97638C33.9399 4.93633 33.6137 4.96564 33.3046 5.06233L17.4475 10.0188C16.9864 10.1628 16.5834 10.4503 16.2973 10.8395C16.0112 11.2287 15.857 11.6992 15.8572 12.1822V30.6037C14.8366 29.8383 13.5874 29.4398 12.3121 29.473C11.0368 29.5061 9.80998 29.9689 8.83051 30.7863C7.85104 31.6038 7.17627 32.728 6.91552 33.9768C6.65477 35.2257 6.82332 36.526 7.39385 37.667C7.96439 38.8081 8.9035 39.7231 10.059 40.2638C11.2145 40.8045 12.5188 40.9392 13.7604 40.6461C15.002 40.353 16.1083 39.6493 16.9001 38.6489C17.6918 37.6485 18.1225 36.4101 18.1225 35.1343V18.9781L33.9797 14.0216V26.0731C32.9591 25.3076 31.7099 24.9092 30.4346 24.9424C29.1593 24.9755 27.9325 25.4383 26.953 26.2557C25.9735 27.0732 25.2988 28.1974 25.038 29.4462C24.7773 30.695 24.9458 31.9953 25.5163 33.1364C26.0869 34.2775 27.026 35.1925 28.1815 35.7332C29.337 36.2739 30.6413 36.4086 31.8829 36.1155C33.1245 35.8224 34.2308 35.1186 35.0225 34.1183C35.8143 33.1179 36.245 31.8795 36.245 30.6037V7.22571C36.245 7.09885 36.2337 6.97426 36.2156 6.85193Z" fill="#F86761"/>
</g>
</g>
</svg>
