<svg width="65" height="95" viewBox="0 0 65 95" fill="none" xmlns="http://www.w3.org/2000/svg">
<g id="Group">
<g id="Group_2">
<path id="Vector" d="M62.6821 4.672L59.9328 1.92383L57.7335 3.02309H23.3683C19.7943 3.02309 16.4953 5.49644 15.9454 8.79425L3.29904 88.2164C3.29904 88.2164 3.29904 88.2164 3.29904 88.4912H3.02411L1.92444 89.8653L4.67365 92.6135C5.77334 93.7127 7.14796 94.2624 9.07241 94.2624H43.9874C47.5614 94.2624 50.8604 91.789 51.4103 88.4912L64.0567 9.06908C64.3316 7.14536 63.7817 5.77127 62.6821 4.672Z" fill="#4B66BA"/>
<g id="Group_3">
<g id="Group_4">
<g id="Group_5">
<path id="Vector_2" d="M39.8636 91.7891C39.5886 91.7891 39.5886 92.0639 39.8636 92.0639C40.1385 92.3387 40.4134 92.3387 40.6883 92.3387C40.9633 92.3387 40.9633 92.0639 40.6883 92.0639C40.4134 91.7891 40.1385 91.7891 39.8636 91.7891Z" fill="#4B66BA"/>
<path id="Vector_3" d="M38.7639 91.7891C38.4889 91.7891 38.4889 92.0639 38.7639 92.0639C39.0388 92.3387 39.3137 92.3387 39.5886 92.3387C39.8636 92.3387 39.8636 92.0639 39.5886 92.0639C39.3137 91.7891 38.7639 91.7891 38.7639 91.7891Z" fill="#4B66BA"/>
<path id="Vector_4" d="M37.3893 91.7891C37.1143 91.7891 37.1143 92.0639 37.3893 92.0639C37.6642 92.3387 37.9391 92.3387 38.214 92.3387C38.489 92.3387 38.489 92.0639 38.214 92.0639C37.9391 91.7891 37.6642 91.7891 37.3893 91.7891Z" fill="#4B66BA"/>
<path id="Vector_5" d="M36.2896 91.7891C36.0147 91.7891 36.0147 92.0639 36.2896 92.0639C36.5645 92.3387 36.8394 92.3387 37.1144 92.3387C37.3893 92.3387 37.3893 92.0639 37.1144 92.0639C36.8394 91.7891 36.2896 91.7891 36.2896 91.7891Z" fill="#4B66BA"/>
<path id="Vector_6" d="M34.915 91.7891C34.6401 91.7891 34.6401 92.0639 34.915 92.0639C35.1899 92.3387 35.4648 92.3387 35.7398 92.3387C36.0147 92.3387 36.0147 92.0639 35.7398 92.0639C35.4648 91.7891 35.1899 91.7891 34.915 91.7891Z" fill="#4B66BA"/>
<path id="Vector_7" d="M33.5404 91.7891C33.2655 91.7891 33.2655 92.0639 33.5404 92.0639C33.8153 92.3387 34.0902 92.3387 34.3652 92.3387C34.6401 92.3387 34.6401 92.0639 34.3652 92.0639C34.0902 91.7891 33.8153 91.7891 33.5404 91.7891Z" fill="#4B66BA"/>
<path id="Vector_8" d="M32.4407 91.7891C32.1658 91.7891 32.1658 92.0639 32.4407 92.0639C32.7156 92.3387 32.9905 92.3387 33.2654 92.3387C33.5404 92.3387 33.5404 92.0639 33.2654 92.0639C32.9905 91.7891 32.7156 91.7891 32.4407 91.7891Z" fill="#4B66BA"/>
</g>
<g id="Group_6">
<path id="Vector_9" d="M40.9633 92.6135C40.6883 92.6135 40.6883 92.8884 40.9633 92.8884C41.2382 93.1632 41.5131 93.1632 41.788 93.1632C42.063 93.1632 42.063 92.8884 41.788 92.8884C41.5131 92.8884 41.2382 92.6135 40.9633 92.6135Z" fill="#4B66BA"/>
<path id="Vector_10" d="M39.5887 92.6135C39.3137 92.6135 39.3137 92.8884 39.5887 92.8884C39.8636 93.1632 40.1385 93.1632 40.4134 93.1632C40.6884 93.1632 40.6884 92.8884 40.4134 92.8884C40.1385 92.8884 39.8636 92.6135 39.5887 92.6135Z" fill="#4B66BA"/>
<path id="Vector_11" d="M38.489 92.6135C38.2141 92.6135 38.2141 92.8884 38.489 92.8884C38.7639 93.1632 39.0388 93.1632 39.3138 93.1632C39.5887 93.1632 39.5887 92.8884 39.3138 92.8884C39.0388 92.8884 38.489 92.6135 38.489 92.6135Z" fill="#4B66BA"/>
<path id="Vector_12" d="M37.1144 92.6135C36.8395 92.6135 36.8395 92.8884 37.1144 92.8884C37.3893 93.1632 37.6642 93.1632 37.9392 93.1632C38.2141 93.1632 38.2141 92.8884 37.9392 92.8884C37.6642 92.8884 37.3893 92.6135 37.1144 92.6135Z" fill="#4B66BA"/>
<path id="Vector_13" d="M36.0147 92.6135C35.7397 92.6135 35.7397 92.8884 36.0147 92.8884C36.2896 93.1632 36.5645 93.1632 36.8394 93.1632C37.1144 93.1632 37.1144 92.8884 36.8394 92.8884C36.5645 92.8884 36.0147 92.6135 36.0147 92.6135Z" fill="#4B66BA"/>
<path id="Vector_14" d="M34.6401 92.6135C34.3651 92.6135 34.3651 92.8884 34.6401 92.8884C34.915 93.1632 35.1899 93.1632 35.4648 93.1632C35.7398 93.1632 35.7398 92.8884 35.4648 92.8884C35.1899 92.8884 34.915 92.6135 34.6401 92.6135Z" fill="#4B66BA"/>
<path id="Vector_15" d="M33.2655 92.6135C32.9905 92.6135 32.9905 92.8884 33.2655 92.8884C33.5404 93.1632 33.8153 93.1632 34.0902 93.1632C34.3651 93.1632 34.3651 92.8884 34.0902 92.8884C33.8153 92.8884 33.5404 92.6135 33.2655 92.6135Z" fill="#4B66BA"/>
</g>
<g id="Group_7">
<path id="Vector_16" d="M31.0661 91.7891C30.7912 91.7891 30.7912 92.0639 31.0661 92.0639C31.341 92.3387 31.6159 92.3387 31.8908 92.3387C32.1658 92.3387 32.1658 92.0639 31.8908 92.0639C31.6159 91.7891 31.341 91.7891 31.0661 91.7891Z" fill="#4B66BA"/>
<path id="Vector_17" d="M32.1658 92.6135C31.8909 92.6135 31.8909 92.8884 32.1658 92.8884C32.4407 93.1632 32.7156 93.1632 32.9906 93.1632C33.2655 93.1632 33.2655 92.8884 32.9906 92.8884C32.7156 92.8884 32.4407 92.6135 32.1658 92.6135Z" fill="#4B66BA"/>
<path id="Vector_18" d="M29.9664 91.7891C29.6915 91.7891 29.6915 92.0639 29.9664 92.0639C30.2413 92.3387 30.5163 92.3387 30.7912 92.3387C31.0661 92.3387 31.0661 92.0639 30.7912 92.0639C30.5163 91.7891 30.2413 91.7891 29.9664 91.7891Z" fill="#4B66BA"/>
<path id="Vector_19" d="M31.0661 92.6135C30.7912 92.6135 30.7912 92.8884 31.0661 92.8884C31.341 93.1632 31.6159 93.1632 31.8908 93.1632C32.1658 93.1632 32.1658 92.8884 31.8908 92.8884C31.6159 92.8884 31.0661 92.6135 31.0661 92.6135Z" fill="#4B66BA"/>
</g>
</g>
<g id="Group_8">
<g id="Group_9">
<path id="Vector_20" d="M16.7702 91.5142C16.4952 91.5142 16.4952 91.789 16.7702 91.789C17.0451 92.0638 17.32 92.0638 17.5949 92.0638C17.8698 92.0638 17.8698 91.789 17.5949 91.789C17.32 91.789 17.0451 91.5142 16.7702 91.5142Z" fill="#4B66BA"/>
<path id="Vector_21" d="M15.3956 91.5142C15.1206 91.5142 15.1206 91.789 15.3956 91.789C15.6705 92.0638 15.9454 92.0638 16.2203 92.0638C16.4952 92.0638 16.4952 91.789 16.2203 91.789C15.9454 91.789 15.6705 91.5142 15.3956 91.5142Z" fill="#4B66BA"/>
<path id="Vector_22" d="M14.2959 91.5142C14.021 91.5142 14.021 91.789 14.2959 91.789C14.5708 92.0638 14.8457 92.0638 15.1207 92.0638C15.3956 92.0638 15.3956 91.789 15.1207 91.789C14.8457 91.789 14.5708 91.5142 14.2959 91.5142Z" fill="#4B66BA"/>
<path id="Vector_23" d="M12.9213 91.5142C12.6464 91.5142 12.6464 91.789 12.9213 91.789C13.1962 92.0638 13.4711 92.0638 13.7461 92.0638C14.021 92.0638 14.021 91.789 13.7461 91.789C13.4711 91.789 13.1962 91.5142 12.9213 91.5142Z" fill="#4B66BA"/>
<path id="Vector_24" d="M11.8216 91.5142C11.5467 91.5142 11.5467 91.789 11.8216 91.789C12.0965 92.0638 12.3714 92.0638 12.6463 92.0638C12.9213 92.0638 12.9213 91.789 12.6463 91.789C12.3714 91.789 12.0965 91.5142 11.8216 91.5142Z" fill="#4B66BA"/>
<path id="Vector_25" d="M10.447 91.5142C10.1721 91.5142 10.1721 91.789 10.447 91.789C10.7219 92.0638 10.9968 92.0638 11.2717 92.0638C11.5467 92.0638 11.5467 91.789 11.2717 91.789C10.9968 91.789 10.7219 91.5142 10.447 91.5142Z" fill="#4B66BA"/>
<path id="Vector_26" d="M9.3473 91.5142C9.07238 91.5142 9.07238 91.789 9.3473 91.789C9.62223 92.0638 9.89716 92.0638 10.1721 92.0638C10.447 92.0638 10.447 91.789 10.1721 91.789C9.89716 91.789 9.3473 91.5142 9.3473 91.5142Z" fill="#4B66BA"/>
</g>
<g id="Group_10">
<path id="Vector_27" d="M17.8699 92.6135C17.595 92.6135 17.595 92.8884 17.8699 92.8884C18.1448 93.1632 18.4197 93.1632 18.6947 93.1632C18.9696 93.1632 18.9696 92.8884 18.6947 92.8884C18.4197 92.6135 17.8699 92.6135 17.8699 92.6135Z" fill="#4B66BA"/>
<path id="Vector_28" d="M16.4953 92.6135C16.2204 92.6135 16.2204 92.8884 16.4953 92.8884C16.7702 93.1632 17.0451 93.1632 17.3201 93.1632C17.595 93.1632 17.595 92.8884 17.3201 92.8884C17.0451 92.6135 16.7702 92.6135 16.4953 92.6135Z" fill="#4B66BA"/>
<path id="Vector_29" d="M15.1207 92.6135C14.8457 92.6135 14.8457 92.8884 15.1207 92.8884C15.3956 93.1632 15.6705 93.1632 15.9454 93.1632C16.2203 93.1632 16.2203 92.8884 15.9454 92.8884C15.6705 92.6135 15.3956 92.6135 15.1207 92.6135Z" fill="#4B66BA"/>
<path id="Vector_30" d="M14.0209 92.6135C13.746 92.6135 13.746 92.8884 14.0209 92.8884C14.2959 93.1632 14.5708 93.1632 14.8457 93.1632C15.1206 93.1632 15.1206 92.8884 14.8457 92.8884C14.5708 92.6135 14.2959 92.6135 14.0209 92.6135Z" fill="#4B66BA"/>
<path id="Vector_31" d="M12.6463 92.6135C12.3714 92.6135 12.3714 92.8884 12.6463 92.8884C12.9213 93.1632 13.1962 93.1632 13.4711 93.1632C13.746 93.1632 13.746 92.8884 13.4711 92.8884C13.1962 92.6135 12.9213 92.6135 12.6463 92.6135Z" fill="#4B66BA"/>
<path id="Vector_32" d="M11.5467 92.6135C11.2718 92.6135 11.2718 92.8884 11.5467 92.8884C11.8216 93.1632 12.0965 93.1632 12.3714 93.1632C12.6464 93.1632 12.6464 92.8884 12.3714 92.8884C12.0965 92.6135 11.8216 92.6135 11.5467 92.6135Z" fill="#4B66BA"/>
<path id="Vector_33" d="M10.1721 92.6135C9.89715 92.6135 9.89715 92.8884 10.1721 92.8884C10.447 93.1632 10.7219 93.1632 10.9968 93.1632C11.2718 93.1632 11.2718 92.8884 10.9968 92.8884C10.7219 92.6135 10.447 92.6135 10.1721 92.6135Z" fill="#4B66BA"/>
</g>
<g id="Group_11">
<path id="Vector_34" d="M7.9727 91.5142C7.69778 91.5142 7.69778 91.789 7.9727 91.789C8.24762 92.0638 8.52255 92.0638 8.79747 92.0638C9.07239 92.0638 9.07239 91.789 8.79747 91.789C8.52255 91.789 8.24762 91.5142 7.9727 91.5142Z" fill="#4B66BA"/>
<path id="Vector_35" d="M9.0724 92.6135C8.79748 92.6135 8.79748 92.8884 9.0724 92.8884C9.34732 93.1632 9.62221 93.1632 9.89713 93.1632C10.1721 93.1632 10.1721 92.8884 9.89713 92.8884C9.62221 92.6135 9.34732 92.6135 9.0724 92.6135Z" fill="#4B66BA"/>
<path id="Vector_36" d="M6.87303 91.5142C6.59811 91.5142 6.59811 91.789 6.87303 91.789C7.14795 92.0638 7.42288 92.0638 7.6978 92.0638C7.97272 92.0638 7.97272 91.789 7.6978 91.789C7.42288 91.789 7.14795 91.5142 6.87303 91.5142Z" fill="#4B66BA"/>
<path id="Vector_37" d="M7.6978 92.6135C7.42288 92.6135 7.42288 92.8884 7.6978 92.8884C7.97272 93.1632 8.24761 93.1632 8.52253 93.1632C8.79745 93.1632 8.79745 92.8884 8.52253 92.8884C8.24761 92.6135 7.97272 92.6135 7.6978 92.6135Z" fill="#4B66BA"/>
</g>
</g>
</g>
<path id="Vector_38" d="M55.5341 0.274902H20.6191C17.0451 0.274902 13.7461 2.74826 13.1962 6.04607L0.549838 85.1934C-4.85778e-06 88.2164 2.4743 90.9646 6.3232 90.9646H41.2382C44.8122 90.9646 48.1112 88.4912 48.6611 85.1934L61.3075 5.77125C61.5824 2.74826 59.1081 0.274902 55.5341 0.274902Z" fill="#4B66BA"/>
<path id="Vector_39" d="M3.02411 87.9416C3.57395 88.4912 4.67363 89.0409 5.77332 89.0409H10.447H17.32H23.6432H40.6884C42.063 89.0409 43.7125 88.4912 44.8122 87.6668C45.9119 86.8423 46.4617 85.7431 46.7366 84.6438L47.5614 78.5978L49.4858 66.231L53.0598 43.1464L58.8331 6.04609L59.1081 4.94681C59.1081 4.39718 59.1081 3.57273 58.5582 2.74828C58.5582 2.47346 58.2833 2.47346 58.0084 2.47346C57.4585 2.19865 56.6338 1.92383 55.809 1.92383H51.9601H48.1112H26.3924H23.6432H20.6191C19.2445 1.92383 18.1448 2.19864 17.0451 3.02309C15.6705 3.84754 14.8458 4.94681 14.5708 6.3209L13.7461 10.9928L4.12382 71.4526L1.92444 85.743C2.19936 86.5675 2.19934 87.392 3.02411 87.9416Z" fill="white"/>
<g id="Group_12">
<g id="Group_13">
<path id="Vector_40" d="M18.9695 3.57275H23.0934L22.8185 5.22166H18.6946L18.9695 3.57275ZM22.8185 3.84758H18.9695L18.6946 5.22166H22.5435L22.8185 3.84758Z" fill="white"/>
</g>
<path id="Vector_41" d="M19.7943 5.22174H22.5435L22.8185 3.84766H20.0692L19.7943 5.22174Z" fill="white"/>
<path id="Vector_42" d="M18.1448 4.94692H18.6947L18.9695 3.84766H18.4197L18.1448 4.94692Z" fill="white"/>
</g>
<g id="Group_14">
<path id="Vector_43" d="M57.1836 5.22168H57.7335L58.0084 4.39722H57.4585L57.1836 5.22168Z" fill="white"/>
<path id="Vector_44" d="M56.0839 5.22174H56.6338L56.9087 3.84766H56.3589L56.0839 5.22174Z" fill="white"/>
<path id="Vector_45" d="M54.9843 5.22166H55.5341L55.809 3.57275H55.2591L54.9843 5.22166Z" fill="white"/>
</g>
<g id="Group_15">
<g id="Group_16">
<path id="Vector_46" d="M50.5855 4.94685C50.8604 4.67204 51.1353 4.67204 51.1353 4.67204C51.4103 4.67204 51.6852 4.94685 51.6852 4.94685C51.6852 4.94685 51.6852 4.94685 51.9601 4.94685C51.9601 4.94685 51.9601 4.94686 51.9601 4.67204C51.9601 4.67204 51.6852 4.39722 51.4103 4.39722C51.1354 4.39722 50.8604 4.67204 50.5855 4.94685Z" fill="white"/>
</g>
<g id="Group_17">
<path id="Vector_47" d="M50.3106 4.67203C50.5855 4.39721 51.1354 4.12239 51.4103 4.12239C51.9601 4.12239 52.235 4.3972 52.235 4.3972C52.235 4.3972 52.235 4.3972 52.5099 4.3972C52.5099 4.3972 52.5099 4.39721 52.5099 4.12239C52.5099 4.12239 52.2351 3.57275 51.6852 3.57275C51.1354 3.84757 50.5855 4.12239 50.3106 4.67203C50.3106 4.39721 50.3106 4.39721 50.3106 4.67203Z" fill="white"/>
</g>
<g id="Group_18">
<path id="Vector_48" d="M52.7849 4.1223C52.7849 3.84748 52.51 3.29785 51.6852 3.29785C51.1354 3.29785 50.5855 3.57267 50.0357 4.1223C50.0357 4.1223 50.0357 4.1223 50.0357 4.39711C50.0357 4.39711 50.0357 4.39711 50.3106 4.39711C50.8605 3.84748 51.4103 3.84749 51.6852 3.84749C52.2351 3.57267 52.51 4.1223 52.7849 4.1223Z" fill="white"/>
</g>
<path id="Vector_49" d="M50.8604 5.2216C50.8604 5.49642 50.8604 5.49642 50.8604 5.2216C51.1354 5.49642 51.4103 5.2216 51.4103 5.2216C51.4103 4.94678 51.4103 4.94678 51.1353 4.94678L50.8604 5.2216Z" fill="white"/>
</g>
<g id="Group_19">
<path id="Vector_50" d="M29.1416 2.7483C28.3169 3.29793 28.3169 4.12239 28.5918 4.67202C29.1416 5.22165 29.9664 4.94683 30.7912 4.3972C31.6159 3.84756 31.6159 3.02312 31.341 2.47349C30.7912 2.19867 29.6915 2.19866 29.1416 2.7483Z" fill="#00045B"/>
<path id="Vector_51" d="M29.1416 3.0232C28.5918 3.57283 28.3169 4.12247 28.8667 4.39729C29.1417 4.6721 29.9664 4.67211 30.5162 4.12247C31.0661 3.57284 31.341 3.0232 30.7912 2.74839C30.5163 2.47357 29.9664 2.47357 29.1416 3.0232Z" fill="#4B66BA"/>
<path id="Vector_52" d="M43.9874 2.74829H33.8153C33.5404 2.74829 33.2655 2.74829 32.9905 3.0231C32.4407 3.29792 32.4407 3.84756 32.7156 4.12238C32.7156 4.12238 32.9905 4.12237 32.9905 4.39719H33.2654H42.8877C43.1626 4.39719 43.4375 4.39719 43.7125 4.12238C43.9874 3.84756 44.2623 3.57274 44.2623 3.29793C44.2623 3.02311 44.2623 3.0231 43.9874 3.0231C44.2623 2.74829 44.2623 2.74829 43.9874 2.74829Z" fill="#4B66BA"/>
<path id="Vector_53" d="M34.6401 3.29785C34.3652 3.29785 34.0903 3.29785 33.8153 3.57266C33.5404 3.84748 33.2655 4.1223 33.2655 4.39711H42.8877C43.1626 4.39711 43.4376 4.39712 43.7125 4.1223C43.9874 3.84748 44.2623 3.57267 44.2623 3.29785H34.6401C34.915 3.29785 34.915 3.29785 34.6401 3.29785Z" fill="#00045B"/>
<path id="Vector_54" opacity="0.2" d="M29.1417 3.29785C28.8667 3.57267 28.8668 3.84749 28.8668 3.84749H29.4166C29.6915 3.57267 29.6915 3.29785 29.6915 3.29785C29.6915 3.29785 29.4166 3.29785 29.1417 3.29785Z" fill="#DBE1EE"/>
<path id="Vector_55" opacity="0.2" d="M30.2414 3.02319C30.2414 3.02319 29.9664 3.29802 30.2414 3.29802H30.5163C30.5163 3.29802 30.7912 3.02319 30.5163 3.02319H30.2414Z" fill="#DBE1EE"/>
</g>
<path id="Vector_56" d="M26.9423 91.7891H20.894C20.6191 91.7891 20.6191 92.0639 20.894 92.0639L21.7188 92.8883H21.9937H27.767C28.042 92.8883 28.042 92.6135 27.767 92.6135L26.9423 91.7891Z" fill="#4B66BA"/>
<g id="Group_20">
<g id="Group_21">
<path id="Vector_57" d="M18.9695 82.72V81.8956L22.8185 79.697L22.5435 80.7963L19.5194 82.4452L22.2686 84.0941L21.9937 85.1934L18.9695 82.72Z" fill="#8C68C8"/>
<path id="Vector_58" d="M29.1416 82.7199L25.2928 84.9185L25.5677 83.8192L28.5918 82.1703L25.8426 80.5214L26.1175 79.4221L29.4166 81.6206L29.1416 82.7199Z" fill="#8C68C8"/>
</g>
<g id="Group_22">
<path id="Vector_59" d="M32.1658 34.9019H15.1207C14.8457 34.9019 14.8458 35.1767 14.5708 35.4515C14.5708 35.7263 14.5708 36.0011 14.8457 36.0011H31.8908C32.1658 36.0011 32.1658 35.7263 32.4407 35.4515C32.4407 35.1767 32.1658 34.9019 32.1658 34.9019Z" fill="#8C68C8"/>
<path id="Vector_60" d="M19.7943 38.4744H14.2959C14.021 38.4744 14.021 38.7492 13.7461 39.024C13.7461 39.2988 13.746 39.5736 14.021 39.5736H19.5194C19.7943 39.5736 19.7943 39.2988 20.0693 39.024C20.0693 38.7492 20.0692 38.4744 19.7943 38.4744Z" fill="#8C68C8"/>
<path id="Vector_61" d="M28.8667 38.4744H21.1689C20.894 38.4744 20.894 38.7492 20.6191 39.024C20.6191 39.2988 20.6191 39.5736 20.894 39.5736H28.5918C28.8667 39.5736 28.8667 39.2988 29.1416 39.024C29.1416 38.7492 28.8667 38.4744 28.8667 38.4744Z" fill="#8C68C8"/>
<path id="Vector_62" d="M32.9906 27.2068H15.9454C15.6705 27.2068 15.6705 27.4816 15.3956 27.7564C15.3956 28.0312 15.3956 28.3061 15.6705 28.3061H32.7156C32.9905 28.3061 32.9905 28.0312 33.2655 27.7564C33.2655 27.4816 33.2655 27.2068 32.9906 27.2068Z" fill="#8C68C8"/>
<path id="Vector_63" d="M20.894 31.0544H15.3956C15.1206 31.0544 15.1207 31.3293 14.8457 31.6041C14.8457 31.8789 14.8458 32.1537 15.1207 32.1537H20.6191C20.894 32.1537 20.894 31.8789 21.1689 31.6041C21.1689 31.3293 20.894 31.0544 20.894 31.0544Z" fill="#8C68C8"/>
<path id="Vector_64" d="M29.6915 31.0544H21.9937C21.7188 31.0544 21.7188 31.3293 21.4439 31.6041C21.4439 31.8789 21.4439 32.1537 21.7188 32.1537H29.4166C29.6915 32.1537 29.6915 31.8789 29.9664 31.6041C29.9664 31.3293 29.9664 31.0544 29.6915 31.0544Z" fill="#8C68C8"/>
<path id="Vector_65" d="M50.5855 23.9092H33.5404C33.2655 23.9092 33.2655 24.184 32.9905 24.4588C32.9905 24.7336 32.9905 25.0085 33.2654 25.0085H50.3106C50.5855 25.0085 50.5855 24.7336 50.8604 24.4588C50.8604 24.184 50.8604 23.9092 50.5855 23.9092Z" fill="#8C68C8"/>
<path id="Vector_66" d="M43.9874 16.489H38.489C38.2141 16.489 38.2141 16.7638 37.9391 17.0386C37.9391 17.3135 37.9391 17.5883 38.214 17.5883H43.7125C43.9874 17.5883 43.9874 17.3135 44.2623 17.0386C43.9874 16.7638 43.9874 16.489 43.9874 16.489Z" fill="#8C68C8"/>
<path id="Vector_67" d="M52.7849 16.489H45.0871C44.8121 16.489 44.8122 16.7638 44.5372 17.0386C44.5372 17.3135 44.5372 17.5883 44.8122 17.5883H52.5099C52.7849 17.5883 52.7849 17.3135 53.0598 17.0386C53.0598 16.7638 53.0598 16.489 52.7849 16.489Z" fill="#8C68C8"/>
<path id="Vector_68" d="M46.4617 20.0615H38.7639C38.489 20.0615 38.489 20.3363 38.2141 20.6111C38.2141 20.886 38.2141 21.1608 38.489 21.1608H46.1868C46.4617 21.1608 46.4617 20.886 46.7366 20.6111C46.7366 20.3363 46.7366 20.0615 46.4617 20.0615Z" fill="#8C68C8"/>
<path id="Vector_69" d="M48.6611 38.4744H43.1626C42.8877 38.4744 42.8877 38.7492 42.6128 39.024C42.6128 39.2988 42.6128 39.5736 42.8877 39.5736H48.3861C48.661 39.5736 48.6611 39.2988 48.936 39.024C48.936 38.7492 48.6611 38.4744 48.6611 38.4744Z" fill="#8C68C8"/>
<path id="Vector_70" d="M49.4858 34.9019H34.0902C34.0902 34.9019 33.8153 34.9019 33.8153 35.1767L33.5404 36.0011C33.5404 36.2759 33.5404 36.2759 33.8153 36.2759H49.2109C49.2109 36.2759 49.4858 36.2759 49.4858 36.0011V34.9019Z" fill="#8C68C8"/>
<path id="Vector_71" d="M37.6642 38.4744H30.7912C30.5162 38.4744 30.5163 38.7492 30.2413 39.024C30.2413 39.2988 30.2413 39.5736 30.5162 39.5736H37.6642C37.9391 39.5736 37.9391 39.2988 38.214 39.024C37.9391 38.7492 37.9391 38.4744 37.6642 38.4744Z" fill="#8C68C8"/>
<path id="Vector_72" d="M41.5131 38.4744H38.7639C38.489 38.4744 38.489 38.7492 38.2141 39.024C38.2141 39.2988 38.2141 39.5736 38.489 39.5736H41.2382C41.5131 39.5736 41.5131 39.2988 41.788 39.024C41.788 38.7492 41.788 38.4744 41.5131 38.4744Z" fill="#8C68C8"/>
<path id="Vector_73" d="M34.3652 31.0544H31.341C31.0661 31.0544 31.0661 31.3293 30.7912 31.6041C30.7912 31.8789 30.7912 32.1537 31.0661 32.1537H34.0902C34.3651 32.1537 34.3651 31.8789 34.64 31.6041C34.3651 31.3293 34.3652 31.0544 34.3652 31.0544Z" fill="#8C68C8"/>
<path id="Vector_74" d="M50.8605 31.0544H35.4648C35.4648 31.0544 35.1899 31.0544 35.1899 31.3293L34.915 32.1537C34.915 32.4285 34.915 32.4285 35.1899 32.4285H50.5855C50.5855 32.4285 50.8605 32.4285 50.8605 32.1537V31.0544C51.1354 31.0544 51.1354 31.0544 50.8605 31.0544Z" fill="#8C68C8"/>
<path id="Vector_75" d="M37.3893 26.9321H34.3652C34.0903 26.9321 34.0903 27.2069 33.8153 27.4818C33.8153 27.7566 33.8153 28.0314 34.0902 28.0314H37.1144C37.3893 28.0314 37.3893 27.7566 37.6642 27.4818C37.6642 27.2069 37.6642 26.9321 37.3893 26.9321Z" fill="#8C68C8"/>
<path id="Vector_76" d="M45.9118 26.9321H39.0388C38.7639 26.9321 38.7639 27.2069 38.489 27.4818C38.2141 27.7566 38.4889 28.0314 38.7639 28.0314H45.9118C46.1868 28.0314 46.1868 27.7566 46.4617 27.4818C46.1868 27.2069 46.1868 26.9321 45.9118 26.9321Z" fill="#8C68C8"/>
<path id="Vector_77" d="M49.7607 26.9321H47.0115C46.7366 26.9321 46.7366 27.2069 46.4617 27.4818C46.4617 27.7566 46.4617 28.0314 46.7366 28.0314H49.4858C49.7607 28.0314 49.7607 27.7566 50.0357 27.4818C50.0357 27.2069 49.7607 26.9321 49.7607 26.9321Z" fill="#8C68C8"/>
<path id="Vector_78" d="M27.767 16.489H22.2686C21.9937 16.489 21.9937 16.7638 21.7188 17.0386C21.7188 17.3135 21.7188 17.5883 21.9937 17.5883H27.4921C27.767 17.5883 27.767 17.3135 28.0419 17.0386C28.0419 16.7638 28.0419 16.489 27.767 16.489Z" fill="#8C68C8"/>
<path id="Vector_79" d="M36.8394 16.489H29.1416C28.8667 16.489 28.8667 16.7638 28.5918 17.0386C28.5918 17.3135 28.5918 17.5883 28.8667 17.5883H36.5645C36.8395 17.5883 36.8395 17.3135 37.1144 17.0386C37.1144 16.7638 36.8394 16.489 36.8394 16.489Z" fill="#8C68C8"/>
<path id="Vector_80" d="M20.3442 20.0615H17.32C17.0451 20.0615 17.0451 20.3363 16.7702 20.6111C16.7702 20.886 16.7702 21.1608 17.0451 21.1608H20.0693C20.3442 21.1608 20.3442 20.886 20.6191 20.6111C20.6191 20.3363 20.6191 20.0615 20.3442 20.0615Z" fill="#8C68C8"/>
<path id="Vector_81" d="M37.1144 20.0615H21.7188C21.7188 20.0615 21.4439 20.0615 21.4439 20.3363L21.1689 21.1608C21.1689 21.4356 21.169 21.4356 21.4439 21.4356H36.8395C36.8395 21.4356 37.1144 21.4356 37.1144 21.1608V20.0615C37.3893 20.3363 37.3893 20.0615 37.1144 20.0615Z" fill="#8C68C8"/>
<path id="Vector_82" d="M19.7943 23.9092H16.7702C16.4952 23.9092 16.4953 24.184 16.2203 24.4588C16.2203 24.7336 16.2204 25.0085 16.4953 25.0085H19.5194C19.7943 25.0085 19.7943 24.7336 20.0693 24.4588C20.0693 24.184 19.7943 23.9092 19.7943 23.9092Z" fill="#8C68C8"/>
<path id="Vector_83" d="M28.3169 23.9092H21.1689C20.894 23.9092 20.894 24.184 20.6191 24.4588C20.6191 24.7336 20.6191 25.0085 20.894 25.0085H28.042C28.3169 25.0085 28.3169 24.7336 28.5918 24.4588C28.3169 24.184 28.3169 23.9092 28.3169 23.9092Z" fill="#8C68C8"/>
<path id="Vector_84" d="M31.8908 23.9092H29.1416C28.8667 23.9092 28.8667 24.184 28.5918 24.4588C28.5918 24.7336 28.5918 25.0085 28.8667 25.0085H31.6159C31.8909 25.0085 31.8909 24.7336 32.1658 24.4588C32.1658 24.184 32.1658 23.9092 31.8908 23.9092Z" fill="#8C68C8"/>
</g>
<g id="Group_23">
<path id="Vector_85" d="M26.9423 65.1318H9.89712C9.6222 65.1318 9.62221 65.4067 9.34729 65.6815C9.34729 65.9563 9.34731 66.2311 9.62223 66.2311H26.6673C26.9423 66.2311 26.9423 65.9563 27.2172 65.6815C27.2172 65.4067 26.9423 65.1318 26.9423 65.1318Z" fill="#8C68C8"/>
<path id="Vector_86" d="M14.5708 68.7043H9.0724C8.79748 68.7043 8.79744 68.9792 8.52252 69.254C8.52252 69.5288 8.52254 69.8036 8.79746 69.8036H14.2959C14.5708 69.8036 14.5708 69.5288 14.8457 69.254C14.8457 68.9792 14.8457 68.7043 14.5708 68.7043Z" fill="#8C68C8"/>
<path id="Vector_87" d="M23.6432 68.7043H15.9454C15.6705 68.7043 15.6705 68.9792 15.3956 69.254C15.3956 69.5288 15.3956 69.8036 15.6705 69.8036H23.3683C23.6432 69.8036 23.6432 69.5288 23.9181 69.254C23.9181 68.9792 23.6432 68.7043 23.6432 68.7043Z" fill="#8C68C8"/>
<path id="Vector_88" d="M27.767 57.4368H10.7219C10.447 57.4368 10.447 57.7116 10.1721 57.9864C10.1721 58.2612 10.1721 58.536 10.447 58.536H27.4921C27.767 58.536 27.767 58.2612 28.0419 57.9864C28.0419 57.7116 28.0419 57.4368 27.767 57.4368Z" fill="#8C68C8"/>
<path id="Vector_89" d="M15.6705 61.2844H10.1721C9.89714 61.2844 9.89714 61.5592 9.62222 61.834C9.62222 62.1089 9.6222 62.3837 9.89712 62.3837H15.3955C15.6705 62.3837 15.6705 62.1089 15.9454 61.834C15.9454 61.5592 15.6705 61.2844 15.6705 61.2844Z" fill="#8C68C8"/>
<path id="Vector_90" d="M24.468 61.2844H16.7702C16.4952 61.2844 16.4953 61.5592 16.2203 61.834C16.2203 62.1089 16.2204 62.3837 16.4953 62.3837H24.1931C24.468 62.3837 24.468 62.1089 24.7429 61.834C24.7429 61.5592 24.7429 61.2844 24.468 61.2844Z" fill="#8C68C8"/>
<path id="Vector_91" d="M45.362 54.1392H28.3169C28.042 54.1392 28.0419 54.414 27.767 54.6888C27.767 54.9636 27.767 55.2384 28.0419 55.2384H45.087C45.362 55.2384 45.362 54.9636 45.6369 54.6888C45.6369 54.414 45.6369 54.1392 45.362 54.1392Z" fill="#8C68C8"/>
<path id="Vector_92" d="M38.7639 46.719H33.2654C32.9905 46.719 32.9905 46.9938 32.7156 47.2686C32.7156 47.5434 32.7156 47.8183 32.9905 47.8183H38.489C38.7639 47.8183 38.7639 47.5434 39.0388 47.2686C38.7639 46.9938 38.7639 46.719 38.7639 46.719Z" fill="#8C68C8"/>
<path id="Vector_93" d="M47.5614 46.719H39.8636C39.5887 46.719 39.5887 46.9938 39.3138 47.2686C39.3138 47.5434 39.3137 47.8183 39.5886 47.8183H47.2865C47.5614 47.8183 47.5614 47.5434 47.8363 47.2686C47.8363 46.9938 47.8363 46.719 47.5614 46.719Z" fill="#8C68C8"/>
<path id="Vector_94" d="M41.2382 50.2915H33.5404C33.2655 50.2915 33.2655 50.5663 32.9905 50.8411C32.9905 51.1159 32.9905 51.3908 33.2654 51.3908H40.9632C41.2382 51.3908 41.2382 51.1159 41.5131 50.8411C41.5131 50.5663 41.5131 50.2915 41.2382 50.2915Z" fill="#8C68C8"/>
<path id="Vector_95" d="M43.4376 68.7043H37.9391C37.6642 68.7043 37.6642 68.9792 37.3893 69.254C37.3893 69.5288 37.3893 69.8036 37.6642 69.8036H43.1626C43.4375 69.8036 43.4375 69.5288 43.7125 69.254C43.7125 68.9792 43.4376 68.7043 43.4376 68.7043Z" fill="#8C68C8"/>
<path id="Vector_96" d="M44.2623 65.1318H28.8667C28.8667 65.1318 28.5918 65.1319 28.5918 65.4067L28.3169 66.2311C28.3169 66.5059 28.3169 66.5059 28.5918 66.5059H43.9874C43.9874 66.5059 44.2623 66.5059 44.2623 66.2311V65.1318Z" fill="#8C68C8"/>
<path id="Vector_97" d="M32.4407 68.7043H25.2927C25.0178 68.7043 25.0178 68.9792 24.7429 69.254C24.468 69.5288 24.7429 69.8036 25.0178 69.8036H32.1657C32.4407 69.8036 32.4407 69.5288 32.7156 69.254C32.7156 68.9792 32.7156 68.7043 32.4407 68.7043Z" fill="#8C68C8"/>
<path id="Vector_98" d="M36.2896 68.7043H33.5404C33.2655 68.7043 33.2655 68.9792 32.9905 69.254C32.9905 69.5288 32.9905 69.8036 33.2654 69.8036H36.0146C36.2896 69.8036 36.2896 69.5288 36.5645 69.254C36.5645 68.9792 36.5645 68.7043 36.2896 68.7043Z" fill="#8C68C8"/>
<path id="Vector_99" d="M29.1416 61.2844H26.1175C25.8426 61.2844 25.8426 61.5592 25.5677 61.834C25.5677 62.1089 25.5677 62.3837 25.8426 62.3837H28.8667C29.1417 62.3837 29.1416 62.1089 29.4166 61.834C29.1416 61.5592 29.1416 61.2844 29.1416 61.2844Z" fill="#8C68C8"/>
<path id="Vector_100" d="M45.9118 61.2844H30.5162C30.5162 61.2844 30.2413 61.2844 30.2413 61.5592L29.9664 62.3837C29.9664 62.6585 29.9664 62.6585 30.2413 62.6585H45.6369C45.6369 62.6585 45.9118 62.6585 45.9118 62.3837V61.2844Z" fill="#8C68C8"/>
<path id="Vector_101" d="M32.1658 57.1621H29.1416C28.8667 57.1621 28.8667 57.4369 28.5918 57.7117C28.5918 57.9866 28.5918 58.2614 28.8667 58.2614H31.8908C32.1658 58.2614 32.1658 57.9866 32.4407 57.7117C32.4407 57.4369 32.4407 57.1621 32.1658 57.1621Z" fill="#8C68C8"/>
<path id="Vector_102" d="M40.6883 57.1621H33.5404C33.2655 57.1621 33.2655 57.4369 32.9905 57.7117C32.9905 57.9866 32.9905 58.2614 33.2654 58.2614H40.4134C40.6883 58.2614 40.6883 57.9866 40.9632 57.7117C40.9632 57.4369 40.9633 57.1621 40.6883 57.1621Z" fill="#8C68C8"/>
<path id="Vector_103" d="M44.5372 57.1621H41.788C41.5131 57.1621 41.5131 57.4369 41.2382 57.7117C41.2382 57.9866 41.2382 58.2614 41.5131 58.2614H44.2623C44.5372 58.2614 44.5373 57.9866 44.8122 57.7117C44.8122 57.4369 44.5372 57.1621 44.5372 57.1621Z" fill="#8C68C8"/>
<path id="Vector_104" d="M22.5435 46.719H17.0451C16.7702 46.719 16.7702 46.9938 16.4953 47.2686C16.4953 47.5434 16.4952 47.8183 16.7702 47.8183H22.2686C22.5435 47.8183 22.5435 47.5434 22.8185 47.2686C22.8185 46.9938 22.8185 46.719 22.5435 46.719Z" fill="#8C68C8"/>
<path id="Vector_105" d="M31.6159 46.719H23.9181C23.6432 46.719 23.6432 46.9938 23.3683 47.2686C23.3683 47.5434 23.3683 47.8183 23.6432 47.8183H31.341C31.6159 47.8183 31.6159 47.5434 31.8908 47.2686C31.8908 46.9938 31.6159 46.719 31.6159 46.719Z" fill="#8C68C8"/>
<path id="Vector_106" d="M15.1206 50.2915H12.0965C11.8216 50.2915 11.8216 50.5663 11.5467 50.8411C11.5467 51.1159 11.5467 51.3908 11.8216 51.3908H14.8457C15.1206 51.3908 15.1206 51.1159 15.3955 50.8411C15.3955 50.5663 15.3956 50.2915 15.1206 50.2915Z" fill="#8C68C8"/>
<path id="Vector_107" d="M31.8908 50.2915H16.4953C16.4953 50.2915 16.2203 50.2915 16.2203 50.5663L15.9454 51.3908C15.9454 51.6656 15.9454 51.6656 16.2203 51.6656H31.6159C31.6159 51.6656 31.8908 51.6656 31.8908 51.3908V50.2915C32.1658 50.5663 32.1658 50.2915 31.8908 50.2915Z" fill="#8C68C8"/>
<path id="Vector_108" d="M14.5708 54.1392H11.5467C11.2717 54.1392 11.2717 54.414 10.9968 54.6888C10.9968 54.9636 10.9968 55.2384 11.2717 55.2384H14.2959C14.5708 55.2384 14.5708 54.9636 14.8457 54.6888C14.8457 54.414 14.5708 54.1392 14.5708 54.1392Z" fill="#8C68C8"/>
<path id="Vector_109" d="M23.0934 54.1392H15.9454C15.6705 54.1392 15.6705 54.414 15.3956 54.6888C15.3956 54.9636 15.3956 55.2384 15.6705 55.2384H22.8185C23.0934 55.2384 23.0934 54.9636 23.3683 54.6888C23.6432 54.414 23.0934 54.1392 23.0934 54.1392Z" fill="#8C68C8"/>
<path id="Vector_110" d="M26.6673 54.1392H23.9181C23.6432 54.1392 23.6432 54.414 23.3683 54.6888C23.3683 54.9636 23.3683 55.2384 23.6432 55.2384H26.3924C26.6673 55.2384 26.6673 54.9636 26.9423 54.6888C26.9423 54.414 26.9423 54.1392 26.6673 54.1392Z" fill="#8C68C8"/>
</g>
</g>
</g>
<path id="Vector_111" opacity="0.22" d="M41.788 0.274813L5.22349 92.8882C4.94857 92.6134 4.67364 92.3386 4.39872 92.0638L1.6495 89.3156C0.549817 88.2163 0 86.8422 0 85.1933L6.3232 44.7952L23.9181 0L41.788 0.274813Z" fill="#E0E9F4"/>
<path id="Vector_112" opacity="0.22" d="M59.383 1.37409L22.8185 93.7126H14.2959L51.4103 0H55.5341C57.1836 0.274817 58.5582 0.549634 59.383 1.37409Z" fill="#E0E9F4"/>
</g>
</svg>
