<svg xmlns="http://www.w3.org/2000/svg" width="42" height="46" viewBox="0 0 42 46" fill="none">
  <path fill-rule="evenodd" clip-rule="evenodd" d="M13.1346 26.5129C9.92159 23.9193 7.71986 19.1091 7.71986 15.2486C7.71986 9.47558 11.7464 6.12447 15.5323 5.99199C17.1015 5.96773 18.7584 6.3633 19.9992 7.05554C19.6727 4.67095 18.6054 2.84052 17.4915 1.53627L20.0421 0.390625C20.5702 1.15004 21.1094 2.4972 21.462 4.0832C22.1767 2.78641 23.0443 1.72846 24.2142 1.04555C25.4625 0.31599 27.5317 0.276806 28.9125 0.538029C28.5636 1.76578 27.8359 3.3611 26.1305 4.40973C25.0818 5.05345 23.3932 5.38371 21.6822 5.25497C21.7606 5.78301 21.8184 6.32598 21.8446 6.87268C23.1171 6.1935 24.5314 5.9696 26.0297 5.99199C29.8156 6.12447 33.8421 9.47558 33.8421 15.2486C33.8421 19.1091 31.6404 23.9193 28.4274 26.5129H41.3057V30.2447H4.92104C4.40606 30.2447 3.9881 30.6626 3.9881 31.1776C3.9881 31.6926 4.40606 32.1105 4.92104 32.1105H41.3057V35.8423H6.78692C5.24197 35.8423 3.9881 37.0962 3.9881 38.6411C3.9881 40.1861 5.24197 41.4399 6.78692 41.4399H41.3057V45.1717H6.78692C3.18204 45.1717 0.256348 42.246 0.256348 38.6411C0.256348 37.0924 0.797452 35.6688 1.69867 34.5492C0.810513 33.7003 0.256348 32.5024 0.256348 31.1776C0.256348 28.6027 2.34613 26.5129 4.92104 26.5129H13.1346ZM41.3057 39.574H7.71987V37.7082H41.3057V39.574ZM20.8071 11.5859C19.5701 10.5559 18.1296 9.59686 15.5155 9.72747C13.6496 9.85808 11.2912 11.7837 11.4591 15.6274C11.5934 18.7658 13.7914 22.6263 16.0734 24.0313C17.9337 25.1993 19.2659 24.5332 20.781 23.632L20.8519 23.6749C22.3372 24.5537 23.6582 25.1807 25.4886 24.0313C27.7706 22.6263 29.9686 18.7658 30.1029 15.6274C30.2709 11.7837 27.9124 9.85808 26.0465 9.72747C23.759 9.61179 22.2774 10.5298 20.8071 11.5859ZM24.0724 12.6084C26.2592 15.077 25.8879 17.3944 23.7739 21.7643C25.7704 20.9414 27.5224 18.206 27.5056 16.2916C27.4851 13.9668 25.8506 12.5039 24.0724 12.6084Z" fill="#4B66BA"/>
</svg>